<?xml version="1.0" encoding="utf-8"?>
<!-- Designed by Vexels.com - 2020 All Rights Reserved - https://vexels.com/terms-and-conditions/  -->
<svg version="1.1" id="Layer_1" xmlns="http://www.w3.org/2000/svg" xmlns:xlink="http://www.w3.org/1999/xlink" x="0px" y="0px"
	 viewBox="0 0 1200 1200" enable-background="new 0 0 1200 1200" xml:space="preserve">
<g>
	<path fill="#2C3B84" d="M52.088,979.763c0.157,1.649,0.312,3.298,0.446,4.91c0.12,0.463,1.346,1.686,1.798,1.812l1.046,0.154
		c0.98,0.157,1.869,0.294,2.821,0.292l8.736-0.074c10.471-0.1,21.311-0.2,31.976,0.051c3.858,0.08,7.788-0.18,11.603-0.44
		l1.503-0.103c1.995-0.134,3.981-0.546,5.847-0.957c3.201-0.703,5.187-2.703,5.904-5.947c1.123-5.055,1.692-10.597,1.738-16.944
		l0.014-1.958c0.043-5.347,0.086-10.877-0.194-16.284c-0.423-8.293-0.429-16.712-0.437-24.854v-1.643
		c-0.014-13.123-0.014-13.123,1.732-13.815c3.018-1.197,6.033-0.949,8.939-0.703c1.166,0.094,2.221,0.251,3.495,0.191l0.88-0.003
		c8.008-0.014,16.289-0.029,24.368-1.077c2.163-0.28,4.364-0.38,6.493-0.474c0.903-0.04,1.809-0.08,2.712-0.134
		c2.223-0.146,4.361,0.434,6.424,1.752c2.378,1.512,4.764,3.006,7.15,4.501l4.898,3.075c2.646,1.672,5.567,3.089,8.928,4.332
		c1.372,0.506,2.752,0.989,4.132,1.472c1.177,0.411,2.355,0.823,3.527,1.249c6.804,2.463,13.129,3.661,19.327,3.661
		c0.06,0,0.12,0,0.177,0c2.212-0.014,4.412,0.003,6.622,0.017c2.875,0.014,5.744,0.029,8.628,0
		c8.471-0.091,17.115-1.786,26.438-5.178c7.122-2.595,13.866-6.276,20.388-9.834l4.049-2.223c1.789-0.986,3.575-1.975,5.381-2.915
		c2.018-1.055,4.23-1.6,6.41-1.523l1.423,0.023c1.583,0.02,3.164,0.043,4.738,0.169c14.278,1.157,28.767,1.152,43.613,1.023
		c1.48-0.011,2.981-0.054,4.452-0.166c28.847-2.243,58.879-1.563,87.92-0.9c13.243,0.3,26.938,0.612,40.235,0.634
		c42.398,0.071,86.463,0.24,134.705,0.514c86.286,0.486,174.011,1.246,258.848,1.98l10.48,0.091
		c16.97,0.151,31.916,0.166,45.765,0.214c9.674-0.006,20.01-0.111,32.528-0.332c3.218-0.057,6.433-0.211,9.645-0.369
		c2.201-0.109,4.398-0.214,6.599-0.292c3.349-0.114,6.713-0.266,10.088-0.414c14.475-0.646,29.441-1.309,43.939,0.697
		c1.74,0.24,3.558,0.329,5.316,0.411c1.255,0.063,2.512,0.123,3.764,0.237c1.1,0.1,2.741,0.303,4.252,0.88
		c2.563,0.977,4.224,2.569,4.935,4.732c2.409,7.362,2.978,13.58,1.783,19.567c-0.52,2.606-0.549,5.416-0.572,7.893
		c-0.117,12.857-0.177,25.717-0.24,38.575l-0.031,6.173c-0.003,0.609,0.043,1.229,0.146,1.829c0.203,1.143,0.72,2.132,1.543,2.932
		c1.438,1.4,3.021,2.226,4.71,2.449c1.68,0.223,3.375,0.331,5.07,0.44l5.25,0.38c3.627,0.271,7.256,0.546,10.885,0.78
		c3.058,0.194,6.05,0.371,9.079,0.397c5.641,0.049,10.391,0.046,15.218-0.103c9.356-0.277,18.624-0.2,27.538,0.223
		c1.326,0.066,2.706-0.006,4.047-0.077l0.926-0.049c1.152-0.051,2.306-1.083,2.421-2.16c3.009-28.092,2.486-56.879,1.978-84.714
		c-0.383-20.859-0.775-42.424,0.317-63.589c0.091-1.826,0.217-3.652,0.34-5.476c0.129-1.895,0.254-3.789,0.349-5.684
		c0.154-3.109-0.954-5.836-3.389-8.333c-0.635-0.649-1.338-1.237-2.038-1.823l-0.946-0.8c-23.554-20.459-48.857-42.11-76.406-62.154
		c-2.455-1.786-4.947-3.521-7.436-5.255c-2.795-1.949-5.593-3.898-8.336-5.916c-2.123-1.56-4.33-2.321-6.739-2.321
		c-0.049,0-0.094,0-0.143,0c-2.689,0.031-5.384,0.089-8.073,0.226c-7.756,0.409-15.524,0.852-23.297,1.295
		c-43.727,2.492-88.94,5.076-133.288,1.135c-0.257-0.017-0.597,0.017-0.946,0.066c-0.312,0.043-0.626,0.083-0.935,0.091
		c-0.317,0.009-0.412,0.083-0.423,0.166c-0.043,0.326-0.131,1-0.04,1.189c0.42,0.732,1.017,1.432,1.68,1.966
		c0.732,0.589,1.503,1.126,2.275,1.666c0.897,0.632,1.798,1.263,2.641,1.96c2.321,1.912,3.904,4.361,4.704,7.273
		c0.454,1.646,0.106,3.555-0.929,5.107c-0.932,1.403-2.301,2.315-3.752,2.501l-0.28,0.037c-1.617,0.211-3.281,0.434-4.961,0.349
		c-7.25-0.366-13.809-0.011-20.025,1.049c-5.956,1.023-11.94,0.772-17.524,0.346c-6.296-0.477-12.809-0.969-19.293-1.723
		c-4.944-0.572-9.245-1.32-13.152-2.292c-4.598-1.143-9.322-1.869-13.889-2.569l-4.264-0.663c-4.27-0.669-8.536-1.335-12.814-1.92
		c-6.933-0.949-14.595-0.949-24.1-0.006l-1.735,0.171c-3.467,0.346-6.933,0.692-10.402,1.049l-1.049,0.106
		c-1.309,0.126-2.621,0.254-3.912,0.492c-6.013,1.1-12.023,2.232-18.03,3.364l-9.842,1.855c-2.029,0.389-4.061,0.774-6.096,1.152
		l-4.315,0.803c-10.397,1.943-21.148,3.952-31.747,5.047c-6.679,1.577-13.546,1.858-20.188,2.126l-1.232,0.051
		c-1.889,0.077-3.772,0.237-5.658,0.394c-1.489,0.126-2.975,0.251-4.461,0.337l-1.735,0.106c-3.772,0.226-7.67,0.463-11.523,0.494
		c-2.109-0.046-4.178-0.44-6.25-0.9c-5.859-1.292-10.274-4.741-13.126-10.257c-1.9-3.672-3.758-7.37-5.616-11.068l-2.652-5.264
		c-0.912-1.806-1.823-3.609-2.763-5.398c-0.3-0.572-0.897-0.946-1.523-0.954c-10.505-0.169-21.01-0.269-31.516-0.34
		c-13.612-0.091-27.455,0.1-40.841,0.286c-18.284,0.254-37.186,0.52-55.799,0.057c-1.14-0.023-2.346,0.126-3.604,0.292l-1.292,0.163
		c-0.594,0.066-1.08,0.463-1.449,1.186c-0.389,0.763-0.712,1.56-1.037,2.358c-0.311,0.769-0.626,1.54-0.992,2.283
		c-1.372,2.795-3.801,4.633-7.024,5.315c-1.755,0.372-3.735,0.592-6.233,0.692c-1.363,0.054-2.735,0.034-4.104,0.023
		c-1.343-0.017-2.692-0.031-4.03,0.023c-1.497,0.06-3.049,0.343-4.55,0.617l-0.32,0.06c-0.632,0.114-1.72,0.483-1.952,1.683
		l-0.38,1.935c-0.963,4.875-1.958,9.917-1.975,14.958c-0.014,5.007-1.257,9.934-2.355,14.278c-0.634,2.526-1.909,4.412-3.787,5.604
		c-3.012,1.918-7.79,2.789-11.277,3.429l-0.566,0.103c-11.508,2.109-23.268,2.109-34.639,2.109c-0.063,0-0.126,0-0.191,0
		c-10.019,0-20.202-0.126-30.05-0.249c-7.539-0.091-15.075-0.186-22.614-0.226c-13.397-0.071-26.743-0.76-39.703-2.046
		c-1.009-0.1-2.018-0.2-3.024-0.326c-1.732-0.214-3.321-0.812-4.855-1.392c-1.62-0.609-3.149-1.183-4.775-1.312
		c-0.789-0.06-1.412-0.56-1.912-0.963l-0.363-0.283c-2.769-1.989-4.264-4.547-4.435-7.605c-0.251-4.412-2.206-8.282-4.281-11.808
		c-0.36-0.612-0.9-0.952-1.56-0.98c-0.869-0.04-1.746,0.006-2.623,0.051c-0.803,0.04-1.606,0.089-2.412,0.066
		c-4.438-0.089-7.682,1.652-10.037,5.438c-1.386,2.229-3.035,4.307-4.63,6.319c-0.712,0.897-1.423,1.795-2.115,2.709l-0.809,1.066
		c-0.954,1.257-1.909,2.515-2.838,3.789c-0.249,0.346-0.446,0.726-0.646,1.106l-0.283,0.526c-0.137,0.246-0.169,0.469,0.051,0.946
		c0.203,0.437,0.34,0.44,0.509,0.437c2.532-0.031,5.064-0.083,7.596-0.134l1.446-0.029v-0.146l3.238-0.134
		c1.986-0.086,3.972-0.169,5.961-0.214c1.183-0.043,2.289,0.069,3.272,0.277c1.275,0.271,2.072,1.295,1.938,2.481
		c-0.137,1.266-0.943,2.112-2.215,2.321c-6.43,1.052-13.543,1.635-22.388,1.843c-0.566-0.009-1.175-0.12-1.675-0.24l-0.554-0.123
		c-1.323-0.257-2.543-1.132-3.352-2.403c-0.863-1.363-1.149-2.972-0.783-4.415c0.386-1.54,1.006-2.861,1.898-4.035
		c4.693-6.216,9.394-12.423,14.109-18.624c0.434-0.572,0.969-1.22,1.638-1.698c0.832-0.589,1.809-1.252,2.892-1.643
		c1.366-0.492,2.761-0.84,4.147-1.032c2.981-0.417,5.913-0.703,8.133-0.903c3.424-0.311,5.198-1.549,5.936-4.141
		c0.211-0.752,0.569-1.435,0.914-2.069c1.543-2.846,4.052-4.581,7.253-5.01c1.7-0.226,3.427-0.306,5.095-0.38
		c0.692-0.031,1.383-0.063,2.075-0.103c2.435-0.146,4.532-0.677,6.416-1.629c1.223-0.614,2.461-1.197,3.707-1.766
		c2.283-1.043,4.575-0.76,6.819,0.832c3.289,2.335,5.498,5.59,6.562,9.674c0.243,0.94,0.414,1.9,0.583,2.861
		c0.18,1.032,0.36,2.063,0.652,3.066c0.174,0.6,0.657,1.646,1.932,1.869c1.346,0.237,2.661,0.406,3.907,0.497
		c10.971,0.812,21.728-0.78,32.125-2.323c5.061-0.749,10.194-1.638,15.158-2.498c2.289-0.397,4.575-0.792,6.862-1.177
		c7.353-1.235,14.778-1.449,20.419-1.5c0.492-0.017,0.903,0.043,1.355,0.094c0.249,0.029,0.497,0.06,0.752,0.074
		c1.095,0.069,2.175,0.84,2.566,1.84c0.283,0.714,0.16,1.452-0.329,1.969l-0.237,0.263c-0.457,0.526-1.029,1.175-1.863,1.28
		c-2.423,0.309-4.835,0.503-7.173,0.583c-6.987,0.243-14.06,1.015-21.022,2.289c-10.274,1.88-22.248,3.958-34.308,4.838
		c-6.313,0.46-13.006,0.303-20.476-0.48c-0.62-0.066-1.535-0.234-2.352-0.68c-0.829-0.454-2.218-1.215-2.575-2.852
		c-0.18-0.817-0.34-1.638-0.5-2.461c-0.163-0.834-0.326-1.669-0.509-2.498l-0.189-0.863c-0.286-1.323-0.583-2.692-0.989-3.975
		c-0.56-1.763-1.606-3.212-3.112-4.304c-0.852-0.617-1.317-0.783-1.729-0.6c-6.65,2.966-12.409,4.184-18.178,3.892
		c-0.051,0-0.203,0.043-0.303,0.071c-0.14,0.04-0.283,0.08-0.423,0.109c-1.12,0.22-1.992,0.829-2.461,1.709
		c-0.906,1.706-1.718,3.524-2.498,5.278l-0.909,2.021c-0.609,1.332-0.569,2.603,0.123,3.895c1.766,3.309,2.878,6.907,3.392,11.003
		c0.109,0.872,0.434,1.712,0.852,2.189c1.838,2.115,3.667,4.092,6.69,3.909c2.855-0.183,5.793,0.211,8.322,0.6
		c3.484,0.532,7.299,0.826,12.008,0.929c1.615,0.037,3.229,0.103,4.841,0.172c1.435,0.06,2.869,0.12,4.304,0.157l2.032,0.051
		c5.073,0.131,10.145,0.26,15.221,0.323c4.975,0.06,9.954,0.08,14.932,0.1c12.106,0.046,24.623,0.094,36.937,0.772
		c1.532,0.086,3.266,0.177,4.944,0.066c3.455-0.237,6.913-0.497,10.368-0.757c4.31-0.32,8.616-0.643,12.926-0.926
		c0.872-0.057,1.789-0.091,2.726-0.126c4.175-0.154,8.896-0.329,12-2.821c2.481-4.933,3.081-10.417,3.358-15.612
		c0.129-2.449,0.446-4.91,0.752-7.287l0.24-1.878c0.354-2.864,0.74-5.721,1.126-8.579c1.135-8.393,2.309-17.073,2.615-25.674
		c0.429-12.006-0.3-22.517-2.232-32.133c-1.232-6.127-3.312-12.154-5.327-17.984l-0.126-0.366c-0.923-2.672-1.906-5.321-2.889-7.973
		c-0.783-2.109-1.566-4.221-2.321-6.341c-0.517-1.457-0.914-3.032-0.32-4.678c0.237-0.674,0.583-1.143,1.02-1.392
		c0.612-0.354,1.838-0.752,3.135,0.492c1.166,1.109,1.758,2.458,2.341,3.784c0.191,0.443,0.369,0.894,0.546,1.346
		c0.54,1.38,1.052,2.683,2.02,3.638c0.043,0.017,0.194,0.003,0.38-0.14c0.454-0.343,0.852-0.76,1.117-1.172
		c4.39-6.804,7.61-14.741,10.134-24.98c0.183-0.737,0.34-1.477,0.5-2.221c0.194-0.92,0.392-1.84,0.629-2.749
		c1.463-5.59,1.798-11.56,1.052-18.787c-0.497-4.81-2.026-8.953-4.675-12.666c-4.438-6.21-10.128-10.611-16.912-13.083
		c-3.675-1.34-7.533-1.715-11.483-1.112c-3.584,0.549-6.704,1.383-9.542,2.552c-6.447,2.661-12.509,5.887-18.096,8.979
		c-2.892,1.6-5.241,4.184-6.982,7.676c-2.298,4.601-3.178,9.371-2.618,14.172c0.492,4.192,1.2,7.596,2.226,10.717
		c0.654,1.983,1.166,4.032,1.66,6.013c0.474,1.903,0.966,3.872,1.578,5.744c1.152,3.532,2.446,8.242,2.226,13.34
		c-0.034,0.794,0.069,1.712,0.309,2.721l0.955,4.047c1.137,4.827,2.312,9.819,3.638,14.669c0.654,2.386,1.609,4.767,2.529,7.067
		c0.314,0.786,0.632,1.572,0.935,2.361c0.397,1.029,0.889,2.02,1.377,3.015l0.292,0.589c2.269,4.644,3.584,9.716,3.904,15.081
		c0.166,2.726,0.4,5.447,0.634,8.168c0.234,2.683,0.466,5.37,0.629,8.059c0.572,9.362,1.935,18.77,4.047,27.958l0.063,0.274
		c0.457,1.958,0.972,4.178-0.163,6.41c-0.246,0.477-0.789,1.009-1.443,1.123c-0.54,0.097-1.38,0.04-1.915-0.457
		c-0.503-0.46-1.189-1.095-1.5-1.946c-0.277-0.749-0.5-1.52-0.726-2.289c-0.243-0.84-0.486-1.683-0.809-2.492
		c-0.071-0.174-0.472-0.483-0.666-0.517c-1.606-0.294-3.235-0.466-4.85-0.506c-1.137-0.031-2.275-0.017-3.406,0.003
		c-0.935,0.011-1.866,0.026-2.806,0.014c-0.263,0.123-0.534,0.232-0.812,0.334c-0.752,0.286-1.437,0.706-2.195,1.189l-0.64,0.417
		c-0.66,0.434-1.332,0.875-1.838,1.095c-0.297,0.24-0.634,0.446-1.006,0.612c-2.729,1.217-5.959,2.629-9.214,3.864
		c-0.895,0.34-1.86,0.269-2.712,0.206l-0.623-0.04c-0.563-0.023-1.22-0.397-1.529-0.746l-0.357-0.609l0.043-0.472
		c0.077-0.854,0.171-1.915,1.02-2.383c3.807-2.083,7.908-4.21,12.297-5.244c0.472-0.22,0.946-0.446,1.509-0.749
		c0.477-0.343,0.997-0.652,1.52-0.963c0.286-0.169,0.574-0.337,0.7-0.397c0.437-0.403,0.909-0.752,1.28-0.957l0.34-0.243
		l0.129-0.031c0.986-0.503,2.075-0.766,3.232-0.777c0.669-0.006,1.335-0.054,2.003-0.1c0.683-0.049,1.369-0.094,2.055-0.106
		c2.775-0.037,4.115-0.297,4.624-0.897c0.609-0.714,0.483-2.506,0.06-5.361c-0.397-2.681-0.863-5.35-1.332-8.022l-0.514-2.966
		c-0.077-0.297-0.783-0.903-1.077-0.94h-0.666c-0.78-0.014-1.555-0.006-2.332,0.023c-0.68,0.023-1.357,0.063-2.035,0.1
		c-1.023,0.057-2.043,0.114-3.066,0.126c-2.889-0.014-5.041-1.8-5.318-4.447c-0.66-6.307-0.949-11.505-0.909-16.361
		c0.04-4.881,0-9.859-0.123-15.223c-0.02-0.903-0.246-1.835-0.486-2.821l-0.22-0.935c-0.046-0.206-0.309-0.557-0.78-0.84
		c-0.477-0.291-0.869-0.326-1.02-0.286c-6.376,1.792-12.854,4.201-19.805,7.362c-2.241,1.015-3.461,2.746-3.841,5.444l-0.097,0.98
		c-0.157,1.492,0.234,2.038,0.869,2.403c0.426,0.246,0.866,0.46,1.306,0.68c0.472,0.231,0.94,0.466,1.397,0.726
		c2.229,1.272,3.618,3.278,3.912,5.644l0.289,2.283c0.62,4.898,1.263,9.965,1.515,14.989c0.374,7.61,0.543,15.346,0.706,22.831
		l0.151,6.676c0.017,0.8-0.329,1.532-0.714,2.352c-0.409,0.903-1.62,0.837-1.849,0.823c-0.497-0.046-1.532-0.134-1.86-0.98
		l-0.311-0.772c-0.44-1.06-0.892-2.155-1.009-3.346c-0.426-4.335-0.7-8.339-0.837-12.24c-0.106-3.018-0.131-6.039-0.16-9.062
		c-0.02-2.069-0.037-4.138-0.083-6.207c-0.131-6.31-0.712-11.363-1.818-15.898c-0.246-1.006-1.615-2.063-2.666-2.063
		c-0.003,0-0.006,0-0.009,0c-0.231-0.006-0.494-0.009-0.743-0.017c-0.389-0.011-0.774-0.029-1.146,0.017l-0.76,0.106
		c-3.767,0.52-7.536,1.043-11.285,1.64c-1.855,0.297-3.264,1.812-3.675,3.952c-0.752,3.904-0.989,8.125-0.723,12.903
		c0.4,7.202-0.114,14.452-0.609,21.465c-0.146,2.026-0.289,4.055-0.411,6.087c-0.063,1.029-0.297,2.02-0.523,2.975
		c-0.091,0.38-0.18,0.76-0.26,1.14c-0.154,0.754-0.549,1.346-1.112,1.672c-0.526,0.309-1.169,0.36-1.815,0.146
		c-0.374-0.123-2.249-0.797-2.218-2.092c0.043-1.572,0.149-3.138,0.254-4.707c0.1-1.466,0.2-2.935,0.243-4.404
		c0.034-1.077-0.129-2.318-0.483-3.678c-0.046-0.14-0.377-0.483-0.766-0.672c-0.389-0.186-1.123-0.169-1.477-0.157
		c-22.382,0.58-45.102-0.06-67.075-0.686l-6.21-0.174c-2.818-0.077-5.633-0.063-8.445-0.051c-1.92,0.003-3.835,0.017-5.764-0.003
		c-1.269-0.011-2.538-0.014-3.807-0.017c-3.772-0.009-7.67-0.017-11.506-0.306c-6.384-0.483-11.337-0.466-16.041,0.049
		c-5.224,0.572-10.754,0.714-17.433,0.454c-1.286-0.051-2.721-0.42-4.27-1.095c-2.401-1.052-4.515-2.123-6.461-3.281
		c-1.395-0.823-2.352-2.258-2.695-4.032c-0.946-4.835-1.083-10.059-0.409-15.535c1.406-11.448,1.357-23.168,1.312-34.499
		l-0.017-4.981c0-1.146-0.077-2.398-0.246-3.944c-0.583-5.45-1.943-12.389-7.342-17.701c-0.726-0.72-1.683-1.832-1.563-3.215
		c0.129-1.463,1.432-2.541,2.552-3.315c1.08-0.746,2.166-1.483,3.252-2.221c1.435-0.977,2.869-1.952,4.292-2.949
		c4.412-3.089,9.185-5.876,14.183-8.285c5.193-2.498,10.248-5.093,14.506-7.299c7.928-4.104,14.306-7.716,20.076-11.371
		c1.057-0.669,2.069-1.355,3.066-2.029c4.592-3.106,8.931-6.041,15.301-6.056l1.497-0.003l-0.449,1.429
		c-3.909,12.509,8.711,27.695,18.924,34.482c1.443,0.963,3.015,1.823,4.535,2.655c1.96,1.075,3.987,2.183,5.841,3.552
		c3.958,2.918,7.099,7.059,8.848,11.657l0.129,0.337c0.692,1.843,1.409,3.747,2.892,4.144c1.26,0.337,2.395-0.486,4.11-1.883
		c1.375-1.123,2.929-2.392,4.847-2.612c2.335-0.26,4.17,1.043,5.936,2.303c1.3,0.929,2.526,1.806,3.858,1.995
		c0.677,0.091,1.412,0.009,2.189-0.08c0.517-0.063,1.037-0.123,1.555-0.137c2.561-0.051,4.961,0.906,7.242,1.858
		c0.995,0.417,1.989,0.834,3.001,1.155c5.721,1.82,6.899,0.174,9.474-3.421c1.006-1.409,2.149-3.004,3.781-4.698
		c1.32-1.372,2.592-2.792,3.861-4.212l1.563-1.738c1.249-1.383,2.892-2.323,4.887-2.792c1.312-0.306,2.723-0.6,4.17-0.677
		c2.049-0.111,4.101-0.114,6.156-0.114l0.974-0.003c5.064-0.011,10.454-0.28,15.546-2.175c0.563-0.209,1.152-0.211,1.712-0.166
		c0.829-0.294,1.678-0.54,2.526-0.786c0.674-0.194,1.349-0.386,2.015-0.609c-0.229-0.46-0.48-0.892-0.7-1.255
		c-0.629-1.046-1.32-2.055-2.012-3.061c-0.452-0.66-0.903-1.317-1.34-1.989c-1.3-1.998-2.595-4.001-3.835-6.036
		c-5.301-8.716-6.659-18.281-4.15-29.247c0.097-0.429,0.286-1.023,0.503-1.695c0.326-1.006,1.315-4.072,0.903-4.61
		c-0.4-0.226-2.126-0.203-2.869-0.191c-0.557,0.006-1.046,0.009-1.363-0.014l-4.933-0.409c-2.506-0.209-5.959-0.823-6.987-3.735
		c-0.612-1.729-0.006-3.415,0.529-4.904c0.186-0.517,0.371-1.035,0.503-1.549c0.523-2.072,0.08-4.512-1.246-6.867
		c-1.195-2.112-2.844-3.864-4.875-5.933c-1.409-1.438-3.004-3.064-4.85-4.212c-1.755-1.092-3.698-1.752-5.753-2.452
		c-1.28-0.434-2.561-0.872-3.792-1.412l-0.38-0.16c-1.529-0.64-4.092-1.709-4.092-3.844c0.003-1.866,2.312-3.489,4.25-4.524
		c9.271-4.935,18.827-10.888,30.078-18.739c9.076-6.33,19.399-12.443,32.482-19.233l3.146-1.617c2.263-1.16,4.524-2.321,6.759-3.532
		c85.483-46.462,159.305-88.778,225.683-129.364c2.003-1.226,4.047-2.395,6.09-3.561c1.786-1.02,3.572-2.04,5.333-3.104
		c6.293-3.795,13.132-6.584,19.745-9.282l2.529-1.032c1.397-0.577,2.975-0.694,4.335-0.737c1.618-0.046,3.004-0.452,4.238-1.24
		l0.76-0.48c0.597-0.374,1.195-0.746,1.775-1.146l10.411-7.167c6.021-4.147,12.046-8.296,18.081-12.423
		c8.956-6.124,17.938-12.211,26.94-18.267c1.546-1.037,3.266-2.023,5.413-3.098c6.676-3.338,13.366-6.639,20.076-9.897
		c1.769-0.854,3.615-1.569,5.401-2.258l0.314-0.12c2.329-0.9,4.667-1.789,7.002-2.678c3.995-1.517,7.99-3.035,11.96-4.621
		c7.453-2.975,14.54-5.021,21.668-6.256c4.104-0.712,7.276-1.04,10.277-1.069c2.475-0.023,4.947-0.126,7.419-0.229l0.677-0.029
		c5.153-0.209,9.699-2.186,13.906-6.044c0.729-0.669,1.438-1.36,2.112-2.083l2.335-2.495c2.924-3.126,5.847-6.253,8.708-9.431
		c0.594-0.66,1.049-1.495,1.532-2.381l0.432-0.74c0.003-0.183-0.28-0.592-0.337-0.652c-0.649,0.046-1.303,0.057-1.958,0.066
		c-1.043,0.017-2.026,0.031-2.972,0.197c-3.249,0.569-6.613,1.157-9.805,2.095c-4.421,1.292-8.948,2.469-13.326,3.609
		c-8.499,2.209-17.287,4.492-25.609,7.722c-0.534,0.209-1.08,0.274-1.56,0.332c-0.209,0.026-0.417,0.051-0.617,0.089
		c-1.069,0.206-3.644-0.692-3.935-2.02c-0.191-0.906-0.243-1.675-0.16-2.349c0.12-0.983,0.392-1.789,0.803-2.392l0.903-1.349
		c1.203-1.806,2.446-3.672,3.901-5.353c4.07-4.701,8.428-9.542,12.949-14.392c6.887-7.385,12.792-15.081,19.796-24.371
		c0.512-0.68,0.909-1.48,1.329-2.326c0.177-0.357,0.354-0.714,0.537-1.057c0.074-0.189-0.137-0.714-0.266-0.803
		c-5.293-0.703-9.676,1.035-13.403,5.37c-0.709,0.823-1.286,1.769-1.898,2.772l-0.28,0.457
		c-6.47,10.494-14.475,20.708-25.192,32.147c-7.373,7.873-15.872,15.389-25.26,22.337l-2.643,1.952
		c-5.295,3.912-10.774,7.956-16.064,12.054c-7.302,5.653-15.472,10.951-25.714,16.672c-6.97,3.895-14.012,8.253-21.525,13.323
		c-4.918,3.315-10.085,6.41-15.083,9.402c-2.201,1.317-4.401,2.635-6.587,3.972c-0.812,0.5-1.635,0.986-2.455,1.472
		c-1.76,1.043-3.584,2.123-5.264,3.304c-1.063,0.746-2.006,1.675-3.006,2.658c-0.4,0.394-0.8,0.789-1.209,1.169
		c-1.5,3.449-4.447,5.233-7.299,6.959l-0.303,0.183c-0.897,0.546-1.78,1.117-2.664,1.686c-1.409,0.912-2.818,1.82-4.281,2.629
		c-7.039,3.889-14.075,8.07-20.879,12.111c-4.735,2.812-9.471,5.624-14.3,8.396c-29.332,14.666-58.222,32.085-86.16,48.928
		c-15.401,9.285-31.327,18.887-47.108,27.892c-13.583,7.753-27.795,15.298-41.541,22.591c-27.223,14.446-55.373,29.384-80.71,47.031
		c-3.064,2.132-6.233,4.335-9.808,5.281l-4.827,2.712c-3.707,2.086-7.413,4.169-11.114,6.264c-0.977,0.554-1.92,1.169-2.861,1.78
		c-0.883,0.574-1.769,1.149-2.672,1.672c-0.051,0.034-6.219,2.583-7.379,1.743l-0.597-0.472l0.154-0.703
		c0.772-3.464,0.854-7.145,0.24-10.648c-0.163-0.906-0.377-1.846-0.857-2.572c-0.577-0.869-1.572-1.503-2.529-2.115
		c-3.315-2.098-7.073-4.475-11.16-4.564c-2.658-0.143-5.333,0.917-7.359,1.769c-3.781,1.589-7.367,3.629-10.662,6.064
		c-0.706,0.523-1.426,1.092-1.755,1.789c-0.323,0.686-0.314,1.586-0.303,2.458c0.031,2.744,0.189,5.344,1.726,7.024l1.432,1.56
		l-2.103,0.269c-3.186,0.406-6.39,0.98-9.519,1.709c-1.972,0.46-4.23,1.052-6.041,2.246c-3.264,2.149-4.855,5.861-6.542,9.791
		c-0.912,2.123-1.852,4.318-3.089,6.29c-0.88,1.409-1.92,2.703-2.926,3.958c-0.817,1.02-1.638,2.04-2.369,3.121
		c-1.255,1.852-1.632,4.19-1.998,6.45c-0.609,3.778-1.3,8.062-6.461,9.748c-4.427,1.449-8.536,3.967-12.314,6.47
		c-12.189,8.076-26.055,15.792-43.641,24.283c-4.944,2.386-9.542,5.344-12.997,7.656c-3.352,2.241-6.764,4.39-10.174,6.542
		l-2.692,1.698c-2.892,1.829-5.261,2.918-7.679,3.527c-1.629,0.411-2.952,1.323-4.029,2.158c-4.298,3.344-9.148,5.416-13.746,7.159
		c-0.729,0.274-1.649,0.129-2.475-0.391c-0.772-0.489-1.249-1.183-1.306-1.906l-0.083-1.06c-0.134-1.672-0.266-3.346-0.346-5.024
		c-0.066-1.449-0.106-2.898-0.146-4.347c-0.071-2.563-0.146-5.215-0.372-7.793l-0.074-0.872c-0.472-5.378-0.96-10.94-0.986-16.472
		c-0.023-5.596-1.317-11.111-2.706-16.607c-0.189-0.291-1.155-0.949-1.48-1.014c-3.987-0.406-8.205-0.263-12.889,0.434
		c-0.649,0.097-1.826,1.243-1.915,1.749c-0.046,0.26-0.109,0.517-0.174,0.777c-0.094,0.374-0.183,0.726-0.183,1.023
		c-0.014,2.592-0.046,5.184-0.08,7.773c-0.12,9.088-0.243,18.484,0.586,27.701c0.497,5.513,0.703,11.131,0.903,16.564
		c0.071,1.943,0.143,3.887,0.229,5.83c0.04,0.966-0.091,2.023-0.42,3.326c-0.2,0.783-0.609,1.832-1.435,2.378
		c-3.881,2.558-7.893,5.201-12.054,7.645c-1.678,0.986-3.638,1.42-5.158,1.686c-2.14,0.377-4.324,0.632-6.436,0.877l-2.655,0.32
		c-0.634,0.074-1.312-0.143-1.886-0.623c-0.7-0.589-1.137-1.469-1.175-2.352l-0.069-1.563c-0.083-1.866-0.166-3.732-0.157-5.598
		c0.026-4.787,0.009-9.576-0.009-14.363c-0.037-10.302-0.074-20.956,0.349-31.447c0.131-3.215,0.054-6.51-0.02-9.696l-0.034-1.42
		c-0.014-0.6-0.166-1.24-0.329-1.92c-0.071-0.289-0.14-0.58-0.2-0.866c-0.1-0.463-1.372-1.566-1.992-1.629
		c-3.427-0.34-6.144-0.103-8.565,0.746c-1.123,0.394-1.838,1.069-2.123,2.006c-0.434,1.429-0.906,3.089-0.997,4.678
		c-0.217,3.769-0.297,7.505-0.243,11.103c0.1,6.339,0.274,11.494,0.552,16.218c1.98,33.888,1.072,68.747,0.191,102.461
		c-0.403,15.475-0.82,31.476-0.949,47.099l-0.02,2.852c-0.294,50.12-0.374,104.052,1.035,158.845
		C51.316,971.613,51.708,975.757,52.088,979.763z M686.385,801.365c0.283,0.38,0.46,0.872,0.529,1.472
		c0.054,0.503-0.031,1.04-0.24,1.477c-0.323,0.674-0.837,1.149-1.446,1.34c-0.206,0.066-0.414,0.097-0.623,0.097
		c-0.389,0-0.78-0.109-1.157-0.323c-0.92-0.52-1.886-1.095-2.681-1.88c-1.18-1.169-2.332-2.366-3.484-3.567
		c-1.195-1.24-2.389-2.483-3.615-3.689c-1.552-1.532-3.452-2.338-5.644-2.395l-7.113-0.206c-5.407-0.163-10.817-0.323-16.227-0.397
		c-4.098-0.051-8.19,0.009-12.283,0.074l-4.961,0.069c-15.915,0.177-31.827,0.354-47.74,0.549c-1.583,0.02-3.164,0.12-4.738,0.223
		l-0.28,0.017c-9.814,0.64-18.616,0.663-28.441,0.08l-2.106,0.046c-2.458,0.051-5.773,0.123-9.085,0.237
		c-1.74,0.06-3.484,0.154-5.224,0.246c-2.321,0.123-4.644,0.246-6.97,0.297c-5.936,0.129-11.871,0.234-17.807,0.337
		c-6.253,0.111-12.506,0.22-18.761,0.36c-3.649,0.08-7.299,0.211-10.945,0.343c-3.118,0.111-6.233,0.223-9.351,0.303
		c-3.664,0.094-7.982,0.183-12.237,0.094c-8.471-0.174-16.938-0.44-25.403-0.723c-0.954-0.031-1.843-0.294-2.701-0.549l-0.503-0.149
		c-0.857-0.251-1.157-1.246-1.209-1.452c-0.349-1.375,0.251-2.523,1.529-2.929c0.226-0.071,0.452-0.154,0.68-0.234
		c0.766-0.277,1.68-0.503,2.561-0.572c6.333,0.126,12.88,0.257,19.319,0.606c7.873,0.423,14.472,0.549,21.111-0.229
		c3.464-0.409,7.067-0.469,10.251-0.523c7.57-0.123,15.143-0.226,22.717-0.329c6.99-0.097,13.98-0.191,20.968-0.303
		c3.878-0.06,8.01-0.143,12.126-0.42c4.698-0.314,9.525-0.332,14.349-0.04c5.573,0.331,12.897,0.623,20.13-0.071
		c8.373-0.812,16.921-0.826,24.463-0.84h2.495c2.218-0.003,4.424,0.003,6.639-0.02l15.624-0.174
		c10.708-0.123,21.416-0.246,32.125-0.32c3.506-0.029,7.113,0.103,10.577,0.229l3.684,0.126c1.383,0.043,2.769,0.14,4.141,0.294
		c3.064,0.346,5.724,1.543,7.905,3.564C681.287,795.167,684.082,798.21,686.385,801.365z M1040.989,801.565
		c-6.07,1.492-12.291,1.469-18.313,1.412l-1.155-0.006c-34.891-0.177-70.305,0.52-104.57,1.2
		c-30.447,0.609-61.503,1.229-92.656,1.229c-21.716,0-43.481-0.3-65.118-1.117c-11.103-0.423-22.031-0.503-32.473-0.246
		c-5.738,0.143-11.566,0.089-17.201,0.034l-2.163-0.02c-0.949-0.009-1.855-0.314-2.655-0.583l-0.58-0.191
		c-0.674-0.217-1.075-0.912-1.212-1.449c-0.352-1.392,0.283-2.566,1.575-2.918l0.577-0.169c0.832-0.243,1.692-0.497,2.618-0.512
		l1.386-0.023c11.217-0.177,22.817-0.363,34.225-0.414c3.358,0.02,6.764,0.14,10.051,0.286c1.409,0.063,2.818,0.126,4.227,0.177
		c3.018,0.109,6.036,0.24,9.053,0.372c6.353,0.274,12.926,0.56,19.382,0.626c70.276,0.737,135.117,0.303,198.24-1.317
		c2.201-0.057,4.401-0.134,6.599-0.209c2.206-0.077,4.412-0.154,6.619-0.211l3.492-0.097c4.195-0.12,8.519-0.277,12.806-0.237
		l2.615,0.009c7.104,0.02,14.469,0.046,21.662-0.703c0.82-0.089,1.626,0.014,2.298,0.12c0.603,0.091,1.04,0.471,1.4,0.783
		c0.323,0.274,0.812,0.689,0.923,1.335l0.003,0.006C1042.875,800.102,1042.195,801.268,1040.989,801.565z M1050.271,775.185
		c-0.683,2.735-0.777,5.496-0.877,8.419c-0.049,1.492-0.1,2.984-0.231,4.464c-0.149,1.692-0.472,3.378-0.82,5.098
		c-0.16,0.794-0.543,1.5-0.917,2.149c-0.306,0.543-0.869,0.78-1.383,0.94c-0.274,0.083-0.546,0.126-0.809,0.126
		c-0.466,0-0.9-0.131-1.252-0.386c-0.52-0.38-0.814-0.983-0.826-1.698c-0.054-3.009,0.034-5.97,0.129-9.108
		c0.129-4.224,0.26-8.593,0.046-13.512l-0.003-1.217c-0.003-1.4-0.006-3.404,0.006-5.407l0.009-1.043
		c0.031-4.361,0.063-8.722,0.154-13.08c0.029-1.286,0.946-2.186,2.283-2.235c1.409,0,2.249,0.603,2.718,2.009
		c0.129,0.237,0.309,0.563,0.334,0.98c0.523,7.382,1.023,14.769,1.52,22.154C1050.377,774.213,1050.392,774.702,1050.271,775.185z
		 M1069.667,811.044l-0.2,0.309c-0.506,0.78-1.212,1.186-1.998,1.186c-0.377,0-0.772-0.091-1.172-0.283
		c-5.724-2.695-10.671-5.436-15.118-8.37c-0.329-0.217-0.646-0.503-0.966-0.872c-0.286-0.331-0.572-0.703-0.743-1.177
		c-0.234-0.666-0.269-1.249-0.097-1.72c0.254-0.72,0.775-1.315,1.395-1.592c0.497-0.226,1.046-0.237,1.537-0.034
		c5.364,2.201,10.291,5.098,16.038,8.771c0.217,0.137,0.934,0.652,1.115,1.446c0.109,0.483,0.137,0.983,0.157,1.486
		L1069.667,811.044z M697.593,814.828c0.063-1.215,0.792-2.072,2.006-2.352c0.552-0.129,1.492-0.243,2.246-0.291
		c19.324,0.149,38.646,0.306,57.973,0.489c2.138,0.02,4.229,0.174,6.173,0.334c10.637,0.889,21.353,1.006,31.422,1.049
		c94.996,0.417,181.11,1.097,263.263,2.081c3.992,0.049,8.036,0.274,11.951,0.494l2.315,0.129c0.92,0.049,1.906,0.466,2.509,1.057
		c0.609,0.592,0.789,1.438,0.972,2.295c0.26,1.186-1.3,1.735-1.483,1.792l-0.343,0.117c-0.56,0.194-1.195,0.411-1.886,0.411
		c-0.023,0-0.049,0-0.071,0l-2.526-0.06c-17.99-0.432-36.557-0.914-55.024-0.837c-50.692,0.094-102.195-0.734-152.012-1.555
		c-37.246-0.612-75.76-1.243-113.629-1.472c-14.24-0.086-28.484-0.171-42.721-0.269c-2.389-0.017-4.775-0.057-7.164-0.166
		c-0.66-0.034-1.263-0.254-1.798-0.449l-0.411-0.149C698.148,817.074,697.522,816.134,697.593,814.828z M333.472,807.732
		c0.5-0.6,1.183-1.423,2.126-1.435l4.91-0.057c6.061-0.08,12.331-0.16,18.504,0.06c1.729,0.063,3.458,0.146,5.187,0.231
		c6.236,0.303,12.689,0.612,19.001-0.123c0.997-0.12,1.989-0.089,2.935-0.049l0.277,0.009c9.222,0.323,18.604-0.109,27.684-0.526
		c2.255-0.103,4.512-0.206,6.77-0.3l2.332-0.106c2.243-0.103,4.558-0.206,6.867-0.183c5.09,0.077,10.182,0.131,15.272,0.189
		c14.323,0.151,29.135,0.312,43.701,1.006c4.044,0.194,8.039,0.12,12.109,0.02c6.199-0.151,12.8-0.243,19.447,0.58
		c5.05,0.623,10.222,0.58,15.058,0.434l0.569-0.017c4.821-0.137,9.817-0.277,14.721-0.22c16.444,0.211,28.984,0.434,40.658,0.726
		c12.314,0.306,24.826,0.02,36.931-0.252c8.862-0.2,17.976-0.374,27.06-0.383c0.246,0,0.494-0.011,0.969-0.034
		c5.716-0.24,11.074-0.209,16.361,0.103c3.304,0.194,6.696,0.166,9.965,0.146l3.178-0.017c0.734,0,1.486-0.114,2.283-0.234
		l0.829-0.186c0.189-0.08,0.374-0.16,0.572-0.211c0.172-0.046,0.546-0.343,0.843-0.866c0.274-0.486,0.32-0.869,0.286-0.995
		c-0.5-1.743-1.015-3.484-1.532-5.224c-1.103-3.718-2.246-7.565-3.192-11.405l-0.283-1.16c-0.849-3.467-1.729-7.05-2.961-10.451
		c-0.166-0.46-0.334-1.066-0.083-1.932c0.191-0.692,0.429-1.552,1.132-2.043c0.972-0.68,2.226-0.432,3.192,0.64
		c1.829,2.023,2.546,4.521,3.126,6.904c2.129,8.773,4.267,16.424,6.53,23.385c0.346,1.06,0.454,2.155,0.557,3.215l0.103,0.983
		c0.217,1.752-1.243,3.884-2.949,4.307l-0.866,0.229c-0.732,0.203-1.463,0.4-2.209,0.497c-6.33,0.814-12.554,0.923-18.504,0.314
		c-6.141-0.629-12.337-0.463-18.11-0.191l-1.263,0.057c-3.592,0.172-7.37,0.417-10.977,0.34l-1.457-0.003
		c-7.842-0.026-15.927-0.043-23.851,0.517c-1.652,0.12-3.281,0.149-4.838,0.149c-0.457,0-0.906-0.003-1.346-0.006
		c-12.537-0.103-25.074-0.209-37.612-0.36l-3.432-0.031c-4.227-0.029-8.596-0.06-12.889-0.392
		c-7.256-0.557-14.712-0.56-22.168-0.006c-4.098,0.303-7.822,0.232-11.38-0.211c-7.156-0.895-14.598-0.832-21.168-0.78
		c-5.095,0.043-11.137,0.063-17.307-0.074c-13.08-0.297-26.16-0.632-39.24-0.966l-15.521-0.392v0.194l-2.698-0.017
		c-1.137-0.014-2.278-0.031-3.409,0.031c-1.566,0.094-3.129,0.226-4.695,0.36c-2.455,0.206-4.993,0.42-7.51,0.48
		c-11.18,0.263-22.365,0.437-33.551,0.612l-6.084,0.094c-1.429,0.014-2.861-0.023-4.292-0.069l-27.309-0.603
		c-0.997-0.014-1.998-0.029-3.001-0.057c-0.437-0.014-0.872-0.069-1.309-0.123c-0.254-0.031-0.509-0.066-0.763-0.086h-0.003
		c-1.109-0.094-2.178-1.126-2.572-2.069C332.898,809.01,332.967,808.338,333.472,807.732z M96.921,697.081l0.123,2.972
		c0,1.726,0.003,3.449-0.011,5.173c-0.006,0.929-0.726,1.663-1.155,2.018c-0.314,0.263-1.083,0.817-1.923,0.817
		c-0.109,0-0.217-0.009-0.323-0.029c-0.183-0.031-0.377-0.049-0.569-0.066c-0.54-0.046-1.155-0.1-1.723-0.412
		c-6.119-3.278-12.72-5.393-19.516-7.447c-0.797-0.249-1.183-1.155-1.289-1.663c-0.123-0.632,0.223-1.575,0.909-1.918l0.512-0.269
		c0.734-0.391,1.569-0.834,2.486-1.003c7.896-1.478,7.896-1.478,11.223-3.741c0.812-0.549,1.806-1.226,3.135-2.078l0.414-0.266
		c0.437-0.28,0.877-0.563,1.326-0.826c1.972-1.16,3.341-0.909,4.144-0.486c1.246,0.646,2.023,2.132,2.192,4.181
		c0.117,1.44,0.089,2.889,0.06,4.29C96.929,696.581,96.924,696.83,96.921,697.081z M131.272,725.168
		c-0.123,0.923-0.743,1.769-1.66,2.266c-0.529,0.286-1.106,0.429-1.666,0.429c-0.466,0-0.923-0.097-1.337-0.297l-1.369-0.657
		c-1.96-0.937-3.989-1.903-5.913-3.024c-1.878-1.092-3.032-2.821-3.264-5.015c-0.106-0.995-0.209-1.995-0.211-2.989
		c-0.017-4.301-0.014-8.599-0.014-12.897l0.003-3.201h-0.091l0.006-2.938c0.006-1.403,0.011-2.804-0.014-4.207
		c-0.031-1.843-0.074-3.687-0.117-5.527c-0.054-2.201-0.106-4.401-0.137-6.599c-0.031-2.263,0.94-4.118,2.741-5.218
		c2.035-1.246,4.127-2.421,6.221-3.492c1.2-0.609,2.561-0.597,3.661,0.046c0.983,0.574,1.6,1.592,1.649,2.718l0.023,0.363
		c0.017,0.232,0.031,0.463,0.031,0.697c-0.026,11.025,0.543,20.876,1.738,30.113C132.312,711.639,132.22,717.995,131.272,725.168z
		 M154.983,712.388l-0.866,23.137c-0.06,1.289-0.732,2.443-1.803,3.092c-0.552,0.334-1.157,0.503-1.766,0.503
		c-0.489,0-0.977-0.109-1.44-0.326c-3.507-1.635-7.242-3.389-10.957-5.278c-2.175-1.103-3.429-3.121-3.624-5.839l-0.043-0.614
		c-0.109-1.497-0.223-3.046-0.109-4.59c0.603-8.293-0.017-16.724-0.62-24.88l-0.237-3.249c-0.074-1.046-0.169-2.092-0.263-3.138
		c-0.12-1.309-0.237-2.621-0.317-3.927c-0.049-0.737-0.003-1.483,0.046-2.226l0.051-0.912c0.029-0.686,0.383-1.44,0.969-2.075
		c0.634-0.683,1.366-1.015,2.072-1.029c0.203,0.011,0.406,0.006,0.609,0.006c0.472-0.017,1.012-0.011,1.555,0.103
		c4.364,0.929,8.379,0.632,12.289-0.912c0.723-0.283,1.315-0.32,1.978-0.054c0.68,0.272,1.529,0.609,1.986,1.36
		c1.212,2.009,1.377,4.278,1.375,6.436l0.009,3.704C155.9,698.213,155.926,704.972,154.983,712.388z M135.581,740.565l0.046-0.34
		c0.114-0.866,0.869-1.475,1.312-1.76c0.311-0.2,1.429-0.849,2.418-0.552c4.344,1.306,8.168,3.535,11.863,5.693
		c0.949,0.554,1.203,1.915,1.272,2.481c0.091,0.814-0.2,1.36-0.463,1.672c-0.403,0.486-1.015,0.772-1.766,0.823l-4.941,0.369
		l-1.137-0.117l-0.003-0.074l-0.769,0.003c-1.395,0.006-2.786,0.014-4.175-0.02c-2.312-0.063-3.898-1.846-3.955-4.435
		C135.253,743.035,135.421,741.78,135.581,740.565z M214.362,759.676c-4.878-0.009-9.785,0.051-14.681,0.111
		c-2.889,0.034-5.778,0.069-8.665,0.089l-0.326,0.003c-1.666,0.02-3.384,0.029-5.09-0.697c-0.843-0.357-1.337-0.832-1.512-1.446
		c-0.14-0.5-0.037-1.032,0.4-1.658c0.203-0.314,0.483-0.743,0.986-0.972c1.735-0.794,3.521-0.834,5.387-0.875
		c7.347-0.166,14.695-0.32,22.039-0.474l7.399-0.157l1.12,0.034v0.014l0.809-0.009c1.415-0.011,2.829-0.031,4.238,0.031l1.369,0.066
		c7.833,0.36,15.932,0.74,23.897,0.392c0.389,0.009,1.103,0.02,1.669,0.423l0.231,0.166c0.677,0.477,1.517,1.072,1.506,2.009
		c-0.011,0.972-1,2.183-1.989,2.443c-2.552,0.68-5.133,0.829-7.676,0.829c-1.006,0-2.003-0.023-2.992-0.046
		c-0.914-0.02-1.829-0.043-2.741-0.046c-3.952-0.014-7.905-0.063-11.857-0.114C223.379,759.736,218.869,759.681,214.362,759.676z
		 M190.105,903.217c0.134-0.269,0.64-1.149,1.523-1.206c2.352-0.16,4.707-0.28,7.067-0.383c2.221-0.094,4.447-0.154,6.673-0.217
		c4.761-0.131,9.682-0.266,14.466-0.752c8.971-0.917,17.876-0.957,26.383-0.129l4.653,0.114c4.518,0.111,9.034,0.22,13.546,0.374
		c1.203,0.04,2.369,0.283,3.498,0.517l0.626,0.129c1.006,0.194,1.275,1.443,1.306,1.595c0.066,0.363,0.217,1.583-0.654,2.06
		c-5.841,3.204-11.811,5.727-18.45,8.462c-3.747,1.546-7.968,2.689-12.903,3.501c-3.744,0.617-7.159,0.926-10.362,0.926
		c-3.232,0-6.247-0.314-9.156-0.946c-3.955-0.857-7.928-1.952-11.806-3.255c-6.379-2.143-11.357-4.555-15.669-7.593l-0.003-0.003
		C189.811,905.683,189.514,904.397,190.105,903.217z M70.292,805.589c0.972-1.043,2.12-1.523,3.249-1.375
		c1.052,0.146,1.949,0.849,2.532,1.983c0.566,1.112,1.175,1.589,2.166,1.706c0.969,0.111,1.943,0.197,2.915,0.197l2.486,0.003
		c4.25,0.009,8.505,0.014,12.754-0.049c8.813-0.131,17.621-0.3,26.429-0.534c1.352-0.037,2.689-0.223,4.107-0.423
		c0.614-0.086,1.226-0.171,1.678-0.203c0.303-0.151,1.069-1.003,1.163-1.206c0.037-0.472,0.091-0.94,0.149-1.412
		c0.103-0.866,0.2-1.683,0.166-2.481c-0.663-16.652-0.403-33.173-0.006-48.588c-0.469,0.069-0.897,0.154-1.226,0.32
		c-1.503,0.766-2.964,1.609-4.427,2.452c-0.843,0.486-1.686,0.972-2.538,1.446c-0.769,0.423-1.749,0.443-2.609,0.046
		c-0.769-0.352-1.295-0.963-1.446-1.675c-1.235-5.721-1.866-11.491-1.875-17.147v-0.003c-0.003-1.812,0.223-3.618,0.443-5.367
		l0.206-1.732c0.1-0.892,0.663-1.735,1.546-2.315c0.914-0.597,1.983-0.792,2.858-0.523c3.261,1.012,6.333,2.669,9.131,4.927
		c0.663,0.537,1.186,1.426,1.366,2.318c0.311,1.509,0.472,2.875,0.492,4.178c0.049,2.869,0.049,5.741,0.046,8.613l0.003,2.566
		l0.109,0.023c2.175,0.432,3.461,1.675,3.618,3.498c0.214,2.469,0.209,4.984,0.203,7.204c-0.011,3.409-0.037,6.819-0.063,10.231
		c-0.046,6.079-0.091,12.157-0.049,18.236c0.026,3.635,0.26,7.345,0.483,10.931l0.197,3.229c0.057,1.015,1.269,2.103,2.355,2.118
		c3.018,0.046,6.059,0.009,9.096-0.074c0.412-0.011,0.935-0.177,1.355-0.432c0.563-0.343,0.806-0.657,0.837-0.76
		c0.417-1.449,0.614-2.615,0.623-3.669c0.066-7.708,0.129-16.661,0.054-25.414c-0.057-7.222,0.674-14.475,1.386-21.488l0.094-0.949
		c0.037-0.34,0.151-0.623,0.337-1.1c0.251-1.003,0.797-1.452,1.212-1.649c0.383-0.183,1.006-0.326,1.826,0.043
		c0.943,0.432,1.926,1.003,2.078,1.96c0.234,1.455,0.271,2.955,0.106,4.338c-1.326,11.18-1.163,22.614-1.006,33.668
		c0.054,3.978,0.111,7.956,0.103,11.934c-0.003,2.155,1.037,3.115,3.478,3.212c1.672,0.066,3.355,0.049,5.024,0.029
		c29.387-0.369,53.647,0.006,76.338,1.2c1.806,0.094,3.618,0.123,5.43,0.151c1.232,0.02,2.463,0.04,3.698,0.08
		c1.049,0.037,2.095,0.157,3.135,0.312c1.363,0.206,2.135,1.175,2.009,2.523c-0.137,1.555-1.037,2.209-1.843,2.509
		c-0.669,0.251-1.423,0.537-2.243,0.537l-2.463,0.017c-2.555,0.034-5.204,0.057-7.805-0.194c-7.01-0.68-14.175-0.783-21.102-0.883
		c-2.423-0.034-4.847-0.071-7.27-0.129c-19.133-0.457-38.583-0.203-57.402,0.043c-6.281,0.086-12.563,0.169-18.847,0.226
		l-0.512,0.003c-2.481,0.02-5.05,0.043-7.542,0.249c-12.223,1.003-24.651,1.032-36.674,1.06c-2.712,0.009-5.424,0.014-8.136,0.031
		c-0.171,0-0.34,0.003-0.509,0.003c-2.986,0-5.939-0.171-8.713-0.346c-0.912-0.057-1.758-0.329-2.575-0.592l-0.609-0.189
		c-1.477-0.446-2.538-1.492-2.912-2.875C68.543,808.641,69.043,806.929,70.292,805.589z M63.939,743.543l0.011-0.623
		c0.16-7.87,0.42-20.736,0.692-33.599c0.011-0.48,0.077-0.957,0.146-1.435l0.089-0.677c0.186-1.723,2.361-3.298,3.947-3.329
		c4.915-0.117,9.256,0.772,13.329,2.643c2.483,1.143,4.973,2.278,7.465,3.412l5.458,2.489c1.263,0.58,2.132,1.783,2.326,3.218
		c0.289,2.1,0.426,4.238,0.563,6.304l0.054,0.852c0.106,1.575,0.194,3.149,0.286,4.724c0.123,2.141,0.243,4.281,0.406,6.419
		c0.372,4.904,0.76,9.805,1.149,14.706l0.914,11.643c0.054,0.714,0.049,1.435,0.04,2.155l-0.006,0.966
		c0.023,2.743-0.583,4.79-1.909,6.436c-1.4,1.735-1.978,3.807-1.926,6.919c0.051,2.946,0.011,5.896-0.029,8.845l-0.031,2.366
		c-0.023,1.978-0.874,3.795-2.463,5.258c-1.792,1.655-3.715,3.175-5.533,4.592c-0.632,0.492-1.389,0.717-2.209,0.96
		c-0.291,0.086-0.577,0.131-0.849,0.131c-0.392,0-0.754-0.091-1.08-0.266c-0.512-0.277-0.874-0.743-1.049-1.34
		c-0.197-0.672-0.369-1.346-0.54-2.023c-0.157-0.629-0.314-1.257-0.497-1.878c-0.317-1.095-1.56-1.995-2.769-2.012
		c-1.612-0.026-3.078,0.343-4.204,1.103c-1.497,1.006-2.929,2.103-4.364,3.201c-0.7,0.534-1.397,1.069-2.103,1.592
		c-0.703,0.526-1.703,0.649-2.595,0.312c-0.832-0.309-1.429-0.952-1.6-1.72c-1.026-4.61-1.115-9.314-1.117-13.36V743.543z"/>
	<path fill="#6E9FBA" d="M504.595,568.377c-0.28-1.838,0.011-3.604,0.86-5.25l0.266-0.514c1.623-3.144,3.249-6.29,4.818-9.465
		c3.638-7.362,8.585-14.398,15.566-22.139c8.153-9.039,18.161-16.418,29.747-21.934c4.701-2.241,9.351-4.73,13.849-7.139
		c2.598-1.392,5.198-2.784,7.819-4.135c2.583-1.332,4.867-3.035,6.782-5.061c1.48-1.563,2.972-3.118,4.464-4.67
		c2.738-2.849,5.476-5.698,8.139-8.616l1.337-1.463c5.161-5.661,10.497-11.514,16.341-16.615
		c11.754-10.26,21.339-18.421,30.164-25.686c10.062-8.279,17.561-18.499,22.92-31.244c1.149-2.726,2.12-5.55,2.838-7.702
		c4.078-12.197,10.722-23.417,17.147-34.262c0.352-0.589,0.76-1.143,1.169-1.695l0.532-0.726c1.789-2.512,3.827-4.484,6.23-6.024
		c4.355-2.792,8.233-5.398,11.857-7.965c7.865-5.57,16.715-9.694,25.277-13.683c3.224-1.503,6.45-3.006,9.636-4.587
		c0.12-0.06,0.257-0.094,0.392-0.134c0.16-0.046,0.317-0.091,0.472-0.151l5.901-2.281c4.673-1.803,9.348-3.607,14.003-5.447
		c6.096-2.415,11.76-4.101,17.31-5.158c2.266-0.432,4.63-0.697,6.913-0.954l2.066-0.237c0.652-0.077,1.183-0.057,1.577,0.057
		c0.36,0.109,0.769,0.377,1.009,0.672c0.094,0.114-0.16,0.414-0.189,0.449l-5.175,5.979c-3.809,4.41-7.622,8.819-11.477,13.192
		c-8.342,9.462-15.035,18.213-20.465,26.758c-2.901,4.57-5.861,9.099-8.825,13.632c-2.043,3.126-4.087,6.253-6.11,9.391
		c-1.875,2.909-3.672,5.898-5.336,8.696c-1.829,3.084-3.641,6.179-5.45,9.276l-6.016,10.265c-3.038,5.175-6.076,10.351-9.128,15.521
		c-3.101,5.255-6.467,10.822-10.497,16.032c-8.499,10.997-16.958,22.022-25.417,33.048c-1.935,2.526-3.784,4.938-5.461,7.422
		c-3.424,5.07-6.779,9.571-10.257,13.763c-6.613,7.968-12.42,16.492-17.264,25.334c-3.867,7.059-8.056,14.112-12.106,20.931
		c-1.415,2.383-2.829,4.767-4.235,7.153c-0.517,0.88-1.18,1.689-1.88,2.549l-0.443,0.543l-2.912-2.469
		c-4.029-3.715-8.199-7.553-12.78-10.822c-1.386-0.989-2.801-1.998-4.284-2.884c-0.712-0.423-1.695-0.632-2.603-0.54
		c-0.44,0.037-1.935,0.243-2.572,1.263c-0.523,0.834-0.274,2.455,0.486,3.155c2.066,1.886,4.21,3.647,6.227,5.287
		c8.216,6.679,13.949,13.703,17.521,21.482c4.853,10.568,8.531,20.473,11.245,30.284c2.238,8.093,3.575,16.338,4.861,24.78
		c2.178,14.303,3.255,27.161,3.301,39.303c0.029,7.782,0.026,15.561,0.023,23.343l0.003,15.298c0.003,3.058,0.054,6.113,0.111,9.168
		c0.057,3.069,0.657,6.196,1.786,9.299c0.643,1.758,3.146,3.421,5.093,3.398c0.594-0.026,1.189-0.074,1.78-0.126
		c0.426-0.034,0.849-0.071,1.275-0.097c8.119-0.469,16.284-1.595,24.177-2.686l4.175-0.572c7.453-1.015,15.109-1.606,20.722-1.606
		c0.297,0,0.592,0.003,0.877,0.006l4.047,0.023c7.267,0.034,13.006,0.06,18.656,0.929c2.283,0.349,4.575,0.629,6.87,0.909
		c1.746,0.211,3.492,0.426,5.235,0.669c2.189,0.309,5.07,0.74,7.93,1.34c0.949,0.2,1.709,0.929,1.978,1.9
		c1.98,7.136,3.547,13.054,4.933,18.63c0.417,1.677,0.569,3.498,0.714,5.258l0.049,0.609c0.051,0.614-0.02,1.277-0.094,1.978
		l-0.086,0.874c-0.06,0.737-0.897,1.749-1.692,2.038c-2.1,0.763-4.292,0.932-6.616,1.112c-1.015,0.08-1.949,0.137-2.884,0.197
		c-2.435,0.151-4.95,0.312-7.41,0.717c-8.688,1.438-15.689,2.732-22.028,4.075c-11.437,2.429-23.037,4.375-33.936,6.159
		c-2.098,0.343-4.204,0.62-6.31,0.897c-2.889,0.38-5.876,0.774-8.793,1.34c-3.775,0.734-7.773,1.209-12.969,1.54
		c-2.446,0.154-4.89,0.337-7.333,0.517c-2.626,0.194-5.253,0.392-7.882,0.554c-4.395,0.271-8.828,0.483-13.169,0.629
		c-1.838,0.06-3.435-0.011-4.87-0.229c-5.15-0.774-8.662-3.006-10.737-6.819c-2.775-5.104-5.444-10.251-7.925-15.301l-1.72-3.461
		c-2.401-4.818-4.881-9.799-6.867-14.849c-1.7-4.33-3.069-8.899-4.392-13.32c-0.594-1.986-1.189-3.972-1.815-5.947l-0.294-0.954
		c-0.394-1.323-0.8-2.646-1.206-3.969c-0.869-2.829-1.766-5.756-2.523-8.653c-0.6-2.295-1.192-4.595-1.78-6.893
		c-1.903-7.43-3.872-15.112-6.193-22.579l-1.349-4.332c-1.366-4.372-2.729-8.745-4.05-13.132
		c-1.466-4.858-2.978-10.631-3.084-16.632c-0.046-2.623-0.383-5.253-0.712-7.793l-0.303-2.429c-0.097-0.852-0.486-1.626-0.852-2.272
		c-0.352-0.623-1.094-0.874-1.652-0.974c-0.506-0.083-1.466,0.037-1.878,0.752l-0.163,0.271c-0.343,0.563-0.772,1.263-0.769,2.072
		c0.003,1.818,0.043,3.638,0.083,5.458c0.049,2.232,0.1,4.467,0.08,6.702c-0.009,1.115-0.892,1.778-1.632,2.138
		c-2.435,1.18-4.558,1.035-6.496-0.46c-5.933-4.578-9.902-8.999-12.489-13.912c-0.509-0.96-1.063-1.895-1.618-2.826
		c-0.654-1.1-1.309-2.198-1.875-3.341c-2.506-5.061-5.844-9.728-10.202-14.269c-1.966-2.046-3.864-4.244-5.698-6.367l-1.026-1.186
		c-3.741-4.318-6.933-9.251-9.757-15.075C506.486,577.088,505.298,573.064,504.595,568.377z"/>
	<path fill="#6E9FBA" d="M429.406,661.376c2.566-6.164,4.672-12.986,6.627-21.465c1.415-6.133,1.872-12.494,1.4-19.45
		c-0.546-8.108-3.795-15.349-9.659-21.522c-3.681-3.878-7.47-6.742-11.586-8.756c-1.438-0.703-2.806-1.472-3.99-2.161
		c0.22-0.097,0.452-0.2,0.683-0.3c0.883-0.389,1.718-0.754,2.523-0.849c2.106-0.246,4.212-0.523,6.316-0.803
		c6.793-0.897,13.835-1.829,20.785-1.563c1.406,0.057,2.815,0.009,4.224-0.043c0.972-0.034,1.983-0.091,2.921-0.063
		c5.407,0.02,10.82,0.063,16.229,0.14c1.052,0.017,1.84,0.509,2.283,1.42c3.206,6.624,6.359,13.829,7.719,21.614
		c2.718,15.609,5.49,30.856,9.471,45.799c0.103,0.372,0.171,0.612,0.206,0.854l0.86,6.676l0.003,2.272
		c0.017,1.64-0.929,3.001-2.532,3.624l-0.663,0.26c-1.935,0.757-3.935,1.54-5.927,2.146c-6.061,1.832-11.508,5.224-16.655,10.368
		c-0.549,0.552-1.083,1.115-1.618,1.678c-0.852,0.9-1.7,1.8-2.618,2.632l-0.677,0.623c-1.472,1.346-2.989,2.741-4.638,3.769
		c-6.084,3.795-13.463,7.233-22.051,3.995c-0.437-0.166-0.889-0.292-1.343-0.414c-0.5-0.137-1.003-0.271-1.469-0.489
		c-1.289-0.6-2.043-1.266-2.381-2.098l-0.111-0.277c-0.949-2.352-1.929-4.781-2.658-7.216c-0.723-2.421-0.406-4.672,0.972-6.884
		C424.796,670.484,427.423,666.134,429.406,661.376z"/>
	<path fill="#2C3B84" d="M789.894,719.466c4.207-2.309,7.356-4.738,9.914-7.642c2.146-2.441,5.13-3.961,9.116-4.647
		c1.103-0.191,2.378-0.137,3.572,0.151c3.509,0.834,6.516,2.609,8.931,5.276l1.392,1.523c2.229,2.441,4.532,4.961,6.484,7.63
		c3.281,4.498,7.77,7.853,14.123,10.56c1.155,0.492,2.332,0.923,3.509,1.352c1.055,0.383,2.106,0.769,3.141,1.197
		c4.995,2.083,9.979,4.187,14.932,6.37c2.235,0.986,3.767,2.392,4.552,4.187c1.863,4.232,4.844,7.556,9.114,10.159
		c0.737,0.446,1.452,1.052,2.072,1.746c0.563,0.637,1.029,1.463,1.477,2.261c0.171,0.303,0.126,0.737-0.071,1.095
		c-0.157,0.286-0.363,0.44-0.486,0.446l-1.086,0.057c-1.615,0.086-3.284,0.189-4.884,0.126c-1.5-0.046-2.998-0.089-4.487-0.089
		c-2.672,0-5.321,0.143-7.936,0.694c-5.524,1.169-11.123,1.149-16.072,1.16h-1.032c-8.51-0.203-26.472-1.88-31.967-3.178
		c-7.164-1.695-15.043-3.124-24.086-4.364c-1.998-0.277-3.992-0.58-5.987-0.883c-6.639-1.009-13.509-1.926-20.419-2.015
		c-0.449-0.123-0.643-0.174-0.837-0.2c-0.329-0.06-1.057-0.697-1.146-1.003c-0.569-6.516-2.058-13.523-4.675-22.014
		c-0.22-0.72-0.329-1.472-0.443-2.226l-0.094-0.617c-0.063-0.392-0.094-0.789-0.129-1.186l-0.071-0.78
		c-0.02-0.183,0.1-0.52,0.414-0.834c0.294-0.294,0.692-0.477,0.926-0.446c1.123,0.126,2.246,0.266,3.369,0.409
		c2.546,0.323,5.178,0.657,7.796,0.792C776.023,724.879,783.104,723.193,789.894,719.466z"/>
	<path fill="#2C3B84" d="M475.356,584.158c0.366-0.131,0.76-0.292,1.152-0.454c0.852-0.349,1.655-0.677,2.449-0.809
		c4.738-0.78,9.314-2.666,14.398-5.933c1.263-0.814,2.681-1.5,4.052-2.163l1.035-0.506c0.083,0.017,0.154,0.031,0.214,0.046
		c0.123,0.086,0.254,0.171,0.386,0.257c0.177,0.114,0.443,0.286,0.509,0.372c3.361,10.494,9.319,20.162,18.181,29.481
		c0.834,0.88,1.638,1.792,2.441,2.706c0.763,0.866,1.526,1.732,2.315,2.575c2.16,2.306,4.035,4.93,5.73,8.022
		c0.706,1.286,1.426,2.563,2.146,3.841c0.774,1.377,1.549,2.755,2.306,4.141c2.729,5.001,5.827,9.031,9.471,12.317
		c0.694,0.626,1.277,1.417,1.895,2.258l0.514,0.694l-0.637,0.612c-0.594,0.411-1.157,0.8-1.723,1
		c-4.344,1.54-9.396,3.318-14.386,4.915c-7.25,2.321-13.352,5.144-18.647,8.636c-3.881,2.558-8.259,4.753-13.386,6.707
		c-0.94,0.36-1.8,0.363-2.366,0.009c-0.409-0.254-0.64-0.694-0.692-1.303c-0.486-5.724-1.883-11.326-3.158-16.124
		c-3.181-11.986-5.301-24.603-7.173-35.737c-0.792-4.707-1.98-9.259-3.629-13.912c-0.369-1.037-0.783-2.06-1.195-3.084
		c-0.349-0.866-0.7-1.732-1.023-2.606c-0.366-0.995-0.692-2.003-1.02-3.009l-0.583-1.775
		C474.839,585.07,475.116,584.312,475.356,584.158z"/>
	<path fill="#2C3B84" d="M803.935,259.561c0.692-1.057,1.346-2.055,2.1-2.978c3.821-4.667,8.188-10.325,11.617-16.901
		c1.063-2.043,2.572-3.995,4.741-6.139c1.02-1.006,2.026-2.029,3.032-3.049c1.603-1.629,3.204-3.258,4.864-4.824l0.226-0.209
		c2.332-2.203,4.747-4.478,7.325-6.387c9.494-7.027,18.213-10.114,27.441-9.911c0.829,0.091,1.666,0.157,2.501,0.223
		c1.875,0.146,3.647,0.283,5.347,0.712c4.235,1.069,5.95,3.678,5.093,7.756c-0.129,0.626-0.317,1.24-0.509,1.852
		c-1.235,3.909-3.089,7.682-5.67,11.528c-4.012,5.987-8.931,11.714-15.035,17.515c-7.47,7.096-14.295,14.821-20.282,22.96
		c-0.792,1.072-1.598,2.135-2.449,3.158c-0.703,0.846-1.635,1.343-2.769,1.483c-0.797,0.097-1.6,0.18-2.401,0.266
		c-1.575,0.166-3.146,0.334-4.704,0.589c-3.289,0.543-6.333-0.354-9.562-2.818c-1.526-1.166-2.709-2.189-3.727-3.221
		c-2.603-2.641-5.133-5.355-7.659-8.073c-0.577-0.626-0.623-1.88-0.252-2.432L803.935,259.561z"/>
	<path fill="#2C3B84" d="M425.831,699.688c-0.023-0.154,0.074-0.452,0.346-0.763c0.337-0.383,0.82-0.569,1.003-0.583
		c2.546,0.057,5.155,0.646,8.462,1.909c0.646,0.246,1.346,0.829,1.746,1.443c1.266,1.943,2.149,3.572,2.781,5.124
		c2.763,6.79,4.83,13.697,7.076,21.985c0.995,3.667,1.492,7.61,1.48,11.717c-0.006,1.958-0.352,3.932-0.726,5.776
		c-0.28,1.375-1.152,2.329-2.455,2.681c-1.189,0.323-2.969,0.769-4.744,0.909c-1.355,0.109-2.709,0.08-4.135,0.06
		c-0.614-0.011-1.229-0.023-1.84-0.023l-1.097,0.04l-5.967,0.014c-0.083,0-0.377-0.123-0.7-0.477
		c-0.389-0.429-0.566-0.912-0.543-1.169C428.234,728.826,428.023,713.825,425.831,699.688z"/>
	<path fill="#2C3B84" d="M804.329,277.21c0.692,0.68,1.383,1.36,2.063,2.052c1.037,1.057,1.055,1.429,1.055,1.446
		c-0.054,0.08-0.383,0.366-1.866,0.926c-0.732,0.274-1.266,0.477-1.815,0.629c-7.805,2.146-15.612,4.29-23.422,6.396
		c-0.357,0.094-0.875,0.049-1.383-0.009c0.026-0.214,0.06-0.509,0.111-0.597c4.407-5.093,8.839-10.217,13.323-15.138
		c1.769-1.943,3.189-3.429,3.99-3.429c0.003,0,0.006,0,0.011,0c0.772,0.011,2.08,1.457,3.587,3.206
		C801.351,274.284,802.866,275.773,804.329,277.21z"/>
	<path fill="#6E9FBA" d="M357.212,611.256c-2.904,8.453-2.858,17.138,0.134,26.549c0.892,2.804,1.535,5.761,2.158,8.625
		c-0.009,0.006-0.034,0.034-0.071,0.077c-1.457-1.303-2.403-2.924-3.398-4.635c-0.286-0.492-0.572-0.98-0.866-1.463
		c-2.846-4.647-4.15-9.797-4.358-17.218c0.189-4.335,1.455-9.385,3.475-13.86c0.151-0.237,1.117-0.703,2.081-0.703
		c0.117,0,0.237,0.006,0.352,0.023c0.257,0.037,0.777,0.572,0.814,0.843c-0.046,0.183-0.083,0.449-0.117,0.717
		C357.366,610.564,357.324,610.921,357.212,611.256z"/>
</g>
</svg>
