<?xml version="1.0" encoding="utf-8"?>
<!-- Designed by Vexels.com - 2020 All Rights Reserved - https://vexels.com/terms-and-conditions/  -->
<svg version="1.1" id="Layer_1" xmlns="http://www.w3.org/2000/svg" xmlns:xlink="http://www.w3.org/1999/xlink" x="0px" y="0px"
	 viewBox="0 0 1200 1200" enable-background="new 0 0 1200 1200" xml:space="preserve">
<g>
	<path fill="#2C3B84" d="M64.623,962.225c3.41,1.919,6.633,3.731,9.056,5.857c1.221,1.068,2.393,2.194,3.562,3.32
		c1.419,1.364,2.884,2.774,4.408,4.036c1.649,1.37,3.42,2.265,5.3,3.212c0.695,0.352,1.399,0.71,2.117,1.095
		c5.392,2.913,4.727,9.797,4.19,15.329c-0.115,1.213-0.227,2.354-0.257,3.351c-0.145,4.739-0.332,9.47-0.523,14.197
		c-0.418,10.491-0.853,21.34-0.747,32.038c0.023,2.499,0.076,5.002,0.128,7.501c0.115,5.505,0.237,11.198,0.043,16.798
		c-0.138,4.005-0.662,8.013-1.172,11.889c-0.471,3.598-0.958,7.316-1.122,10.982c-0.112,2.469-0.25,5.536,1.606,7.273
		c1.471,1.382,3.934,1.564,6.317,1.74c0.945,0.068,1.87,0.139,2.726,0.271c9.391,1.469,16.396,2.073,23.437,1.965
		c6.899-0.089,11.702-0.528,15.438-5.554c4.645-6.239,7.61-13.135,9.678-18.446c2.867-7.359,5.346-14.968,7.745-22.327
		c2.248-6.896,4.572-14.03,7.215-20.97c0.691-1.808,1.363-3.629,2.034-5.455c1.843-5.011,3.753-10.192,6.073-15.11
		c1.277-2.703,2.716-5.752,6.537-6.56c2.057-0.429,4.302-0.302,6.471-0.179c1.152,0.062,2.291,0.142,3.328,0.102
		c3.595-0.093,6.488-0.17,8.736-2.203c2.074-1.879,3.397-4.588,4.678-7.433l0.698-1.549c2.798-6.217,5.688-12.645,8.312-18.995
		c0.553-1.336,0.388-1.814,0.293-1.959c-0.359-0.537-2.156-0.673-3.739-0.79l-1.02-0.083c-3.098-0.265-6.277-0.367-9.355-0.466
		l-2.288-0.077c-8.45-0.305-16.9-0.611-25.349-0.957c-19.164-0.784-35.165-1.043-50.324-0.808
		c-4.473,0.071-8.944,0.182-13.414,0.349c-0.945,0.034-2.064,0.167-3.246,0.305c-2.847,0.336-6.073,0.716-8.433-0.006
		c-2.39-0.731-2.745-2.043-2.745-2.758c0-1.675,1.88-3.123,3.736-3.69c3.051-0.926,6.202-1.015,9.246-1.102l1.883-0.062
		c16.208-0.651,32.348-0.657,49.339-0.034c15.056,0.555,30.116,0.984,45.175,1.413l5.313,0.151c2.893,0.083,5.79,0.185,8.687,0.284
		c13.206,0.46,26.851,0.929,40.189-0.349c11.916-1.145,24.257-1.015,36.202-0.889c4.727,0.049,9.427,0.111,14.105,0.074
		c0.082,0,0.168,0,0.253,0c4.092,0,6.899,0.5,10.273,1.82c2.528,0.987,5.29,1.197,8.219,1.419l1.81,0.145
		c6.728,0.589,13.664,0.472,20.376,0.352l4.793-0.074c108.314-1.262,218.715-0.463,325.475,0.312
		c40.83,0.296,81.644,0.592,122.419,0.778c7.989,0.031,16.139-0.145,24.02-0.321c8.894-0.201,18.078-0.404,27.17-0.299
		c10.698,0.126,21.551,0.521,32.045,0.904c5.925,0.216,11.85,0.432,17.782,0.602c3.002,0.086,6.007,0.117,9.009,0.148l3.634,0.031
		c1.741-0.037,3.736-0.012,5.494,0.694c3.571,1.429,4.661,5.002,5.622,8.155c0.369,1.206,0.714,2.345,1.169,3.274
		c2.647,5.406,8.73,7.211,12.12,7.807c5.458,0.953,11.57,0.7,17.486,0.463c2.489-0.102,4.947-0.201,7.318-0.213
		c0.994-0.015,2.126,0.031,3.282,0.071c5.543,0.185,11.827,0.401,14.632-3.666c1.774-2.576,3.121-7.06,3.4-9.908
		c0.188-1.929-0.53-2.647-2.956-2.956c-5.24-0.676-10.8-0.528-16.176-0.376c-2.495,0.068-5.013,0.13-7.419,0.123
		c-8.002-0.037-16.133-0.256-23.997-0.469l-0.75-0.018c-0.316-0.009-0.741,0-1.238,0.009c-3.285,0.059-9.388,0.182-9.711-3.61
		c-0.076-0.883,0.211-1.666,0.833-2.271c1.501-1.469,4.52-1.472,7.219-1.382l0.662,0.022l9.111,0.142
		c5.366,0.086,10.734,0.17,16.1,0.228c9.339,0.099,18.674,0.139,28.009,0.179c7.416,0.031,14.829,0.062,22.242,0.123
		c4.342,0.037,8.68,0.049,13.019,0.059c11.834,0.031,24.069,0.065,36.113,0.639c15.135,0.719,31.462,1.172,48.309-0.367
		c1.014-0.093,2.156-0.127,3.344-0.16c2.663-0.074,5.682-0.16,7.676-1.037c1.58-0.691,2.324-2.305,3.111-4.011
		c0.263-0.571,0.527-1.139,0.816-1.672c3.14-5.782,7.192-11.127,11.109-16.292l0.853-1.123c5.102-6.736,9.477-12.682,13.374-18.177
		c0.402-0.565,0.843-1.166,1.3-1.793c3.242-4.425,7.683-10.485,5.981-15.425c-0.783-2.28-3.216-3.805-5.57-5.276
		c-0.593-0.37-1.172-0.734-1.718-1.105c-1.666-1.126-3.295-2.302-4.921-3.477c-1.201-0.867-2.403-1.737-3.621-2.586
		c-5.629-3.913-12.031-6.884-18.226-9.76l-1.149-0.534c-4.088-1.901-8.19-3.777-12.288-5.653
		c-10.422-4.764-21.195-9.692-31.577-14.984c-9.069-4.616-18.101-9.593-26.831-14.404c-5.171-2.851-10.343-5.699-15.55-8.495
		l-0.655-0.358c-1.346-0.744-3.203-1.765-4.283-1.472c-0.24,0.059-0.596,0.213-0.961,0.83c-0.994,1.691-1.024,4.888-1.05,7.455
		c-0.01,1.077-0.02,2.089-0.089,2.934c-0.602,7.452-0.971,15.218-1.122,23.75c-0.115,6.591-0.26,13.182-0.405,19.772l-0.069,3.067
		c-0.089,4.03-0.991,6.433-2.676,7.137c-1.146,0.481-2.426,0.167-3.792-0.938c-2.429-1.956-2.054-6.051-1.784-9.044
		c0.056-0.596,0.105-1.139,0.122-1.592c0.151-4.024,0.191-8.05,0.234-12.077c0.039-3.78,0.076-7.563,0.204-11.346
		c0.132-3.903,0.497-7.837,0.849-11.639c0.349-3.755,0.711-7.637,0.839-11.457c0.198-5.696,0.543-11.497,0.879-17.11
		c0.563-9.408,1.142-19.137,1.03-28.645c-0.049-4.372-4.961-7.523-9.296-10.301c-1.481-0.949-2.877-1.847-4.085-2.777
		c-1.076-0.832-2.133-1.776-3.196-2.729c-1.804-1.617-3.67-3.289-5.665-4.357c-2.617-1.409-5.24-1.009-8.641,0.083l-0.556,0.179
		c-2.837,0.904-6.37,2.029-6.942,4.591c-0.454,2.026-0.323,4.453-0.194,6.799c0.056,1.038,0.109,2.053,0.115,3.008
		c0.01,1.967,0.118,4.036,0.23,6.146c0.306,5.721,0.622,11.633-0.895,16.878c-0.619,2.138-1.695,3.462-3.121,3.829
		c-0.82,0.216-2.143,0.185-3.687-1.21c-2.781-2.521-2.656-6.983-2.574-9.936c0.138-5.067,0.155-9.959,0.174-14.853
		c0.01-2.945,0.02-5.89,0.056-8.836c0.053-4.57,0.174-8.323,0.385-11.812c0.056-0.964,0.211-2.023,0.369-3.115
		c0.352-2.411,0.718-4.903,0.069-6.793c-0.642-1.89-3.101-3.224-5.267-4.402c-0.662-0.359-1.297-0.705-1.863-1.052
		c-0.853-0.521-1.699-1.068-2.548-1.614c-1.886-1.219-3.838-2.478-5.859-3.434c-4.306-2.036-8.045-1.066-12.864,0.529
		c-6.626,2.197-7.341,6.777-7.67,13.515c-0.267,5.403-0.395,10.818-0.523,16.227l-0.184,6.747c-0.122,2.638-0.237,5.13,1.847,6.625
		c1.429,1.026,3.41,1.731,5.329,2.414c1.017,0.361,2.011,0.716,2.916,1.109c5.856,2.544,13.875,6.025,19.648,11.082
		c4.786,4.193,8.226,10.5,9.688,17.758c0.583,2.817,0.997,6.06-0.658,7.637c-0.514,0.487-1.438,1.031-2.976,0.768
		c-2.884-0.475-3.786-4.57-4.385-7.282c-0.099-0.451-0.184-0.836-0.263-1.114c-1.866-6.566-4.664-10.886-9.072-14.009
		c-3.025-2.141-6.56-3.879-9.98-5.557c-0.566-0.281-1.152-0.605-1.827-0.978c-1.847-1.028-5.675-3.197-7.064-2.873
		c-0.296,0.062-0.382,0.133-0.382,0.133c-0.076,0.401,0.54,1.672,4.075,5.147c0.428,0.423,0.777,0.765,0.974,0.987l7.4,8.337
		c8.898,10.074,18.842,20.593,31.219,29.264c3.473,2.435,7.1,4.798,10.606,7.088c2.841,1.851,5.678,3.703,8.473,5.607
		c4.859,3.314,12.989,8.859,13.058,16.335c0.023,2.712-1.224,5.607-2.327,8.158c-0.342,0.793-0.675,1.561-0.955,2.293
		c-0.198,0.521-0.385,1.052-0.576,1.583c-0.925,2.614-1.883,5.313-4.296,7.291c-1.152,0.944-10.721,5.813-14.24,3.758
		c-0.672-0.392-1.708-1.367-1.099-3.505c0.668-2.336,3.433-3.212,5.658-3.916c0.767-0.241,1.491-0.463,2.028-0.734
		c2.057-1.049,3.427-2.567,4.309-4.783c0.253-0.629,0.55-1.314,0.859-2.03c1.08-2.49,2.426-5.585,2.347-7.856
		c-0.092-2.678-2.564-5.165-4.707-7.032c-4.161-3.622-9.154-6.736-13.986-9.75c-1.722-1.074-3.437-2.144-5.099-3.228
		c-6.646-4.329-12.456-8.683-17.765-13.314c-9.408-8.214-17.703-17.687-25.721-26.848c-2.12-2.422-4.24-4.841-6.376-7.236
		c-8.048-9.022-14.312-19.387-20.369-29.41c-1.932-3.2-3.865-6.396-5.853-9.55c-6.063-9.627-11.62-19.685-16.998-29.41
		c-2.186-3.959-4.375-7.918-6.6-11.861c-6.504-11.517-15.497-22.472-26.729-32.564c-2.525-2.268-5.168-4.514-8.088-6.867
		c-0.326-0.264-0.708-0.602-1.132-0.977c-1.517-1.347-4.046-3.607-5.622-3.314c-1.28,0.233-1.863,3.024-2.209,4.692
		c-0.135,0.65-0.26,1.24-0.402,1.699c-1.037,3.399-2.159,6.392-3.433,9.15c-2.791,6.039-6.471,11.429-10.932,16.027
		c-1.82,1.873-3.825,3.581-5.764,5.232c-0.941,0.801-1.88,1.603-2.801,2.424l-0.54,0.475c-2.199,1.936-2.656,2.339-1.248,4.198
		c9.625,12.716,19.589,23.461,29.619,31.94c10.458,8.84,20.639,18.163,30.484,27.179l4.562,4.176
		c2.449,2.24,4.921,4.437,7.387,6.628c8.68,7.723,17.657,15.706,25.066,25.092c5.26,6.665,8.792,12.142,11.455,17.761
		c2.785,5.878,8.094,11.108,12.854,15.548c6.778,6.326,14.411,12.16,21.791,17.804c4.885,3.734,9.934,7.597,14.698,11.568
		c0.451,0.376,1.099,0.833,1.824,1.352c3.018,2.148,6.774,4.82,6.508,7.674c-0.158,1.679-1.027,2.394-1.728,2.7
		c-1.797,0.79-4.184-0.361-5.866-1.463c-4.615-3.036-8.875-6.649-12.992-10.145c-2.126-1.805-4.246-3.604-6.412-5.326
		c-2.212-1.756-4.45-3.49-6.689-5.224c-9.569-7.405-19.467-15.067-27.071-24.685c-2.271-2.87-3.96-6.06-5.596-9.146
		c-1.363-2.57-2.772-5.23-4.49-7.637c-4.306-6.032-8.634-11.327-13.233-16.187c-6.004-6.341-12.805-12.256-19.382-17.977
		c-4.543-3.953-9.243-8.039-13.654-12.244c-5.247-5-10.853-9.834-16.274-14.508c-6.142-5.296-12.492-10.772-18.374-16.536
		c-4.118-4.034-7.887-8.379-11.534-12.581c-5.583-6.43-11.353-13.08-18.345-18.547c-2.999-2.344-6.169-4.615-9.418-6.747
		c-0.296-0.194-0.645-0.441-1.03-0.716c-1.508-1.071-4.299-3.052-5.688-2.529c-1.09,0.424-1.991,3.843-2.423,5.486
		c-0.23,0.87-0.438,1.64-0.639,2.172c-1.435,3.73-2.834,6.733-4.408,9.448c-3.437,5.949-7.745,10.576-12.795,13.748
		c-1.294,0.811-2.735,1.45-4.128,2.066c-1.787,0.791-3.473,1.538-4.809,2.596c-0.273,0.216-0.734,0.633-0.727,0.986
		c0.01,0.677,1.399,1.722,2.416,2.484c0.359,0.27,0.714,0.535,1.04,0.801c4.078,3.3,8.67,6.222,13.111,9.047
		c1.935,1.231,3.868,2.462,5.764,3.724c6.445,4.292,13.147,8.271,19.921,11.824c12.11,6.356,25.432,12.284,43.197,19.22
		c6.587,2.57,13.219,5.313,19.635,7.964l3.097,1.281c0.527,0.216,1.304,0.472,2.199,0.768c4.549,1.506,8.384,2.947,9.22,5.31
		c0.451,1.287,0.079,2.148-0.313,2.641c-1.218,1.524-4.072,1.447-6.142,1.392c-0.425-0.012-0.79-0.022-1.076-0.012
		c-12.324,0.444-24.8-0.074-36.857-0.568c-4.167-0.17-8.335-0.342-12.508-0.475c-6.922-0.222-13.97-0.265-20.784-0.309
		c-9.635-0.059-19.599-0.12-29.418-0.688c-12.163-0.7-24.622-0.413-36.666-0.145c-3.937,0.089-7.87,0.179-11.801,0.238
		c-10.879,0.157-21.778,0.197-32.68,0.241c-22.749,0.083-46.275,0.173-69.304,1.379l-1.955,0.105
		c-7.531,0.401-15.32,0.815-23.016,0.111c-7.09-0.654-11.508,0.756-14.289,4.57c-1.6,2.191-2.038,4.764-2.505,7.489
		c-0.244,1.407-0.481,2.629-0.718,3.851c-0.448,2.277-0.905,4.635-1.155,6.943c-0.727,6.77,0.882,13.567,2.436,20.143l0.421,1.784
		c0.5,2.151,1.03,4.292,1.557,6.437c1.271,5.153,2.584,10.485,3.492,15.826c0.826,4.866,1.327,9.834,1.814,14.635
		c0.28,2.789,0.563,5.579,0.905,8.362c0.125,0.994,0.181,2.144,0.237,3.351c0.128,2.697,0.27,5.758,1.304,7.637
		c0.862,1.564,3.091,1.799,5.244,2.024l0.866,0.096c6.755,0.808,13.792,0.96,20.596,1.108l3.881,0.086
		c22.782,0.577,46.041,0.157,68.53-0.247c10.968-0.197,21.929-0.392,32.874-0.481c18.368-0.151,34.57-0.145,49.524,0.025
		c8.147,0.089,16.449-0.12,24.471-0.327c6.689-0.17,13.605-0.349,20.425-0.349c6.853-0.111,13.703-0.33,20.55-0.552
		c8.282-0.265,16.847-0.54,25.29-0.608c8.795-0.077,17.604-0.028,26.406,0.018c7.09,0.034,14.161,0.077,21.274,0.049
		c5.935-0.022,11.87-0.136,17.805-0.25c9.924-0.191,20.172-0.38,30.29-0.123c15.135,0.395,30.521,0.426,45.399,0.457l2.729,0.006
		c2.189-0.028,4.444-0.046,6.708-0.102c6.083-0.133,12.37-0.287,18.269,0.633c2.018,0.315,4.993,1.654,5.296,3.644
		c0.135,0.886-0.181,2.16-2.459,3.184c-2.495,1.123-6.044,0.805-9.184,0.525c-0.997-0.089-1.932-0.173-2.729-0.194
		c-7.327-0.191-14.813-0.049-22.061,0.083c-9.161,0.17-18.641,0.346-27.94-0.142c-17.877-0.929-33.882-1.123-48.961-0.599
		c-13.694,0.481-27.611,0.346-41.064,0.213l-9.2-0.083c-9.678-0.083-19.457,0.336-28.941,0.731
		c-7.229,0.302-14.704,0.614-22.087,0.713c-19.556,0.262-34.672,0.38-48.816,0.38c-1.942-0.003-3.822,0-5.708,0
		c-36.604,0-66.618,0.16-94.123,0.506c-5.754,0.071-11.514,0.268-17.275,0.466c-10.665,0.364-21.689,0.734-32.516,0.287
		c-5.063-0.216-10.119-0.543-15.172-0.873c-3.134-0.204-6.267-0.407-9.404-0.583c-0.55-0.031-1.096-0.049-1.643-0.071
		c-3.236-0.123-6.583-0.247-9.457-2.512c-1.629-1.287-4.533-3.798-5.658-6.159c-1.093-2.286-1.363-4.937-1.626-7.501
		c-0.122-1.2-0.24-2.382-0.448-3.484c-0.583-3.086-1.323-6.39-2.265-10.099c-1.962-7.739-3.713-14.728-5.286-21.935
		c-0.731-3.351-1.557-7.251-2.084-11.139c-0.125-0.938-0.221-1.91-0.316-2.894c-0.267-2.774-0.543-5.644-1.616-8.047
		c-0.918-2.049-2.969-2.317-6.238-2.515c-0.484-0.031-0.964-0.062-1.438-0.102c-2.377-0.201-4.757-0.299-7.136-0.395
		c-1.699-0.068-3.394-0.136-5.092-0.244c-3.308-0.207-6.607-0.497-9.901-0.787c-4.789-0.42-9.743-0.855-14.638-1.009
		c-6.56-0.204-13.246-0.222-19.707-0.241l-4.994-0.015c-17.377-0.074-34.405-0.376-50.607-0.901l-8.792-0.296
		c-13.582-0.463-27.644-0.941-41.453-0.867c-8.888,0.046-17.025,0.228-24.879,0.555c-5.553,0.231-11.017-0.062-16.297-0.352
		c-2.465-0.133-4.944-0.268-7.456-0.352c-1.225-0.04-2.528,0.028-3.848,0.099c-2.765,0.142-5.619,0.293-8.236-0.463
		c-2.995-0.873-5.217-3.132-7.176-5.125l-0.441-0.447c-5.385-5.449-9.164-11.917-12.818-18.174
		c-4.868-8.337-8.947-17.181-12.894-25.729c-2.406-5.218-4.898-10.614-7.535-15.826c-0.793-1.568-1.606-3.126-2.419-4.685
		c-2.594-4.966-5.277-10.102-7.219-15.473c-1.982-5.489-2.949-11.136-3.884-16.597c-0.24-1.401-0.481-2.805-0.737-4.215
		c-2.37-12.97-7.433-25.45-12.327-37.519l-3.045-7.608c-1.08-2.803-2.199-5.704-3.802-7.984c-0.507-0.719-1.027-1.115-1.547-1.179
		c-1.198-0.185-3.012,1.347-4.315,2.442c-1.244,1.04-2.465,2.257-3.759,3.545c-3.667,3.647-7.818,7.782-13.466,8.458
		c-4.691,0.56-8.091-1.486-11.37-3.465c-2.205-1.333-4.292-2.593-6.758-3.098c-4.049-0.828-8.493-0.273-12.782,0.262
		c-2.706,0.338-5.5,0.688-8.216,0.699c-3.088,0.003-8.809-0.853-10.675-4.198c-0.698-1.253-1.086-3.34,1.034-6.171
		c1.29-1.723,5.448-6.219,9.141-6.321c1.912-0.014,2.89,0.707,3.298,1.355c0.935,1.487,0.056,3.504-0.849,4.934
		c-0.165,0.265-0.346,0.52-0.52,0.765c-0.25,0.35-0.625,0.879-0.629,1.068c0.007,0,0.112,0.162,0.596,0.418
		c0.629,0.339,2.028,0.211,3.042,0.12c0.444-0.04,0.862-0.077,1.221-0.088c1.998-0.057,3.99-0.157,5.984-0.258
		c1.596-0.079,3.19-0.159,4.789-0.218c2.89-0.111,6.662-0.054,10.31,1.347c1.695,0.651,3.068,1.614,4.398,2.544
		c1.004,0.702,1.949,1.364,3.002,1.882c5.112,2.526,9.711-2.112,13.766-6.196c0.935-0.94,1.824-1.831,2.666-2.584
		c4.263-3.805,8.838-7.339,13.262-10.758c1.508-1.162,3.012-2.325,4.51-3.502c12.36-9.701,22.914-21.616,32.229-32.129l2.887-3.254
		c9.269-10.44,18.852-21.235,26.702-32.696c2.258-3.294,4.332-6.785,6.337-10.162c1.81-3.05,3.683-6.204,5.698-9.227
		c2.219-3.325,4.457-6.639,6.699-9.951c2.13-3.153,4.263-6.307,6.376-9.47c9.125-13.665,17.463-25.934,27.137-37.711
		c1.936-2.359,4.154-4.616,6.3-6.799c2.877-2.924,5.849-5.946,8.107-9.192c1.547-2.215,0.622-3.693-1.287-6.329
		c-0.293-0.404-0.589-0.816-0.879-1.24c-2.034-2.978-4.052-5.966-6.047-8.968c-4.315-6.498-8.526-13.049-12.512-19.47
		c-2.166-3.494-4.306-7.006-6.406-10.534c-0.336-0.563-0.701-1.304-1.099-2.115c-0.994-2.024-2.35-4.795-3.815-5.446
		c-1.6-0.717-3.246,1.205-5.096,3.589c-0.408,0.523-0.783,1.006-1.122,1.389l-0.698,0.778c-1.988,2.229-4.046,4.534-5.948,6.868
		c-4.223,5.185-7.482,10.928-9.688,17.071c-2.456,6.838-3.473,14.072-4.148,20.246c-0.151,1.387-0.267,2.759-0.379,4.116
		c-0.458,5.543-0.892,10.778-3.687,16.056c-6.498,12.264-15.089,23.72-23.397,34.799l-2.298,3.064
		c-2.874,3.845-6.264,7.205-9.539,10.454c-1.88,1.864-3.762,3.732-5.57,5.704c-4.342,4.743-8.404,10.263-12.071,16.411
		c-7.206,12.079-15.369,24.85-24.958,39.045l-3.19,4.75c-3.302,4.937-6.718,10.041-10.293,14.937
		c-3.802,5.205-7.548,8.779-14.467,10.508c-4.526,1.131-9.467,1.254-14.247,1.373c-7.222,0.18-14.042,0.35-19.698,3.639
		c-11.87,6.904-22.288,16.585-33.71,27.601c-1.699,1.64-6.87,6.629-6.146,9.707c0.25,1.054,1.218,1.868,2.956,2.49
		c0.25,0.091,0.52,0.17,0.787,0.248c1.106,0.326,2.36,0.696,2.92,1.8c0.342,0.679,0.323,1.475-0.056,2.367
		c-0.461,1.08-1.84,2.058-3.463,3.133c-0.303,0.202-0.573,0.38-0.764,0.521c-1.603,1.185-3.272,2.285-4.944,3.385
		c-1.126,0.741-2.252,1.481-3.354,2.249c-3.443,2.398-9.76,8.004-9.553,10.173c0.01,0.119,0.03,0.301,0.451,0.497
		c0.3,0.139,1.29-0.167,4.194-2.456c0.583-0.46,1.086-0.852,1.445-1.074c3.167-1.953,6.751-3.172,10.369-3.525
		c7.344-0.717,15,1.881,19.54,6.612c0.573,0.6,1.122,1.409,1.705,2.263c1.083,1.589,2.433,3.567,3.739,3.689
		c1.471,0.147,4.243-1.834,5.935-3.004c0.718-0.497,1.369-0.946,1.896-1.259c14.003-8.339,27.473-17.248,39.942-25.635
		c1.498-1.006,2.976-2.036,4.454-3.067c2.011-1.401,4.022-2.802,6.077-4.141c1.527-0.998,4.704-3.079,7.68,0.184
		c2.028,2.226,3.022,5.596,3.901,8.567c0.194,0.662,0.382,1.296,0.569,1.881l3.41,10.459c4.921,15.252,8.881,30.557,12.709,45.357
		c0.546,2.112,1.057,4.23,1.564,6.347c1.195,4.974,2.429,10.118,4.151,15.03c1.945,5.548,4.552,10.983,7.074,16.238l1.883,3.95
		c0.546,1.154,1.162,2.333,1.787,3.527c2.604,4.974,5.553,10.614,4.161,16.409c-0.198,0.815-0.375,1.78-0.566,2.808
		c-0.583,3.129-1.244,6.677-2.772,8.88c-1.88,2.715-5.066,2.607-7.617,2.533c-9.474-0.299-17.594-0.688-25.014-1.197
		c-5.017-0.346-6.021-2.24-6.373-6.356l-0.128-1.743c-0.171-2.459-0.346-5.002-1.264-7.174c-1.093-2.589-3.542-3.49-7.41-4.172
		l-0.313-0.056c-2.416-0.426-7.446-1.327-9.533-0.5c-0.537,0.213-0.622,0.454-0.655,0.543c-0.346,0.987,0.994,3.11,1.794,4.378
		c0.332,0.521,0.629,0.997,0.833,1.385c1.797,3.434,3.588,6.872,5.349,10.321c4.697,9.198,9.075,18.699,13.308,27.888
		c2.09,4.536,4.18,9.072,6.317,13.589c3.074,6.508,6.504,11.855,10.487,16.351c2.956,3.336,6.471,6.31,9.872,9.186
		c2.008,1.7,4.016,3.397,5.935,5.181c2.699,2.505,5.435,5.202,8.127,8.019c0.408,0.426,0.902,0.892,1.425,1.385
		c1.929,1.824,4.325,4.091,4.839,6.535c0.461,2.206-0.619,3.163-1.304,3.539c-1.646,0.904-4.003,0.173-5.481-1.012
		c-1.88-1.506-3.535-3.283-5.138-5.005c-0.78-0.839-1.557-1.679-2.357-2.475c-3.038-3.039-6.323-5.958-9.497-8.782
		c-7.232-6.43-14.704-13.08-19.849-21.596c-5.026-8.316-8.99-17.356-12.828-26.101c-2.149-4.906-4.378-9.982-6.751-14.832
		l-1.922-3.953c-5.905-12.207-12.011-24.827-22.091-33.852c-2.235-2.003-4.523-3.959-6.814-5.918c-3.753-3.206-7.63-6.52-11.218-10
		c-4.546-4.409-6.593-9.609-8.763-15.113l-1.027-2.576c-3.183-7.82-5.642-14.448-7.294-21.369
		c-0.724-3.041-1.432-7.044-0.441-11.046c0.78-3.15,0.925-4.706-0.823-7.43c-2.791-4.351-9.246-6.995-14.944-6.142
		c-5.678,0.838-12.423,5.321-13.015,10.415c-0.882,7.563,0.224,15.937,1.304,21.63c1.58,8.347,3.736,14.723,6.985,20.673
		c3.117,5.716,6.824,12.322,11.333,18.376c3.697,4.965,8.479,8.488,13.542,12.219l2.156,1.592
		c10.53,7.856,21.396,16.924,29.553,30.001l0.319,0.497c1.593,2.487,4.911,7.658,1.623,10.031c-1.057,0.765-2.047,0.759-2.693,0.633
		c-2.13-0.444-3.486-2.897-4.296-4.363c-3.229-5.798-7.11-11.13-11.663-16.064c-2.396-2.598-4.974-5.039-7.66-7.248
		c-0.398-0.327-0.823-0.694-1.267-1.08c-1.672-1.441-3.753-3.237-5.586-3.786c-0.29-0.086-0.573-0.13-0.856-0.13
		c-1.797,0-3.486,1.666-5.441,3.801c-0.487,0.534-0.951,1.04-1.392,1.466c-2.749,2.657-5.497,5.316-8.236,7.979
		c-3.588,3.49-7.146,6.998-10.705,10.506c-7.798,7.689-15.866,15.641-24.102,23.241l-10.122,9.352
		c-8.321,7.692-16.643,15.388-25.024,23.022c-2.508,2.286-5.161,4.462-7.729,6.566c-3.091,2.536-6.29,5.156-9.204,7.952
		c-0.8,0.765-1.695,1.577-2.633,2.428c-4.128,3.74-9.266,8.393-10.135,13.08C48.585,953.203,56.739,957.791,64.623,962.225z
		 M948.392,897.116c-0.78,1.142-2.311,1.5-3.845,1.716c-1.777,0.25-3.634,0.339-5.523,0.339c-2.459,0-4.971-0.151-7.436-0.302
		c-1.909-0.114-3.785-0.228-5.573-0.265c-5.375-0.111-10.8-0.46-16.047-0.799l-0.658-0.043c-12.025-0.774-23.753-0.599-36.749-0.302
		c-4.691,0.102-9.447,0.04-14.046-0.019c-6.87-0.089-13.973-0.188-20.925,0.284c-2.294,0.154-12.9,0.009-25.188-0.157
		c-15.218-0.207-37.697-0.515-42.368-0.099v0.275l-1.284-0.019c-17.604-0.244-35.211-0.435-52.819-0.626l-29.635-0.33
		c-14.059-0.167-28.365-0.111-42.196-0.056c-12.538,0.052-25.504,0.093-38.269-0.015c-2.136-0.019-4.24,0.012-6.356,0.043
		l-3.203,0.04c-0.293,0.003-0.652,0.025-1.05,0.049c-2.14,0.123-5.342,0.315-6.735-1.558c-1.014-1.355-0.806-2.41-0.454-3.058
		c1.231-2.256,6.116-2.629,10.734-2.697l0.589-0.012c6.33-0.25,12.746-0.117,18.954,0.006c5.135,0.111,10.441,0.216,15.655,0.105
		c24.721-0.534,49.698-0.262,73.01,0.111c43.839,0.7,91.23,0.827,144.875,0.389l1.866-0.015c22.571-0.179,45.919-0.37,68.912,0.651
		l5.721,0.244c4.144,0.17,8.295,0.343,12.436,0.586l0.777,0.031c2.34,0.083,6.258,0.219,7.104,2.975
		C948.964,895.561,948.872,896.413,948.392,897.116z M1022.801,876.143c0.161-1.429,0.981-2.095,1.643-2.404
		c2.584-1.191,7.285,1.089,11.979,3.749l0.859,0.481c4.984,2.644,10.171,5.258,15.418,7.766c1.448,0.691,2.903,1.37,4.361,2.049
		c3.496,1.626,7.11,3.308,10.56,5.184l1.277,0.682c4.131,2.191,9.79,5.19,10.218,10.047l0.02,0.244l-0.082,0.231
		c-0.425,1.188-1.28,1.657-1.922,1.845c-0.313,0.089-0.642,0.13-0.987,0.13c-2.541,0-5.955-2.265-9.27-4.631
		c-0.622-0.444-1.109-0.796-1.386-0.95c-3.433-1.944-7.081-3.706-10.609-5.409l-3.203-1.555c-5.296-2.589-10.54-5.267-15.78-7.952
		c-0.556-0.284-1.409-0.642-2.406-1.061C1028.802,882.62,1022.379,879.92,1022.801,876.143z M1024.374,908.792
		c-0.415-0.611-0.783-1.614-0.184-2.938c1.234-2.737,4.997-2.098,7.015-1.756c0.303,0.052,0.573,0.099,0.803,0.13
		c2.831,0.367,5.836,0.617,9.464,0.784c3.117,0.142,6.238,0.188,9.362,0.234c3.223,0.046,6.448,0.096,9.668,0.244
		c4.078,0.191,8.186,0.596,12.156,0.984c2.321,0.228,4.645,0.457,6.975,0.645c0.276,0.025,0.718,0.043,1.274,0.068
		c7.271,0.327,12.393,1.043,13.769,3.474c0.365,0.648,0.619,1.7-0.257,3.042c-1.034,1.583-3.255,2.077-5.813,2.077
		c-2.413,0-5.129-0.438-7.429-0.808c-1.027-0.167-1.909-0.309-2.528-0.364l-19.217-1.694l-6.031-0.194
		c-4.579-0.142-9.154-0.287-13.73-0.494l-0.816-0.028C1032.719,912.016,1026.201,911.467,1024.374,908.792z M262.649,873.511
		c-5.793-0.235-11.402-0.639-16.129-1.003c-3.015-0.234-6.781-0.938-7.604-2.953c-0.283-0.691-0.342-1.787,0.974-3.095
		c2.242-2.225,7.522-1.577,11.755-1.058c1.136,0.139,2.126,0.265,2.828,0.287c4.697,0.16,9.796,0.235,16.05,0.235
		c6.781,0,13.565-0.012,20.346-0.025c14.73-0.025,29.461-0.049,44.191,0.034c4.315,0.025,8.628,0.034,12.943,0.046
		c16.86,0.037,34.296,0.077,51.417,1.095c15.688,0.929,31.666,0.79,47.121,0.66c5.685-0.049,11.241-0.114,17.064-0.096
		c15.343,0.003,30.906,0.633,45.952,1.24c5.533,0.222,11.067,0.444,16.6,0.639c0.477,0.015,1.333,0.009,2.466,0.006
		c10.629-0.08,20.827,0.293,23.407,3.28c0.609,0.703,0.826,1.537,0.622,2.407c-0.507,2.182-2.893,2.78-5.639,2.783
		c-1.965,0-4.115-0.309-5.886-0.565c-0.823-0.117-1.501-0.216-1.929-0.241c-4.394-0.219-8.881-0.275-13.219-0.327l-2.156-0.028
		c-9.269-0.123-18.667-0.555-27.752-0.975c-11.584-0.531-23.575-1.092-35.337-0.997c-19.056,0.142-39.392,0.241-60.044-0.231
		l-3.578-0.12c-20.721-0.691-42.16-1.407-63.221-1.234c-5.214,0.043-10.422-0.028-15.632-0.102
		c-6.113-0.083-12.433-0.17-18.648-0.062c-3.437,0.062-6.873,0.157-10.313,0.256C280.572,873.613,271.54,873.866,262.649,873.511z
		 M278.646,919.141c-0.543-1.018-1.014-2.95,1.926-4.437c2.62-1.324,6.58-1.151,10.063-1c1.136,0.046,2.186,0.089,3.094,0.077
		c7.643-0.157,15.415-0.13,22.933-0.099l7.127,0.022c20.455,0.031,40.906,0.068,61.364,0.157
		c13.252,0.059,26.712,0.305,39.728,0.546c6.715,0.123,13.433,0.25,20.152,0.349c14.391,0.213,29.063-0.136,43.243-0.463
		c5.115-0.12,10.227-0.241,15.339-0.336c9.971-0.188,19.938-0.352,29.905-0.417c4.951-0.031,9.898-0.049,14.849-0.062
		c0.527-0.003,1.29-0.059,2.182-0.12c5.26-0.376,10.119-0.506,11.847,1.922c0.879,1.244,0.543,2.231,0.26,2.712
		c-1.35,2.314-7.117,3.144-19.908,2.959c-0.592-0.009-1.034-0.006-1.257-0.015l-29.645,0.339c-9.181,0.111-18.529,0.389-27.571,0.66
		c-11.748,0.352-23.72,0.71-35.728,0.71c-9.497,0-19.016-0.225-28.47-0.852c-26.709-0.728-53.889-0.633-80.16-0.537
		c-17.551,0.065-35.692,0.13-53.546-0.052l-0.767,0.006C283.271,921.249,279.792,921.307,278.646,919.141z M199.695,893.762
		c0.263-0.38,0.573-0.901,0.922-1.49c1.718-2.897,4.138-6.813,7.433-6.609c1.675,0.127,2.433,0.901,2.775,1.53
		c1.057,1.956-0.537,4.869-2.416,7.726l-0.214,0.324c-1.741,2.694-3.585,5.338-5.425,7.979l-2.449,3.533
		c-2.255,3.265-4.513,6.532-6.83,9.757c-0.411,0.574-0.82,1.197-1.238,1.836c-1.748,2.669-3.726,5.699-7.008,6.717l-0.227,0.068
		l-0.237-0.009c-1.636-0.08-2.386-0.824-2.729-1.435c-1.083-1.944,0.609-4.974,2.403-7.68l0.204-0.309
		c1.886-2.922,3.871-5.786,5.853-8.649l1.824-2.638C194.784,900.856,197.233,897.307,199.695,893.762z M105.585,903.778
		c0.806-3.339,7.508-3.19,16.175-2.644c1.353,0.083,2.837,0.176,3.733,0.182v-0.222h1.264c0.576,0,1.567-0.065,2.811-0.142
		c9.039-0.552,17.923-0.774,18.615,3.261c0.135,0.787-0.099,1.534-0.681,2.157c-1.705,1.833-6.653,2.681-15.856,2.681
		c-1.231,0-2.538-0.015-3.927-0.046l-0.83-0.015l-1.284,0.003c-8.387,0.077-17.15-0.235-19.451-2.922
		C105.578,905.401,105.381,904.608,105.585,903.778z M92.075,918.49c0.155-1.16,0.3-2.234,0.352-3.141
		c0.023-0.438,0.013-0.987,0.007-1.589c-0.036-2.178-0.079-4.888,1.205-6.393c1.004-1.176,2.021-1.432,2.712-1.432
		c0.02,0,0.036,0,0.053,0c0.704,0.012,1.761,0.299,2.775,1.589c2.084,2.644,1.465,6.146,0.866,9.531
		c-0.467,2.663-0.912,5.178-0.039,6.98c1.159,2.41,6.685,1.901,10.333,1.561c1.004-0.093,1.909-0.173,2.633-0.197
		c12.736-0.398,25.452,0.284,36.364,0.957c0.81,0.049,1.764,0.142,2.808,0.244c4.072,0.389,9.668,0.938,12.341-0.614
		c2.278-1.314,2.179-5.017,2.1-7.992c-0.016-0.596-0.03-1.16-0.026-1.675c0.04-5.026,0.332-8.976,3.762-14.086
		c3.397-5.067,6.093-8.871,8.74-12.33c2.893-3.786,6.396-8.192,10.454-12.142l0.346-0.339c1.29-1.287,3.255-3.221,5.784-2.678
		c1.267,0.275,2.094,0.849,2.456,1.7c0.645,1.509-0.504,3.144-1.261,4.224c-1.876,2.663-4.075,5.171-6.198,7.597
		c-1.61,1.836-3.272,3.737-4.76,5.665c-3.183,4.129-6.146,8.232-8.805,12.194c-2.689,4.005-2.722,8.041-2.762,12.716
		c-0.007,0.932-0.013,1.879-0.043,2.848l-0.026,1.182c-0.076,4.144-0.171,9.3-6.373,10.633c-2.699,0.58-5.53,0.753-8.387,0.753
		c-2.1,0-4.213-0.093-6.297-0.185c-1.251-0.052-2.482-0.108-3.683-0.139c-6.432-0.167-12.176-0.528-17.551-1.105h-1.521
		c-6.034-0.015-12.255-0.009-18.384,0.324c-0.961,0.052-2.12,0.191-3.377,0.336c-4.997,0.583-11.212,1.314-14.546-1.617
		C90.696,928.864,91.46,923.112,92.075,918.49z"/>
	<path fill="#6E9FBA" d="M665.745,627.627c-1.317-1.216-2.811-2.592-3.404-4.312c-0.523-1.507-0.276-2.956,0.652-3.877
		c0.494-0.488,1.603-1.239,3.585-0.747c1.82,0.451,3.591,2.283,5.155,3.899c0.546,0.563,1.047,1.085,1.478,1.459
		c1.804,1.558,3.571,3.14,5.333,4.733l0.53,0.48c2.913,2.634,5.925,5.355,9.118,7.745l1.56,1.168
		c7.054,5.273,13.72,10.255,19.971,16.287c15.145,14.623,29.372,28.358,45.807,40.94c2.041,1.564,4.072,3.143,6.103,4.721
		c5.556,4.318,11.3,8.783,17.183,12.855c3.242,2.246,6.537,4.425,9.829,6.605l2.716,1.799c0.698,0.463,1.547,1.134,2.482,1.876
		c2.255,1.791,5.619,4.448,7.643,4.271c2.689-0.305,5.961-3.552,8.351-5.921c0.622-0.614,1.195-1.182,1.705-1.652
		c3.387-3.107,6.103-6.346,8.305-9.9c3.575-5.769,7.828-14.502,7.933-23.528c-1.682-2.347-4.026-3.999-6.504-5.744
		c-0.955-0.673-1.916-1.352-2.857-2.08c-3.328-2.57-6.475-5.408-9.523-8.151l-0.599-0.54c-14.793-13.32-26.209-29.278-36.344-44.537
		c-9.707-14.621-21.195-29.501-36.159-46.832c-31.508-36.492-59.076-60.03-89.39-76.32c-6.109-3.283-12.624-6.091-18.924-8.808
		c-2.732-1.179-5.464-2.357-8.18-3.578c-2.67-1.2-5.326-2.43-7.959-3.701c-0.379-0.184-0.793-0.407-1.234-0.645
		c-1.162-0.629-2.614-1.412-3.647-1.473c-0.043-0.002-0.089-0.003-0.132-0.003c-2.047,0-2.62,2.951-3.071,6.245
		c-0.079,0.566-0.148,1.085-0.23,1.515c-3.832,20.419-11.468,37.566-22.69,50.963c-7.018,8.382-12.989,14.282-19.362,19.129
		c-7.136,5.431-15.142,10.127-22.881,14.669l-1.336,0.785c-4.506,2.647-9.036,4.96-13.46,6.875
		c-0.892,0.386-2.074,0.776-3.361,1.199c-2.887,0.947-6.84,2.245-7.992,4c-1.162,1.773,2.709,5.886,4.572,7.862
		c0.5,0.532,0.935,0.995,1.241,1.358l8.983,10.57c11.31,13.359,24.132,28.499,39.036,41.663
		c13.223,11.679,28.812,21.852,49.053,32.019c7.202,3.616,14.796,6.953,22.137,10.181c10.826,4.756,22.018,9.676,32.295,15.629
		c5.823,3.371,12.034,6.364,18.039,9.257c2.92,1.407,5.84,2.813,8.73,4.266c7.334,3.689,13.601,8.143,20.234,12.859l3.239,2.294
		c4.144,2.919,7.851,6.173,11.238,9.254c0.428,0.387,0.889,0.838,1.383,1.318c2.031,1.982,4.812,4.696,7.285,4.733
		c3.818,0.006,10.145-3.552,12.551-4.911c2.956-1.669,5.642-4.082,8.213-7.376c2.597-3.326,4.737-7.103,6.356-11.229l0.23-0.591
		c1.313-3.322,2.946-7.456,2.61-10.713c-0.313-3.01-3.782-5.42-6.84-7.546c-0.81-0.563-1.583-1.102-2.261-1.623
		c-4.036-3.099-8.065-6.207-12.067-9.345c-14.454-11.332-28.434-23.557-41.956-35.379l-4.431-3.874
		c-7.673-6.7-15.557-13.745-23.427-20.937l-3.588-3.251c-2.801-2.527-5.606-5.057-8.312-7.666L665.745,627.627z"/>
	<path fill="#6E9FBA" d="M372.108,474.75c0.303,0.458,0.56,0.85,0.714,1.131c5.402,9.761,12.601,18.875,19.566,27.687l1.264,1.605
		c2.969,3.771,6.037,7.669,9.846,10.53c4.437,3.326,9.842,5.486,15.069,7.575c4.075,1.628,8.318,3.092,12.423,4.508
		c6.867,2.371,13.967,4.821,20.59,8.138c7.637,3.825,18.513,10.059,26.976,18.037c7.439,7.012,14.721,14.777,23.608,25.174
		l0.655,0.799c1.287,1.595,2.238,2.647,3.621,2.647c0.023,0,0.049,0,0.076-0.002c1.185-0.032,2.66-0.71,4.085-1.365
		c0.737-0.339,1.452-0.667,2.11-0.904c5.672-2.044,10.629-4.226,15.162-6.668c23.819-12.839,39.329-25.408,50.284-40.754
		c5.82-8.154,10.198-17.275,13.387-27.883c1.817-6.042,3.117-11.494,3.973-16.67c0.095-0.583,0.221-1.205,0.349-1.847
		c0.379-1.87,0.81-3.988,0.527-5.62c-0.313-1.816-1.662-2.618-3.841-3.777l-4.743-2.587c-8.516-4.636-17.318-9.43-24.912-15.909
		c-7.11-6.063-13.417-13.117-19.517-19.938c-1.521-1.703-3.038-3.4-4.566-5.08c-4.207-4.625-8.068-8.982-11.811-13.322
		c-0.355-0.415-0.711-0.855-1.073-1.302c-1.106-1.37-2.248-2.786-3.644-3.606c-1.471-0.855-2.943-0.756-4.816-0.626
		c-0.711,0.049-1.415,0.069-2.169,0.096c-8.068,0-18.266-2.513-26.011-6.412c-5.51-2.777-10.155-6.534-14.648-10.167
		c-2.857-2.308-5.81-4.696-8.934-6.785c-0.332-0.221-0.583-0.358-0.767-0.444c0.02,0.312,0.105,0.804,0.339,1.506
		c0.454,1.358,1.004,2.691,1.554,4.024c0.517,1.262,1.037,2.526,1.481,3.809c1.577,4.554,2.762,9.417,3.733,15.303l0.013,0.131
		c0.566,12.768-5.988,22.653-13.15,31.434c-6.942,8.509-15.553,18.217-26.791,25.7c-12.62,8.408-24.747,11.25-37.071,8.68
		c-6.929-1.446-12.877-4.425-18.272-7.429c-0.372-0.205-0.879-0.535-1.462-0.918c-2.554-1.675-4.217-2.521-4.951-2.521
		c-0.105,0-0.191,0.017-0.257,0.051C369.992,471.171,370.647,472.528,372.108,474.75z"/>
	<path fill="#2C3B84" d="M458.706,397.659c-4.897-11.363-11.089-21.494-18.406-30.112c-0.277-0.322-0.586-0.722-0.922-1.159
		c-1.162-1.51-2.923-3.794-4.405-3.877c-1.004-0.037-3.048,1.339-4.434,2.37c-0.685,0.509-1.32,0.98-1.866,1.307
		c-6.719,4.019-12.9,4.755-18.925,2.243c-5.707-2.379-11.832-5.403-14.252-9.766c4.743-1.996,7.93-6.94,7.433-11.809
		c-0.173-1.688-0.732-3.317-1.1-4.978c-0.647-2.927-0.698-5.954-1.443-8.86c-2.496-9.737-13.647-16.774-24.211-15.277
		c-0.808,0.114-1.676,0.264-2.41-0.075c-0.562-0.259-0.942-0.763-1.296-1.247c-6.224-8.476-13.09-17.544-23.505-20.793
		c-3.386-1.056-6.97-1.424-10.416-2.287c-3.419-0.857-6.694-2.2-10.157-2.884c-15.171-3-31.461,6.515-43.004,14.763
		c0,0-1.794,1.282-1.794,1.282c-4.506,3.21-9.167,6.531-13.173,10.303c-4.766,4.488-7.265,8.505-8.098,13.029
		c-0.77,4.198-0.102,8.792,0.54,13.237c0.253,1.726,0.5,3.434,0.662,5.097c1.152,11.691,5.164,20.312,13.41,28.829
		c4.787,4.941,6.145,9.204,7.094,15.82l0.191,1.45c0.621,4.946,1.403,8.794,5.234,9.593c1.452,0.304,3.002,0.238,4.635,0.164
		c1.692-0.071,3.453-0.151,5.194,0.198c2.538,0.506,4.269,2.023,5.945,3.488l0.974,0.842c3.016,2.518,6.36,4.693,9.593,6.798
		c1.806,1.176,3.617,2.354,5.394,3.601c7.607,5.332,13.322,1.188,19.941-3.609c3.012-2.183,6.123-4.439,9.507-5.747
		c2.36-0.914,4.69-1.369,6.896-1.369c2.44,0,4.72,0.555,6.721,1.663c3.997,2.211,6.551,6.381,7.2,11.742
		c0.662,5.489-0.715,11.269-4.089,17.177c-0.592,1.037-1.254,2.061-1.919,3.089c-1.013,1.569-2.06,3.192-2.81,4.829
		c-1.119,2.436-0.369,4.206,1.518,6.812c6.418,8.885,17.173,16.284,28.762,19.794c10.869,3.292,21.972,1.405,33.039-5.59
		c7.341-4.641,13.934-10.386,20.755-18.083c5.394-6.086,10.523-12.088,14.003-18.58
		C466.765,419.775,463.094,407.842,458.706,397.659z"/>
	<path fill="#2C3B84" d="M510.716,376.279c3.364-12.415,12.084-23.725,19.777-33.702l1.587-2.063
		c8.733-11.364,17.709-23.048,27.305-34.031c20.715-23.713,37.624-46.403,51.693-69.367c2.591-4.226,5.142-8.475,7.696-12.725
		c4.813-8.012,9.79-16.295,14.958-24.293c6.834-10.574,14.987-19.489,23.621-28.926l3.028-3.317c1.56-1.714,3.167-3.408,4.776-5.107
		c3.232-3.41,6.574-6.936,9.49-10.597c1.936-2.43,3.927-5.025,5.145-7.683c0.573-1.25,0.635-2.567,0.704-3.962
		c0.069-1.382,0.138-2.813,0.701-4.274c0.787-2.044,2.156-3.894,3.479-5.682c0.658-0.89,1.313-1.771,1.876-2.658
		c1.817-2.876,3.542-5.823,5.125-8.758c3.084-5.727,6.067-11.844,5.767-18.153c-0.392-2.081-1.175-3.376-2.331-3.848
		c-0.369-0.151-0.797-0.225-1.274-0.225c-1.504,0-3.516,0.739-5.826,2.161c-5.31,3.266-9.928,7.166-14.121,11.92
		c-3.364,3.818-7.215,7.159-10.938,10.389c-1.491,1.291-2.986,2.587-4.457,3.92c-5.096,4.607-10,9.161-14.056,14.231
		c-2.805,3.51-5.152,7.402-7.416,11.165c-1.205,1.998-2.41,3.997-3.687,5.958c-2.426,3.721-5.089,7.365-7.663,10.891
		c-1.429,1.956-2.857,3.913-4.253,5.889c-3.259,4.616-7.439,8.461-11.482,12.179c-0.955,0.878-1.909,1.757-2.857,2.649
		c-10.306,9.696-19.559,19.924-28.918,30.422c-9.773,10.962-16.982,22.821-22.749,32.976c-4.74,8.348-12.071,15.013-19.161,21.459
		c-3.183,2.896-6.475,5.889-9.451,8.97c-19.174,19.836-42.358,36.432-64.778,52.483l-1.616,1.156
		c-5.362,3.84-10.073,8.181-14,12.905c-0.28,0.338-0.606,0.697-0.945,1.074c-1.491,1.648-3.177,3.514-2.525,5.097
		c0.579,1.407,2.449,3.049,4.098,4.496c0.925,0.816,1.804,1.591,2.442,2.291c2.222,2.441,4.223,5.071,6.155,7.615
		c1.922,2.53,3.911,5.145,6.093,7.53c4.019,4.395,8.565,8.626,13.894,12.932c9.214,7.446,20.241,15.507,34.556,16.891
		c1.32,0.126,3.295,0.318,3.917-0.247c0.204-0.185,0.286-0.534,0.244-1.037c-0.122-1.493-0.912-3.337-1.675-5.121
		c-0.573-1.335-1.165-2.715-1.488-3.985C509.274,388.659,509.122,382.154,510.716,376.279z"/>
	<path fill="#2C3B84" d="M1126.608,1054.722l-0.494-3.45c-0.774-5.384-1.57-10.951-2.508-16.388
		c-0.82-4.749-1.712-9.479-2.604-14.209c-1.491-7.893-3.032-16.057-4.194-24.185c-0.461-3.228-0.879-6.458-1.264-9.695
		c-0.102-0.864-0.155-1.796-0.211-2.752c-0.112-1.999-0.23-4.07-0.843-5.69c-1.231-3.249-7.429-2.225-11.955-1.484
		c-1.195,0.198-2.271,0.373-3.134,0.454c-11.844,1.102-23.908,0.811-35.583,0.54l-6.36-0.142c-0.813,0.284-2.633,0.194-9.464-0.29
		c-4.391-0.309-12.676-0.895-19.635-0.895c-6.047,0-11.09,0.441-11.705,1.891c-0.592,1.392,0.905,3.74,2.001,5.452
		c0.336,0.525,0.645,1.012,0.879,1.435c1.932,3.465,3.861,6.93,5.83,10.377c0.293,0.515,0.573,1.046,0.859,1.586
		c1.129,2.126,2.294,4.323,4.266,5.523c1.33,0.808,2.917,1.139,4.595,1.49c1.379,0.287,2.805,0.583,4.171,1.169
		c5.444,2.33,7.308,8.353,8.805,13.191l0.431,1.373c1.02,3.203,1.853,6.501,2.656,9.692c0.698,2.774,1.396,5.548,2.222,8.285
		l0.444,1.472c3.581,11.88,7.285,24.163,13.147,34.932c4.111,7.557,14.576,7.078,23.829,6.668c2.051-0.093,3.967-0.185,5.793-0.173
		c7.1,0.034,14.204,0.059,21.307,0.068c0.007,0,0.016,0,0.023,0c6.491,0,9.223-2.172,10.086-8.01
		c0.714-4.835-0.109-10.025-0.902-15.039C1126.931,1056.842,1126.763,1055.774,1126.608,1054.722z"/>
	<path fill="#2C3B84" d="M288.818,974.91c-0.293,0-0.602,0.003-0.928,0.006l-6.422,0.037c-3.279,0.015-6.554,0.031-9.832,0.059
		l-2.047,0.019c-4.701,0.037-9.562,0.077-14.303,0.463c-0.474,0.037-0.955,0.065-1.435,0.096c-2.064,0.123-4.197,0.253-5.049,1.197
		c-0.438,0.491-0.592,1.259-0.467,2.345c0.856,7.47,10.938,7.998,18.302,8.384c1.103,0.056,2.143,0.111,3.084,0.185
		c1.149-0.086,2.383-0.123,3.651-0.16c3.611-0.108,7.347-0.216,10.129-1.524c4.075-1.919,8.526-7.603,9.793-9.297
		c0.514-0.685,0.52-1.018,0.494-1.065C293.588,975.305,292.544,974.91,288.818,974.91z"/>
</g>
</svg>
