<?xml version="1.0" standalone="no"?>
<!DOCTYPE svg PUBLIC "-//W3C//DTD SVG 20010904//EN"
 "http://www.w3.org/TR/2001/REC-SVG-20010904/DTD/svg10.dtd">
<svg version="1.0" xmlns="http://www.w3.org/2000/svg"
 width="3000.000000pt" height="1678.000000pt" viewBox="0 0 3000.000000 1678.000000"
 preserveAspectRatio="xMidYMid meet">

<g transform="translate(0.000000,1678.000000) scale(0.100000,-0.100000)"
fill="#000000" stroke="none">
<path d="M7480 16465 l0 -315 60 0 60 0 0 315 0 315 -60 0 -60 0 0 -315z"/>
<path d="M8280 14570 l0 -2210 65 0 65 0 0 2210 0 2210 -65 0 -65 0 0 -2210z"/>
<path d="M12287 16544 c-4 -4 -7 -232 -7 -506 l0 -498 -290 0 -290 0 0 -60 0
-60 290 0 289 0 3 -1317 3 -1318 23 -80 c40 -144 112 -230 239 -290 96 -46
179 -58 353 -51 206 7 200 5 200 75 l0 56 -228 0 -227 0 -53 29 c-83 46 -139
129 -167 248 -13 54 -15 249 -15 1356 l0 1292 355 0 355 0 0 60 0 60 -355 0
-355 0 -2 503 -3 502 -55 3 c-31 2 -59 0 -63 -4z"/>
<path d="M5410 15609 c-293 -32 -544 -147 -748 -343 -151 -145 -277 -341 -349
-541 l-28 -80 -3 448 -2 447 -65 0 -65 0 0 -2135 0 -2135 65 0 65 0 2 992 3
992 34 -100 c102 -301 294 -544 550 -693 295 -173 748 -218 1099 -109 164 50
349 164 482 298 390 389 559 1101 424 1780 -112 563 -438 972 -895 1124 -153
51 -395 75 -569 55z m451 -152 c255 -67 451 -195 599 -389 220 -290 331 -657
333 -1098 1 -250 -28 -439 -100 -665 -139 -435 -446 -759 -808 -854 -171 -45
-406 -52 -587 -17 -300 58 -551 215 -735 461 -90 120 -187 338 -223 500 -53
235 -74 556 -51 770 69 637 405 1112 901 1270 141 45 218 54 405 51 142 -3
186 -8 266 -29z"/>
<path d="M10170 15614 c-194 -17 -354 -56 -486 -118 -122 -58 -193 -106 -283
-191 -179 -170 -284 -397 -316 -682 l-7 -63 65 0 64 0 6 73 c10 105 51 249
102 352 84 170 216 301 390 385 168 83 351 120 585 120 244 0 406 -31 550
-106 269 -139 380 -357 380 -751 0 -259 -78 -369 -312 -441 -109 -34 -250 -50
-668 -77 -605 -38 -769 -70 -975 -188 -93 -53 -218 -180 -272 -277 -109 -194
-142 -521 -78 -765 78 -294 337 -500 710 -564 382 -66 752 -13 1053 151 215
117 403 313 491 511 16 34 32 71 37 82 6 13 11 -71 14 -230 6 -284 13 -317 75
-381 65 -67 131 -87 308 -92 l147 -4 0 60 0 60 -137 4 c-123 3 -143 6 -179 26
-22 13 -49 38 -60 55 -18 31 -19 73 -25 1157 -5 1091 -6 1128 -26 1216 -40
175 -107 298 -228 420 -122 123 -280 198 -489 234 -109 18 -348 31 -436 24z
m1047 -1799 c-5 -355 -6 -374 -30 -471 -79 -311 -239 -544 -488 -710 -214
-143 -417 -207 -699 -221 -271 -13 -489 38 -688 160 -150 92 -238 212 -278
382 -29 122 -27 362 4 470 32 112 87 209 161 288 178 189 408 249 1061 277
275 12 396 23 541 50 182 34 315 89 381 157 32 33 33 34 37 11 2 -13 1 -189
-2 -393z"/>
<path d="M14626 15609 c-222 -23 -458 -118 -645 -260 -272 -204 -493 -578
-570 -964 -43 -217 -52 -536 -21 -775 96 -743 459 -1190 1055 -1296 137 -25
460 -25 595 -1 497 89 860 389 1008 833 24 70 72 279 72 310 0 2 -28 4 -63 4
l-63 0 -17 -89 c-78 -407 -304 -700 -659 -853 -266 -115 -664 -140 -951 -62
-429 118 -715 464 -821 994 -30 150 -46 290 -46 401 l0 82 403 -4 c221 -2 820
-3 1331 -1 l929 2 -6 151 c-16 357 -96 659 -238 898 -226 379 -566 591 -1009
631 -129 11 -171 11 -284 -1z m434 -144 c263 -58 523 -225 680 -436 95 -128
213 -386 234 -510 3 -19 15 -81 26 -139 11 -58 23 -156 27 -217 l6 -113 -1266
0 -1267 0 0 33 c1 56 28 241 49 330 72 303 200 546 386 733 179 179 391 287
652 329 113 18 368 13 473 -10z"/>
<path d="M17570 15613 c-323 -23 -567 -122 -740 -297 -150 -151 -217 -332
-207 -556 12 -257 100 -431 270 -538 153 -96 322 -152 892 -294 436 -108 510
-131 630 -190 225 -112 354 -263 385 -451 18 -106 8 -255 -23 -346 -119 -341
-541 -548 -1072 -527 -251 9 -434 50 -600 131 -182 89 -290 195 -375 370 -60
121 -87 227 -102 403 l-12 132 -58 0 -58 0 0 -81 c0 -165 43 -368 110 -515
133 -294 422 -478 850 -541 158 -23 469 -23 605 1 216 37 368 91 501 177 125
82 213 175 282 299 90 163 113 436 52 633 -42 136 -169 284 -320 373 -148 87
-258 123 -880 285 -376 98 -543 150 -641 200 -139 69 -240 176 -278 292 -22
65 -42 225 -34 274 43 279 154 425 414 547 106 49 180 69 322 87 136 16 423 6
547 -20 427 -88 664 -349 687 -753 l6 -108 65 0 65 0 -7 95 c-31 442 -217 701
-601 838 -179 64 -454 96 -675 80z"/>
<path d="M7480 13950 l0 -1590 60 0 60 0 0 1590 0 1590 -60 0 -60 0 0 -1590z"/>
<path d="M9615 11684 c-287 -34 -555 -112 -1051 -309 -668 -265 -918 -341
-1274 -390 -63 -8 -137 -19 -165 -24 -27 -6 -70 -13 -95 -17 -26 -4 -60 -18
-80 -34 -19 -15 -111 -74 -205 -130 -259 -157 -332 -215 -365 -291 -16 -40
-32 -57 -71 -82 -71 -44 -132 -141 -325 -517 -326 -636 -403 -781 -446 -837
-24 -32 -75 -98 -112 -147 -37 -49 -75 -104 -84 -123 l-16 -34 32 -25 c18 -14
32 -31 31 -37 0 -14 -115 -100 -203 -153 -134 -81 -261 -137 -569 -255 l-178
-67 -182 34 c-499 95 -618 138 -782 285 -105 94 -178 129 -266 129 l-67 0 -56
-60 c-60 -65 -127 -173 -207 -331 -40 -81 -53 -99 -72 -99 -60 0 -120 -66
-166 -183 -37 -92 -73 -150 -104 -165 -12 -5 -47 -15 -79 -21 -31 -5 -72 -16
-91 -24 l-34 -15 15 -83 c10 -54 15 -150 15 -269 0 -159 -3 -196 -21 -264 -41
-147 -103 -256 -146 -256 -48 0 -87 -26 -107 -70 -21 -47 -24 -71 -9 -86 7 -7
-10 -27 -53 -61 l-62 -51 -12 -99 c-7 -54 -31 -163 -53 -243 -83 -295 -97
-410 -66 -530 13 -51 13 -55 -5 -68 -16 -11 -19 -21 -14 -43 6 -26 -2 -38 -76
-117 -94 -100 -169 -208 -199 -290 -33 -88 -36 -113 -15 -129 29 -20 98 -16
129 8 29 23 35 67 11 74 -8 3 -22 7 -30 10 -11 3 10 38 76 132 145 203 211
263 334 298 33 10 66 27 74 37 14 21 79 53 88 44 11 -11 -59 -80 -182 -179
-134 -107 -191 -167 -181 -192 7 -19 24 -19 71 1 46 19 65 7 46 -29 -7 -14
-58 -80 -113 -148 -147 -184 -205 -291 -196 -365 3 -26 7 -29 36 -27 47 2 68
25 92 104 18 61 47 99 62 83 3 -2 24 -8 46 -12 l41 -7 -145 -175 c-518 -625
-723 -960 -968 -1580 -173 -440 -414 -965 -688 -1499 -120 -234 -130 -257
-124 -293 8 -51 31 -95 98 -188 103 -144 406 -525 496 -625 77 -86 87 -100 68
-103 -11 -2 -44 -10 -72 -17 -50 -14 -52 -16 -57 -56 -3 -23 -3 -47 -1 -53 8
-21 70 -56 142 -80 95 -33 95 -32 77 -66 -8 -16 -15 -43 -15 -60 0 -27 6 -33
45 -50 123 -53 354 -67 584 -36 63 9 119 16 125 16 6 0 5 5 -2 12 -19 19 -14
28 18 28 33 0 39 -14 13 -29 -24 -14 35 -14 137 -1 95 13 117 19 99 30 -10 7
-10 11 1 25 12 14 16 15 24 3 8 -11 40 -14 131 -13 122 1 169 10 143 26 -8 5
16 9 59 9 40 0 132 9 205 19 323 48 556 65 1178 86 480 16 542 20 742 41 75 8
185 14 243 14 98 0 105 1 105 20 0 17 -7 20 -40 20 -22 0 -40 5 -40 10 0 11
88 14 114 4 12 -5 13 -10 5 -26 -10 -18 -8 -19 18 -14 49 10 167 9 193 -1 29
-12 65 -5 139 27 48 21 57 22 85 10 49 -21 158 -23 471 -10 227 10 361 10 615
1 390 -14 379 -14 406 4 18 12 28 12 67 0 25 -8 90 -19 145 -26 107 -13 195
-4 254 26 39 19 38 20 38 -10 l0 -25 118 0 c202 -1 490 -19 859 -56 62 -7 62
-6 69 21 4 17 2 41 -5 59 -7 17 -15 42 -18 55 l-6 24 289 -6 c159 -4 422 -16
584 -27 162 -11 413 -23 558 -27 l262 -6 0 36 c0 26 -8 46 -30 70 l-30 35 103
6 c107 7 494 -8 619 -24 40 -5 82 -10 92 -10 41 0 6 -10 -92 -25 -56 -8 -131
-15 -166 -15 -35 0 -84 -3 -110 -6 -51 -7 -58 -22 -31 -73 46 -90 212 -97
1085 -46 533 31 979 53 1250 61 118 3 256 12 307 20 81 13 95 13 127 0 32 -13
40 -13 74 1 39 17 104 20 307 13 98 -3 139 0 224 19 109 23 154 21 170 -7 9
-15 12 -15 33 6 24 22 25 22 74 6 37 -13 108 -19 299 -24 213 -6 262 -11 330
-30 95 -26 87 -26 149 -4 44 16 60 16 145 5 158 -20 274 -30 514 -41 203 -9
364 -24 495 -46 35 -5 42 -4 42 10 0 20 7 20 26 1 19 -19 54 -19 122 -1 42 12
52 12 52 1 0 -23 32 -28 213 -33 97 -2 177 -7 177 -11 0 -3 48 -5 108 -3 65 2
209 -7 367 -23 382 -38 487 -42 573 -21 70 18 71 18 196 -8 115 -24 145 -26
373 -26 290 1 376 9 437 45 41 24 50 25 192 25 105 0 222 -9 399 -31 149 -18
316 -32 414 -34 178 -5 233 -11 210 -26 -8 -5 -89 -9 -180 -9 -92 0 -181 -3
-198 -6 -29 -6 -32 -10 -29 -37 2 -18 13 -38 29 -49 25 -19 36 -20 290 -9 169
7 442 28 759 60 602 61 684 68 875 81 83 5 166 14 184 20 26 7 37 7 42 -2 8
-12 129 -19 129 -8 0 3 -5 11 -12 18 -16 16 4 16 48 0 26 -9 38 -9 58 1 14 8
22 19 19 27 -8 21 -164 19 -205 -2 -23 -12 -47 -15 -87 -11 -68 7 -297 -8
-334 -22 -28 -11 -40 -1 -90 79 -38 61 -112 89 -263 101 -138 11 -309 35 -327
46 -22 13 30 22 138 22 68 1 119 6 135 14 21 11 27 11 36 -2 11 -14 65 -9 246
25 22 4 27 2 22 -9 -13 -36 471 -69 559 -38 33 11 40 11 56 -3 32 -29 84 -12
104 34 4 8 5 3 2 -12 -4 -20 -1 -28 9 -28 8 0 18 5 21 10 3 6 15 10 26 10 10
0 19 5 19 10 0 6 12 10 28 9 l27 -1 -27 -10 c-26 -9 -36 -27 -22 -41 9 -9 84
31 91 48 3 10 21 15 55 15 l50 0 -7 -32 c-6 -26 -5 -30 10 -25 9 4 23 7 31 7
9 0 14 11 14 28 l0 29 173 6 c94 4 228 7 297 7 69 0 202 5 297 12 150 10 191
10 325 -5 120 -14 240 -17 553 -17 569 0 785 -15 907 -65 50 -19 59 -21 70 -8
13 15 65 11 102 -9 16 -9 12 -13 -34 -29 -56 -19 -79 -17 -59 7 9 11 8 14 -4
14 -8 0 -17 -4 -19 -8 -2 -5 -16 -12 -33 -16 -22 -5 -26 -4 -15 4 8 5 10 10 4
10 -6 0 -17 -7 -24 -15 -17 -20 -59 -19 -111 4 -48 22 -82 14 -73 -17 4 -11 3
-13 -3 -5 -12 17 -523 33 -516 17 8 -22 -16 -25 -27 -4 -6 12 -18 19 -25 16
-10 -3 -12 0 -8 12 5 14 4 15 -8 6 -29 -23 -390 -37 -411 -16 -6 6 -24 6 -51
0 -23 -5 -65 -8 -94 -6 -55 5 -55 5 -21 -45 20 -28 51 -36 64 -15 4 6 -1 17
-11 25 -11 7 -14 13 -8 13 7 0 15 -5 18 -11 5 -7 25 -8 56 -4 41 6 49 4 49 -9
0 -9 -11 -21 -25 -26 -14 -5 -25 -11 -25 -12 0 -9 219 0 236 10 16 8 38 9 85
1 41 -7 133 -8 254 -4 266 10 362 8 489 -11 156 -23 259 -23 323 1 l53 19 28
-27 c27 -26 32 -27 144 -27 130 0 203 -11 264 -40 33 -16 47 -18 68 -10 15 5
55 10 88 10 81 0 282 -18 340 -31 34 -8 74 -7 143 2 94 11 96 11 120 -11 24
-22 24 -22 74 -4 50 17 50 17 138 -9 84 -26 99 -27 353 -29 146 -2 281 0 301
5 35 7 36 6 31 -18 -5 -27 12 -35 22 -10 4 11 20 15 54 15 50 0 80 -18 62 -36
-5 -5 33 -10 98 -10 69 -1 173 -13 292 -34 102 -17 241 -34 309 -37 l123 -6
-17 26 c-9 15 -14 34 -11 45 10 30 -55 43 -254 49 -144 4 -182 9 -212 24 -36
18 -68 17 -68 -3 0 -5 -14 2 -32 17 -25 21 -39 26 -64 22 -17 -3 -36 -1 -42 5
-6 6 -66 11 -136 13 -69 1 -131 7 -138 12 -57 45 -143 67 -328 83 -63 5 -133
15 -155 22 -40 13 -40 13 45 16 74 3 346 -17 466 -34 40 -6 41 -5 49 28 l8 33
6 -30 6 -30 70 3 c43 2 135 -7 235 -23 196 -32 343 -31 367 1 7 10 13 12 13 6
0 -7 7 -12 15 -12 9 0 15 -7 13 -16 -2 -13 12 -16 85 -20 96 -6 133 0 107 16
-10 7 13 10 69 10 73 0 82 -2 71 -15 -10 -12 -10 -18 0 -30 14 -17 66 -20 75
-5 3 6 -1 10 -9 10 -9 0 -16 7 -16 16 0 14 2 14 22 0 28 -20 73 -20 129 -1 24
9 45 12 46 8 10 -29 45 -73 58 -73 9 0 33 9 55 20 45 23 82 25 110 8 15 -10
22 -9 39 6 26 24 68 16 160 -30 51 -25 75 -33 88 -26 25 12 115 14 108 2 -3
-6 -14 -10 -23 -11 -11 0 -8 -4 8 -10 14 -6 56 -9 95 -8 38 1 89 -2 112 -6 30
-5 47 -4 58 5 14 11 17 10 21 -8 8 -27 32 -36 50 -17 20 20 22 20 108 -15 79
-31 101 -31 111 1 4 10 15 19 27 19 13 0 18 -5 15 -13 -8 -21 61 -47 122 -47
30 0 119 -11 200 -24 203 -34 274 -40 300 -27 25 14 27 28 5 52 -12 14 -13 22
-5 38 10 18 8 21 -16 27 -16 3 -35 8 -43 10 -22 5 -370 54 -378 52 -4 -1 -14
1 -22 5 -8 3 -69 13 -135 22 -163 22 -387 59 -579 97 -156 30 -161 30 -206 14
-46 -16 -48 -16 -117 9 -74 26 -118 32 -128 15 -10 -17 -44 -11 -55 9 -9 17
-18 19 -82 14 -66 -5 -75 -3 -92 16 l-20 22 65 -5 c189 -16 483 -27 558 -21
113 8 210 25 217 36 9 16 -24 58 -72 92 -24 17 -44 34 -44 38 0 13 173 81 398
156 125 42 233 83 240 91 20 25 14 103 -10 152 -24 48 -88 90 -136 90 -13 0
-57 25 -98 54 -150 110 -360 204 -794 356 -450 157 -566 212 -1070 500 -488
280 -600 332 -1089 510 -358 130 -481 180 -639 259 -251 126 -588 334 -776
479 -93 72 -288 243 -283 248 1 2 77 8 167 13 181 11 251 26 304 62 53 36 62
59 49 132 -15 91 -49 154 -118 222 -77 76 -168 123 -400 210 -200 75 -271 108
-427 201 -282 167 -411 216 -699 264 -250 41 -298 66 -569 289 -73 61 -197
155 -274 208 -280 192 -366 256 -446 330 -96 90 -146 158 -230 318 -35 66 -92
162 -127 213 -40 58 -69 114 -79 151 -12 42 -24 62 -43 74 -27 16 -82 73 -201
207 -35 40 -79 82 -97 93 -26 15 -33 26 -33 50 0 66 -8 75 -83 99 -67 22 -74
27 -165 128 -113 126 -242 280 -513 615 -719 890 -1195 1303 -2294 1986 -306
191 -395 242 -700 404 -132 70 -379 205 -550 300 -496 276 -1311 674 -1675
818 -489 193 -1018 323 -1540 376 -107 12 -240 29 -295 40 -162 32 -213 35
-281 17 -81 -21 -135 -20 -252 4 -53 11 -157 29 -230 40 -132 20 -262 48 -627
135 -104 24 -264 56 -355 71 -91 14 -244 40 -340 59 -430 83 -355 77 -1010 86
-327 4 -631 13 -675 18 -82 10 -98 11 -150 5z m1230 -155 c192 -14 449 -53
592 -91 46 -11 47 -12 63 -108 6 -36 45 -218 85 -405 167 -768 227 -1139 260
-1610 4 -55 2 -65 -6 -45 -23 55 -61 201 -104 402 -57 270 -104 440 -117 431
-19 -11 -1 -190 36 -372 40 -196 41 -204 21 -177 -27 36 -92 218 -155 430 -61
210 -118 371 -146 414 -18 27 -55 29 -79 2 -15 -16 -17 -31 -12 -86 2 -36 1
-62 -3 -57 -4 4 -20 47 -34 94 -30 100 -60 146 -83 128 -11 -10 -13 -26 -7
-76 6 -62 6 -63 -22 -73 -15 -6 -61 -9 -102 -8 l-75 3 -28 55 c-16 30 -45 100
-65 155 -50 137 -99 228 -145 270 -47 42 -61 43 -88 9 -26 -33 -28 -101 -6
-205 9 -40 13 -74 11 -76 -7 -7 -98 150 -221 382 -136 256 -222 402 -299 506
-64 88 -69 82 95 98 231 22 430 26 634 10z m-997 -45 c37 -38 56 -42 72 -16 9
15 14 13 46 -23 56 -63 175 -247 254 -395 40 -74 117 -216 171 -315 54 -99
111 -214 128 -256 32 -79 61 -180 61 -211 0 -35 -345 -129 -970 -263 -552
-119 -766 -176 -1025 -275 -425 -162 -864 -417 -1148 -667 -183 -161 -214
-186 -247 -203 l-36 -18 -103 109 c-86 92 -114 114 -174 143 -267 126 -646 73
-1136 -160 -74 -35 -140 -64 -148 -64 -24 0 -13 38 25 87 44 55 285 480 404
712 238 461 353 643 508 799 79 80 144 127 275 197 98 53 167 97 203 129 17
15 58 26 157 43 420 70 768 171 1644 477 184 65 405 139 490 167 l156 49 180
-6 180 -5 33 -35z m2092 -123 c193 -41 1029 -219 1107 -236 18 -4 20 -9 14
-33 -21 -71 -67 -124 -186 -214 -170 -129 -382 -406 -535 -701 -103 -198 -182
-398 -230 -587 -17 -66 -26 -121 -60 -375 -5 -33 -13 -73 -19 -88 -13 -33 -53
-54 -80 -41 -19 9 -19 12 12 79 31 68 32 74 31 205 0 165 -52 559 -109 835 -8
39 -26 135 -40 215 -14 80 -50 249 -80 375 -57 243 -81 363 -90 458 -3 31 -8
82 -11 112 -5 54 -5 56 18 50 13 -3 129 -27 258 -54z m1750 -276 c423 -54 602
-84 811 -136 163 -41 680 -215 928 -313 266 -105 693 -319 1306 -654 1874
-1025 2324 -1323 3073 -2040 204 -195 336 -341 544 -602 77 -96 201 -244 276
-328 187 -211 231 -268 285 -370 l47 -89 -43 -12 c-23 -7 -139 -49 -257 -93
-118 -44 -270 -100 -338 -124 -68 -24 -149 -56 -180 -71 -57 -28 -162 -119
-162 -141 0 -6 12 -15 26 -18 45 -11 103 3 172 44 171 101 556 208 822 228
l94 7 -20 -34 c-11 -19 -56 -59 -99 -89 -92 -64 -125 -107 -125 -161 0 -36 2
-39 43 -50 37 -10 63 -8 207 21 108 21 186 31 225 28 l60 -3 7 -47 c3 -26 9
-51 12 -56 3 -5 32 -12 64 -14 149 -14 248 -119 332 -356 l23 -63 -29 -30
c-16 -17 -56 -45 -89 -61 -83 -43 -370 -237 -485 -329 -112 -90 -172 -148
-382 -371 -145 -152 -248 -245 -305 -271 -18 -8 -30 -5 -62 16 -39 26 -131
152 -131 180 0 26 120 184 214 280 50 51 163 156 251 232 88 76 188 165 223
198 l63 59 -48 -7 c-71 -10 -239 -68 -324 -110 -155 -78 -309 -197 -442 -342
-62 -69 -65 -66 -42 37 18 79 22 88 102 268 51 115 103 272 103 315 0 12 -79
8 -113 -6 -55 -23 -91 -62 -177 -187 -75 -109 -140 -179 -140 -150 0 19 72
153 120 225 26 39 73 98 104 132 31 33 56 65 56 70 0 5 12 25 26 44 17 23 24
42 21 59 -4 21 1 28 33 43 36 17 78 63 67 73 -10 10 -166 -58 -242 -105 -122
-76 -228 -166 -386 -328 l-144 -148 -35 17 c-60 30 -95 32 -144 8 l-45 -21
-83 21 c-117 30 -300 93 -426 146 -265 113 -503 250 -992 571 -305 200 -475
306 -603 377 -37 21 -72 46 -77 56 -26 48 -42 153 -55 350 -7 118 -19 236 -25
263 -12 45 -14 47 -49 47 -39 0 -74 -20 -106 -60 -35 -43 -55 -61 -65 -55 -6
4 -10 42 -10 86 0 133 -36 182 -91 123 -21 -22 -24 -34 -22 -87 6 -185 7 -366
2 -372 -4 -3 -112 70 -240 163 -599 431 -863 606 -1282 846 -39 22 -52 38 -77
91 -55 118 -63 173 -64 465 -2 239 -8 313 -31 378 -7 20 -95 -29 -138 -77 -20
-22 -45 -58 -57 -80 -25 -51 -57 -184 -65 -276 -3 -38 -8 -86 -12 -105 l-5
-35 -25 64 c-39 105 -71 242 -113 486 -22 127 -40 233 -40 237 0 16 -30 -5
-37 -25 -10 -30 -4 -503 8 -607 6 -47 19 -119 29 -160 10 -41 18 -75 17 -77
-3 -3 -978 215 -1262 282 -462 109 -714 218 -1157 502 -171 109 -159 84 -132
275 37 266 121 593 204 793 126 302 364 648 537 783 156 121 206 166 255 232
82 111 138 170 161 170 12 0 182 -20 377 -45z m-3020 -611 c0 -8 -4 -12 -10
-9 -5 3 -10 10 -10 16 0 5 5 9 10 9 6 0 10 -7 10 -16z m568 -401 c46 -185 108
-477 126 -588 12 -74 -251 481 -316 668 -17 48 -29 89 -27 90 14 10 109 35
135 36 l31 1 51 -207z m69 70 c-2 -16 -4 -3 -4 27 0 30 2 43 4 28 2 -16 2 -40
0 -55z m-640 -12 c43 -27 76 -87 118 -216 20 -61 71 -184 115 -275 79 -166
114 -264 124 -352 6 -54 -4 -61 -31 -20 -29 42 -40 71 -58 162 -21 105 -45
161 -81 189 -64 50 -87 -9 -55 -143 12 -48 21 -104 21 -124 -1 -37 -1 -36 -31
28 -80 172 -164 413 -219 632 -17 64 -30 122 -30 127 0 19 92 12 127 -8z m673
-46 c0 -8 -4 -17 -10 -20 -6 -4 -10 5 -10 20 0 15 4 24 10 20 6 -3 10 -12 10
-20z m-894 -269 c80 -408 124 -756 96 -756 -17 0 -88 99 -115 160 -14 30 -48
127 -76 215 -47 146 -112 298 -132 310 -16 11 -53 -59 -57 -109 -3 -42 3 -69
33 -146 77 -199 145 -468 145 -576 l0 -49 -26 38 c-36 53 -61 114 -134 317
-89 250 -136 338 -173 324 -25 -9 -47 -56 -47 -99 0 -82 103 -441 188 -652
l21 -51 -23 -15 c-18 -12 -514 -253 -563 -274 -10 -4 -13 8 -13 43 0 82 -10
124 -30 124 -27 0 -39 -21 -46 -84 l-7 -57 -49 48 c-135 132 -230 339 -353
768 -32 110 -72 236 -90 280 -19 44 -36 96 -40 116 l-7 35 204 57 c112 31 370
97 573 147 204 50 431 105 505 124 74 19 141 34 149 33 10 -2 29 -77 67 -271z
m1005 -171 c64 -245 98 -355 128 -413 l19 -37 12 42 c11 37 10 57 -8 149 -12
59 -20 109 -18 111 9 9 146 -343 146 -376 0 -7 -23 -11 -58 -11 -33 0 -92 -3
-133 -6 l-74 -6 -1 133 c-1 156 -12 245 -60 493 -19 100 -37 192 -40 206 -13
73 35 -84 87 -285z m-891 44 c0 -11 -4 -17 -10 -14 -5 3 -10 13 -10 21 0 8 5
14 10 14 6 0 10 -9 10 -21z m597 -41 c-3 -7 -5 -2 -5 12 0 14 2 19 5 13 2 -7
2 -19 0 -25z m-2341 -58 c198 -617 267 -895 288 -1165 l7 -80 -26 30 c-54 65
-111 192 -220 500 -55 154 -123 296 -164 345 l-29 35 -22 -49 c-18 -38 -21
-61 -17 -102 3 -28 50 -189 106 -357 104 -316 135 -440 147 -591 8 -106 2
-108 -68 -21 -58 71 -105 160 -193 365 -72 165 -125 263 -174 320 -27 31 -30
33 -31 14 -1 -60 70 -257 170 -473 l62 -134 -28 -22 c-20 -16 -28 -31 -28 -58
-1 -20 -2 -37 -2 -37 -1 0 -28 33 -59 74 -33 44 -97 155 -155 269 -93 184
-163 307 -175 307 -11 0 7 -93 32 -169 33 -103 86 -208 202 -408 56 -95 101
-177 101 -183 0 -22 -123 -191 -170 -233 -38 -34 -118 -75 -125 -64 -54 77
-124 192 -210 342 -59 105 -121 210 -138 235 -56 83 -131 173 -135 161 -6 -18
37 -139 81 -226 22 -44 86 -152 142 -240 102 -160 176 -293 174 -317 -1 -41
-302 -226 -428 -263 l-24 -7 6 78 c12 162 -22 389 -90 594 -45 137 -173 397
-262 533 -49 74 -69 113 -63 123 22 39 184 212 273 290 293 259 600 437 1054
610 77 30 146 53 153 51 8 -1 25 -36 38 -77z m1854 -190 c45 -113 103 -247
131 -299 27 -52 49 -98 49 -102 0 -18 -122 -67 -208 -84 -32 -7 -32 -7 -20 22
23 55 14 235 -20 417 -31 161 -42 300 -22 266 4 -9 45 -108 90 -220z m541 138
c18 -35 56 -126 85 -203 29 -77 61 -161 72 -187 11 -25 18 -49 15 -52 -4 -3
-26 -6 -50 -6 -25 0 -92 -11 -151 -24 -161 -37 -202 -41 -202 -23 0 19 21 27
75 27 55 0 64 15 77 123 4 44 11 83 14 88 3 5 18 9 34 9 62 0 75 53 40 156
-30 86 -50 154 -45 154 3 0 19 -28 36 -62z m-4563 -504 c42 -9 100 -27 127
-40 235 -115 557 -575 709 -1013 53 -152 69 -253 64 -399 -5 -118 -6 -125 -31
-148 -16 -14 -27 -36 -27 -50 0 -63 -55 -135 -192 -252 -171 -144 -312 -242
-453 -314 -77 -39 -152 -81 -167 -93 -14 -12 -62 -35 -105 -51 -58 -21 -142
-71 -328 -195 -265 -176 -337 -227 -890 -624 -450 -323 -563 -400 -770 -525
-215 -130 -309 -196 -515 -359 -91 -73 -236 -179 -323 -238 -290 -193 -331
-235 -478 -481 -281 -473 -562 -838 -1047 -1358 -76 -82 -316 -331 -533 -554
-499 -514 -530 -546 -682 -714 -103 -113 -124 -142 -117 -156 12 -23 88 -77
173 -124 77 -43 132 -88 157 -129 16 -26 23 -29 81 -31 37 -1 78 -10 98 -20
42 -22 71 -15 115 29 27 26 44 35 70 35 68 0 87 -22 106 -130 15 -84 26 -100
97 -137 88 -48 212 -80 436 -113 112 -16 235 -36 275 -45 40 -8 75 -15 78 -15
2 0 4 -4 4 -8 0 -26 -64 -36 -255 -43 -228 -7 -293 -19 -779 -140 -153 -38
-320 -74 -371 -80 -166 -20 -297 16 -416 114 -54 44 -97 95 -305 358 -54 69
-138 169 -186 222 -47 54 -92 113 -98 131 -16 50 17 139 167 450 328 680 465
983 610 1351 184 463 348 760 625 1127 316 419 599 701 1208 1203 318 262 470
397 748 664 553 531 890 840 1063 974 159 121 237 206 315 338 67 115 320 612
468 922 101 211 154 294 232 368 96 89 264 171 488 239 219 66 407 84 554 54z
m3848 -129 c7 -30 -1 -45 -27 -45 -16 0 -19 7 -19 45 0 43 1 45 20 35 11 -6
22 -21 26 -35z m1459 2 c22 -11 59 -33 82 -49 46 -33 158 -156 150 -164 -17
-17 -117 70 -117 101 0 14 -77 70 -164 122 -48 29 -13 21 49 -10z m-795 4
c-78 -25 -180 -70 -212 -92 -21 -15 -43 -19 -110 -18 -101 0 -100 1 152 74
173 51 292 76 170 36z m-1794 -524 c14 -27 24 -50 22 -52 -15 -13 -112 -55
-128 -55 -17 0 -20 6 -20 48 0 26 -9 101 -20 167 -11 66 -20 124 -20 129 0 14
139 -185 166 -237z m-6041 134 c180 -146 378 -255 550 -306 79 -23 119 -28
320 -37 268 -12 301 -11 375 3 142 29 277 93 664 317 16 9 -2 -93 -27 -155
-14 -34 -66 -125 -116 -203 -105 -163 -116 -184 -216 -406 -40 -91 -95 -200
-121 -242 -64 -102 -205 -242 -439 -434 -159 -130 -450 -396 -696 -635 l-56
-54 -90 20 c-107 23 -147 39 -189 74 -18 15 -37 27 -43 27 -19 0 -82 -62 -100
-99 -22 -45 -28 -67 -51 -211 -22 -132 -42 -195 -72 -227 -18 -19 -32 -23 -87
-23 -81 0 -304 -24 -426 -45 -158 -27 -467 -108 -580 -152 -12 -4 -15 6 -15
53 0 84 14 165 63 357 31 124 45 167 57 167 8 0 51 -12 95 -26 121 -39 199
-33 225 17 10 17 7 21 -22 33 -18 8 -71 24 -117 36 -118 32 -138 53 -146 151
l-6 75 53 37 c29 20 78 55 108 77 30 22 61 40 68 40 7 0 30 -13 52 -29 40 -29
110 -49 129 -37 14 9 -13 81 -45 123 -14 18 -39 40 -57 49 -18 9 -33 18 -35
19 -1 1 29 63 67 137 43 84 75 162 85 206 20 88 20 225 1 317 -19 89 -20 86
13 74 22 -7 38 -5 75 11 43 19 47 24 47 56 0 28 -5 37 -21 41 -19 5 -18 8 14
42 45 47 108 146 131 205 23 59 52 63 92 11 55 -72 84 -26 54 87 -18 68 -18
73 -2 82 42 22 141 138 187 219 85 150 145 238 158 230 6 -4 47 -36 92 -72z
m11733 -265 c0 -128 4 -230 11 -260 13 -54 9 -65 -14 -46 -84 70 -101 338 -33
513 21 53 23 56 30 31 4 -15 7 -122 6 -238z m-5388 99 c0 -2 -10 -9 -22 -15
-22 -11 -22 -10 -4 4 21 17 26 19 26 11z m-697 -53 c36 -55 52 -113 40 -148
l-10 -29 -15 30 c-9 17 -21 57 -28 90 -6 33 -14 68 -16 78 -8 27 1 20 29 -21z
m577 -16 c0 -6 -200 -160 -220 -170 -28 -14 75 76 144 125 69 49 76 53 76 45z
m-853 -188 c-3 -8 -6 -5 -6 6 -1 11 2 17 5 13 3 -3 4 -12 1 -19z m33 -53 c0
-8 -4 -17 -10 -20 -6 -4 -10 5 -10 20 0 15 4 24 10 20 6 -3 10 -12 10 -20z
m317 -107 c-18 -9 -36 -17 -40 -18 -9 0 10 38 31 63 15 17 16 17 28 -5 11 -21
10 -25 -19 -40z m-212 -89 c-33 -11 -66 -18 -75 -16 -22 4 70 35 105 35 23 0
17 -4 -30 -19z m2182 -329 c109 -27 217 -52 241 -56 23 -4 42 -10 42 -14 0 -4
11 -174 25 -376 91 -1351 118 -2600 80 -3679 -25 -715 -43 -950 -92 -1202
l-15 -81 -67 -6 c-115 -11 -556 -25 -563 -18 -27 26 -190 553 -266 857 -280
1119 -382 2297 -282 3251 11 104 24 216 30 249 5 33 10 79 10 103 0 23 4 42 9
42 5 0 7 9 4 19 -3 11 3 50 12 88 23 89 23 154 2 187 -23 35 -21 46 7 46 32 0
42 17 22 39 -21 23 -20 31 4 31 24 0 25 8 5 30 -13 14 -12 21 11 65 22 44 24
59 22 156 -2 106 -2 107 28 141 18 21 35 56 44 91 10 44 18 59 34 62 23 6 280
21 388 24 50 1 115 -11 265 -49z m-816 -52 c-6 -29 -12 -102 -14 -163 -2 -99
-5 -117 -34 -180 -46 -101 -49 -119 -24 -142 21 -20 21 -20 1 -38 -29 -26 -34
-73 -20 -181 12 -95 11 -96 -12 -121 -21 -23 -23 -36 -29 -171 -4 -81 -12
-163 -18 -182 -16 -49 -14 -133 3 -156 13 -17 12 -22 -19 -54 l-34 -35 -5
-270 c-2 -148 -10 -364 -16 -480 -30 -584 76 -1489 265 -2253 61 -249 142
-523 223 -761 l70 -203 -186 6 c-253 9 -568 27 -615 35 -37 6 -40 9 -73 86
-263 605 -443 1232 -524 1825 -11 85 -45 315 -75 510 -93 603 -108 795 -80
975 18 116 16 167 -10 195 -14 15 -14 21 0 53 20 48 19 85 -3 121 -17 29 -17
31 1 65 22 42 19 139 -6 186 -13 26 -13 31 3 54 14 20 21 60 29 162 12 140 10
160 -18 192 -14 17 -13 23 13 69 27 48 28 55 23 137 -5 70 -3 93 12 126 19 43
18 65 -5 65 -24 0 -26 25 -5 61 12 20 28 80 38 141 l17 106 203 62 c258 78
547 150 733 183 159 29 193 34 198 31 2 -1 -1 -26 -7 -56z m-1956 16 c-67 -55
-273 -190 -325 -211 -30 -12 -75 -23 -99 -23 l-45 0 125 76 c202 125 221 136
284 160 79 30 98 30 60 -2z m4111 -123 c104 -48 278 -126 388 -172 146 -62
200 -89 206 -105 13 -32 76 -415 104 -629 48 -361 111 -1006 136 -1385 46
-717 33 -1529 -36 -2198 l-17 -163 -96 -83 c-101 -87 -255 -207 -380 -295 -69
-50 -80 -54 -199 -77 -68 -14 -126 -23 -127 -22 -1 2 6 55 15 118 111 726 118
1701 20 2675 -65 641 -191 1416 -336 2069 -30 136 -54 249 -52 250 2 2 24 10
49 20 26 9 64 32 85 51 22 19 42 34 45 35 3 0 91 -40 195 -89z m-704 29 l197
-33 16 -71 c38 -170 157 -779 189 -971 94 -569 191 -1318 230 -1780 49 -580
46 -1213 -9 -1795 -15 -158 -63 -521 -69 -528 -14 -14 -780 -101 -791 -90 -2
2 2 42 10 89 25 145 71 650 95 1049 31 497 31 1381 1 2140 -6 135 -9 280 -8
322 2 61 -2 81 -15 94 -15 15 -15 19 -1 41 14 21 15 49 10 206 -4 100 -14 265
-21 367 -8 102 -20 263 -26 358 -7 95 -21 214 -32 265 -11 50 -20 103 -20 117
4 144 2 223 -3 241 -6 19 -4 21 21 17 16 -3 118 -20 226 -38z m4493 -291 c61
-41 83 -69 95 -123 6 -27 16 -58 22 -70 11 -20 10 -20 -8 -6 -64 49 -221 191
-289 261 l-80 82 110 -58 c61 -32 128 -70 150 -86z m-7205 -53 c-63 -505 -87
-1268 -60 -1885 10 -224 12 -235 37 -278 25 -44 26 -47 20 -181 -16 -406 172
-1303 419 -1997 43 -123 176 -460 220 -562 6 -13 7 -13 -196 18 -80 13 -131
26 -144 37 -62 53 -350 323 -541 507 l-220 213 -83 153 c-80 148 -84 160 -117
309 -37 170 -76 397 -100 590 -9 69 -32 240 -51 380 -19 140 -40 327 -46 415
-11 149 -10 165 7 210 20 55 23 117 11 245 -11 116 -11 114 2 210 6 47 19 198
27 335 26 408 64 732 126 1072 l21 112 180 71 c183 73 501 190 505 186 1 -1
-6 -73 -17 -160z m4360 -76 c246 -90 545 -187 776 -251 104 -29 192 -55 196
-58 9 -8 53 -312 77 -531 47 -430 72 -902 74 -1371 l2 -325 -74 -145 c-245
-482 -552 -909 -950 -1319 -89 -92 -120 -118 -116 -100 9 47 35 415 45 643 13
292 13 1013 0 1317 -24 574 -72 1110 -141 1595 -29 197 -92 567 -105 609 -5
15 -3 18 12 11 11 -4 102 -38 204 -75z m3821 -111 c4 -57 8 -137 9 -176 0 -63
-2 -73 -17 -73 -41 1 -73 48 -73 106 0 53 53 265 63 255 5 -5 13 -56 18 -112z
m-9801 95 l35 -6 -56 -116 c-103 -212 -189 -499 -263 -877 -54 -276 -124 -695
-141 -840 -26 -227 -36 -559 -25 -821 10 -233 14 -292 46 -614 32 -330 105
-690 164 -805 11 -21 20 -51 20 -65 0 -58 124 -315 224 -465 71 -106 221 -264
309 -326 97 -69 143 -118 157 -169 17 -63 7 -191 -20 -263 -12 -32 -20 -60
-18 -62 2 -2 77 -42 168 -89 91 -47 162 -86 158 -86 -4 0 -60 16 -125 36 -296
89 -590 233 -756 371 -50 40 -64 60 -93 128 -40 94 -78 158 -195 325 -94 134
-169 264 -169 293 0 24 22 21 80 -8 74 -38 130 -31 130 16 0 10 -42 55 -92
101 -51 45 -125 114 -163 153 -181 180 -330 504 -459 991 -24 94 -68 244 -96
335 -29 90 -54 192 -57 226 -3 34 -9 60 -13 58 -4 -2 -10 20 -14 50 -7 61 6
198 30 313 16 80 88 359 104 407 9 28 10 28 5 -10 -3 -22 -7 -92 -10 -155 l-5
-115 30 110 c17 61 57 199 91 309 54 179 126 458 145 560 8 47 194 422 257
521 25 39 62 96 83 128 96 150 340 398 439 447 44 22 45 22 95 14z m184 -99
c8 -32 -6 -65 -66 -159 -114 -178 -217 -426 -298 -721 -45 -163 -50 -162 -15
3 78 362 196 689 315 875 33 52 51 52 64 2z m627 -111 c-36 -179 -40 -213 -50
-419 -6 -118 -12 -168 -24 -192 -14 -25 -20 -92 -32 -310 -9 -153 -13 -314
-10 -358 5 -59 2 -93 -9 -130 -49 -157 18 -1098 118 -1670 14 -77 24 -141 22
-142 -1 -1 -45 80 -98 180 -263 498 -425 952 -489 1368 -30 192 -33 596 -6
789 33 240 73 416 144 643 39 124 45 153 36 176 l-10 28 216 96 c118 53 217
94 219 92 2 -1 -10 -70 -27 -151z m8602 -118 c70 -26 109 -49 363 -214 95 -61
297 -186 450 -278 154 -92 362 -221 464 -287 383 -248 618 -380 871 -491 245
-106 530 -200 707 -231 l92 -17 138 -128 c261 -241 423 -432 575 -676 21 -34
38 -46 105 -74 77 -32 82 -36 142 -116 176 -238 406 -438 919 -798 360 -252
377 -261 846 -416 360 -120 594 -211 824 -321 392 -189 717 -382 1231 -734
324 -221 389 -275 432 -359 18 -36 20 -51 14 -155 -9 -149 2 -191 99 -386 67
-136 105 -224 105 -246 0 -13 -109 -31 -138 -23 -15 4 -31 6 -37 3 -9 -3 -770
-16 -1015 -17 -52 -1 -147 6 -210 14 -63 7 -157 14 -208 14 -51 0 -154 9 -229
21 -84 13 -167 20 -218 17 -67 -2 -81 0 -73 10 6 7 8 15 5 19 -13 13 -102 21
-115 11 -9 -8 -11 -7 -7 3 4 11 -11 14 -72 15 -43 1 -139 14 -213 28 -193 39
-410 47 -459 17 -21 -13 12 -65 54 -85 39 -19 314 -62 459 -73 89 -6 89 -6 66
-25 -25 -20 -90 -24 -123 -7 -18 10 -24 8 -47 -20 -31 -36 -40 -39 -40 -11 0
26 -30 26 -37 0 -6 -24 -1 -24 -58 1 -48 21 -50 21 -199 5 -187 -20 -233 -20
-315 -1 -62 15 -65 15 -86 -5 -25 -23 -56 -25 -173 -8 -83 12 -84 12 -101 -11
-16 -21 -21 -23 -52 -12 -21 7 -126 12 -264 13 -197 2 -239 0 -295 -16 -36
-10 -69 -18 -75 -17 -5 0 -53 6 -104 12 -72 9 -96 9 -99 1 -3 -9 -52 -12 -165
-12 -362 0 -823 -29 -1023 -63 -38 -7 -81 -10 -95 -6 -40 11 -109 10 -109 -2
0 -16 -50 -2 -75 20 -17 15 -53 20 -220 29 -110 7 -312 25 -450 42 -137 16
-259 31 -270 31 -36 3 106 18 350 39 464 38 779 54 1675 80 904 26 1526 52
1538 64 2 2 -104 7 -235 12 -322 11 -1175 8 -1573 -5 -383 -13 -1313 -48
-1485 -56 -541 -24 -1733 -28 -1708 -5 28 27 119 43 293 51 102 5 700 40 1330
79 1080 66 1993 120 2026 120 11 0 12 4 2 19 -16 26 -56 48 -107 60 -65 14
-1198 -12 -2946 -69 -495 -16 -1066 -34 -1270 -39 -480 -14 -563 -18 -910 -43
-320 -24 -854 -30 -958 -11 -50 9 -63 8 -94 -8 -29 -15 -50 -17 -117 -12 -61
4 -90 2 -118 -10 -34 -14 -36 -14 -41 4 -4 16 -15 19 -75 19 -77 0 -102 6
-102 24 0 18 87 50 245 91 77 20 194 51 260 70 66 19 194 55 285 80 677 191
1086 381 1375 643 460 414 852 1167 1034 1982 102 454 138 930 112 1469 -31
650 -125 1057 -305 1325 -24 36 -42 66 -40 66 2 0 32 -11 67 -24z m-2091 -49
l238 -53 -66 -43 c-84 -56 -139 -124 -155 -195 -10 -46 -9 -68 4 -138 9 -46
24 -157 34 -248 33 -332 -11 -712 -125 -1074 l-19 -58 -6 293 c-10 476 -48
923 -117 1384 -11 72 -23 142 -26 158 -3 15 -4 27 -2 27 2 0 110 -24 240 -53z
m-8022 -51 c0 -2 -41 -88 -91 -192 -172 -358 -297 -659 -401 -964 -53 -156
-138 -448 -158 -545 -7 -33 -17 -64 -21 -69 -15 -17 -282 273 -332 360 -4 7
11 39 33 71 98 147 170 395 205 703 l6 55 67 36 c140 76 296 208 511 432 101
104 117 117 147 117 19 0 34 -2 34 -4z m10031 -137 c143 -330 209 -875 196
-1614 -3 -202 -11 -370 -22 -455 -64 -529 -223 -1032 -501 -1590 -68 -135
-151 -292 -186 -350 -87 -145 -224 -324 -318 -419 -293 -293 -745 -512 -1435
-696 -93 -25 -174 -45 -179 -45 -6 0 17 23 50 52 194 169 389 417 538 684 165
296 309 721 395 1169 18 88 40 192 51 230 11 39 20 79 20 91 0 11 11 54 25 95
84 246 168 592 209 859 42 275 48 367 53 842 5 479 0 596 -38 805 -18 103 -74
321 -94 367 -8 18 -5 19 48 13 217 -26 546 -32 600 -11 12 4 19 -11 31 -66
195 -857 109 -2164 -196 -2980 -140 -374 -436 -1004 -566 -1205 -161 -248
-332 -401 -521 -465 -39 -14 -71 -28 -71 -32 0 -3 15 -17 33 -30 46 -33 124
-31 197 6 150 77 309 221 422 381 142 203 429 776 578 1155 196 499 290 904
346 1485 13 134 18 277 18 560 1 400 -11 576 -55 860 -11 72 -23 146 -26 165
l-5 35 71 18 c83 22 169 75 231 144 25 27 49 46 53 43 4 -4 26 -49 48 -101z
m4675 -95 c21 -50 10 -58 -83 -63 l-77 -3 18 28 c27 44 68 74 99 74 23 0 31
-7 43 -36z m-14229 -486 c-3 -8 -6 -5 -6 6 -1 11 2 17 5 13 3 -3 4 -12 1 -19z
m-4408 -3 c18 10 23 -36 7 -59 -15 -24 -79 -60 -130 -72 l-28 -7 32 44 c23 32
30 51 26 71 -6 32 6 38 52 26 18 -5 36 -6 41 -3z m2646 -198 c7 -27 -50 -193
-60 -177 -13 21 -35 114 -35 148 0 25 6 35 25 44 14 6 25 15 25 20 0 17 40
-13 45 -35z m14671 -84 c-4 -16 -34 -77 -67 -136 -33 -60 -66 -125 -73 -145
-16 -46 -39 -52 -62 -15 -10 15 -24 33 -32 40 -26 21 -2 56 116 171 64 61 118
112 120 112 2 0 1 -12 -2 -27z m-17511 -23 c16 -25 -111 -178 -175 -210 -20
-10 -54 -22 -75 -26 -49 -9 -60 -20 -69 -69 -6 -29 -21 -52 -55 -85 -66 -63
-140 -130 -145 -130 -11 0 15 76 38 109 29 41 177 173 234 208 52 32 57 47 25
78 -18 16 -24 28 -18 33 6 4 32 22 58 40 26 18 62 39 80 47 38 17 93 19 102 5z
m2566 -32 c0 -2 6 -48 14 -103 16 -116 19 -245 6 -245 -10 0 -44 84 -55 135
-10 46 -43 94 -72 105 l-25 10 22 31 c22 32 74 69 97 69 6 0 12 -1 13 -2z
m16898 -88 c63 -29 151 -93 313 -227 79 -66 191 -159 251 -207 59 -48 197
-165 306 -259 109 -95 267 -226 352 -292 198 -154 372 -299 804 -670 668 -573
988 -813 1420 -1061 193 -110 500 -263 590 -293 34 -11 117 -29 185 -41 168
-27 220 -47 561 -210 359 -173 376 -182 619 -340 336 -219 439 -270 910 -450
141 -54 314 -122 385 -153 72 -30 167 -67 213 -82 100 -33 176 -80 180 -114 6
-40 -28 -110 -77 -159 -78 -78 -208 -134 -410 -176 -278 -59 -577 -80 -1051
-73 -388 5 -421 9 -900 106 -395 80 -394 80 -890 73 -203 -3 -233 -2 -304 17
-139 37 -220 108 -285 252 -59 130 -80 286 -58 425 l8 51 -52 64 c-75 91 -234
246 -342 331 -241 193 -459 328 -917 568 -118 62 -279 148 -357 191 -194 107
-420 219 -529 263 -50 20 -199 65 -330 101 -342 94 -556 161 -638 200 -40 19
-117 71 -176 120 -58 47 -194 153 -302 235 -279 212 -424 334 -573 484 -127
128 -245 264 -245 283 0 5 21 29 46 53 25 25 124 135 219 246 96 111 204 229
242 264 140 129 305 241 590 399 61 35 119 71 129 82 22 24 57 24 113 -1z
m-17113 -97 c0 -21 3 -51 7 -68 l7 -30 -30 33 c-31 34 -39 69 -18 90 22 22 33
13 34 -25z m15332 -40 c-5 -21 -25 -72 -43 -113 -18 -41 -37 -92 -40 -112 -4
-21 -10 -38 -14 -38 -3 0 -19 12 -35 26 l-29 26 20 42 c18 37 139 206 148 206
2 0 -1 -17 -7 -37z m-15535 -81 c30 -33 67 -129 92 -241 14 -63 23 -116 20
-119 -3 -3 -18 3 -33 15 -26 19 -48 45 -122 149 -21 30 -52 58 -80 72 -25 12
-45 28 -45 35 0 6 27 26 60 44 33 17 64 39 70 47 13 20 18 20 38 -2z m-102
-338 c26 -49 50 -99 54 -112 l7 -23 -49 25 c-26 14 -61 34 -78 45 -49 33 -140
128 -163 170 l-23 40 40 20 c22 12 43 26 47 33 13 20 115 -102 165 -198z
m-337 38 c4 -10 38 -57 77 -103 77 -92 114 -149 124 -191 9 -37 -2 -36 -85 8
-84 44 -185 127 -227 186 l-33 46 48 30 c44 28 68 39 84 41 4 1 9 -7 12 -17z
m902 -96 c15 -60 -38 -166 -130 -259 -305 -310 -919 -553 -1313 -521 -46 4
-83 10 -83 14 0 13 85 39 229 70 138 31 229 65 268 102 30 28 29 44 -3 65 -25
16 -25 17 -8 31 55 42 84 47 314 52 202 4 228 7 258 25 31 19 33 23 27 60 -3
22 -13 47 -21 56 -13 15 -9 17 42 22 38 4 89 21 155 53 110 53 110 53 84 140
-21 69 -20 75 11 64 31 -12 94 -13 112 -1 7 4 14 18 15 29 2 30 35 29 43 -2z
m-1113 -102 c72 -37 157 -123 157 -161 0 -23 -115 -14 -253 20 l-127 32 21 42
c11 23 35 51 52 62 39 25 106 27 150 5z m1799 -165 c33 -18 57 -90 69 -203 6
-58 9 -113 7 -121 -2 -9 -27 31 -57 88 -53 104 -70 169 -57 221 7 29 9 30 38
15z m-574 -107 c86 -88 171 -149 266 -191 55 -25 64 -33 70 -62 41 -189 46
-386 19 -681 -22 -251 -22 -565 0 -683 27 -140 41 -180 65 -183 23 -4 42 -25
98 -112 34 -52 36 -60 35 -136 0 -96 -10 -143 -56 -284 -57 -171 -64 -224 -75
-520 -5 -151 -12 -287 -16 -303 -5 -23 -11 -27 -37 -27 -18 1 -58 7 -90 15
-33 7 -65 11 -73 8 -18 -7 -26 -40 -22 -84 5 -58 89 -89 300 -110 68 -6 131
-15 141 -18 24 -9 -191 -78 -290 -94 -82 -13 -87 -20 -56 -84 29 -62 78 -76
283 -81 96 -2 182 -8 189 -12 29 -16 -63 -31 -239 -40 -144 -7 -189 -13 -255
-34 -92 -30 -127 -32 -145 -11 -9 11 -33 15 -85 15 -64 0 -74 -3 -89 -23 -14
-20 -16 -21 -26 -5 -15 24 -37 23 -45 -2 -8 -25 -27 -25 -50 0 -26 29 -94 26
-211 -11 -108 -33 -214 -49 -214 -31 0 6 5 14 10 17 6 3 10 13 10 21 0 12 -5
12 -32 -3 -18 -9 -69 -20 -113 -23 -44 -4 -89 -10 -100 -14 -16 -6 -17 -6 -5
3 24 17 2 13 -26 -5 -23 -16 -29 -16 -85 1 -56 17 -63 17 -107 3 -31 -11 -102
-19 -207 -23 -88 -3 -225 -11 -305 -16 -80 -6 -199 -12 -264 -13 -79 0 -121
-5 -123 -12 -3 -8 -15 -9 -41 -3 -20 5 -174 9 -342 9 -168 0 -311 4 -319 9
-21 13 89 82 186 117 43 15 88 31 101 35 31 12 28 23 -18 73 -81 88 -196 128
-475 166 -178 25 -296 48 -310 61 -5 6 5 24 29 48 l39 39 -53 57 c-91 95 -209
137 -480 170 -271 33 -405 65 -470 115 l-25 19 47 68 c121 175 263 334 607
678 l270 269 15 -34 c8 -19 17 -62 20 -95 12 -109 17 -125 44 -150 44 -41 127
-68 212 -69 116 -1 167 36 178 129 5 44 5 45 27 31 39 -26 127 -45 235 -51
169 -10 214 -21 327 -81 l103 -54 103 1 c56 0 127 5 157 10 30 5 179 13 330
17 248 7 279 10 320 29 54 25 93 64 115 117 l17 39 -49 71 c-119 174 -290 256
-738 350 -350 74 -302 52 -384 176 -116 175 -164 301 -164 431 -1 113 31 172
180 336 114 124 163 196 163 237 0 20 -2 21 123 -13 129 -34 238 -44 417 -38
253 9 480 64 743 182 196 87 491 280 596 389 19 20 36 36 38 36 2 0 39 -35 81
-78z m-1398 39 c61 -16 114 -31 116 -34 3 -3 -15 -14 -39 -26 -37 -18 -61 -21
-158 -20 -63 0 -133 4 -157 7 l-43 7 23 35 c47 69 91 74 258 31z m19827 -72
c149 -36 235 -75 653 -297 63 -34 178 -86 255 -117 151 -60 205 -91 231 -131
23 -35 13 -44 -117 -100 -140 -61 -183 -87 -209 -129 -13 -21 -26 -32 -33 -28
-27 16 -569 453 -647 522 -105 91 -310 293 -310 304 0 11 74 1 177 -24z
m-19979 -134 c30 -8 56 -16 58 -18 3 -2 -6 -18 -20 -34 -33 -39 -81 -51 -228
-57 -132 -5 -137 -2 -98 61 42 70 138 86 288 48z m2125 -412 c2 -32 -4 -48
-20 -64 l-21 -21 -12 22 c-17 31 -24 126 -15 196 l7 59 30 -75 c16 -41 30 -94
31 -117z m316 -165 c26 -76 26 -109 3 -138 -19 -23 -19 -23 -25 61 -8 97 -9
139 -3 139 2 0 14 -28 25 -62z m18836 10 c53 -24 23 -77 -53 -93 -42 -9 -242
5 -242 16 0 13 70 55 121 73 53 18 138 20 174 4z m-18697 -567 c121 -189 136
-229 137 -356 1 -93 3 -105 34 -165 34 -66 134 -216 157 -236 42 -34 192 -252
234 -339 45 -93 87 -221 77 -231 -2 -3 -21 18 -41 46 -20 27 -43 50 -51 50 -9
0 -39 -25 -69 -55 -74 -77 -87 -74 -128 27 -36 89 -71 133 -112 144 -51 13
-83 -29 -113 -146 l-9 -35 -22 45 c-12 25 -40 115 -63 200 -61 227 -60 204 -8
197 75 -10 76 -5 31 129 -73 217 -134 503 -167 789 -19 163 -19 169 4 119 10
-22 59 -104 109 -183z m-3497 137 c9 -7 25 -49 37 -94 34 -133 109 -291 203
-426 3 -5 59 -20 125 -33 132 -27 220 -52 337 -97 65 -25 77 -33 77 -53 0 -12
7 -39 15 -58 20 -48 19 -77 -2 -77 -30 0 -97 39 -163 96 -81 69 -111 85 -161
86 -47 0 -53 -4 -44 -31 12 -40 60 -84 155 -146 94 -61 150 -113 150 -140 0
-19 -76 -29 -154 -21 -68 7 -164 34 -326 91 -94 34 -119 38 -240 44 -79 4
-145 13 -160 20 -14 8 -57 45 -96 82 -67 64 -75 69 -115 69 -24 0 -49 -4 -55
-8 -23 -15 -34 -53 -34 -122 0 -76 -21 -145 -42 -138 -7 3 -22 18 -34 35 -17
25 -22 54 -28 143 -3 61 -13 129 -20 151 l-14 41 132 131 c73 73 195 207 271
300 77 93 145 167 155 167 9 0 23 -6 31 -12z m3146 -242 c6 -82 -8 -167 -38
-234 -18 -41 -22 -44 -29 -27 -13 31 -11 97 7 265 l17 154 19 -43 c10 -24 21
-75 24 -115z m278 -526 c20 -58 39 -113 42 -123 4 -14 -4 -21 -36 -34 l-41
-16 0 -66 c0 -41 12 -115 31 -191 22 -92 29 -141 26 -185 -3 -54 -1 -65 29
-110 18 -27 54 -101 80 -163 51 -123 101 -205 128 -210 86 -17 125 71 101 229
-7 51 -12 95 -10 97 5 5 84 -96 101 -131 16 -30 16 -104 0 -139 -7 -16 -2 -18
45 -18 29 0 89 5 134 12 90 13 126 7 157 -24 l21 -21 -22 -18 c-39 -32 -110
-39 -318 -33 -289 10 -537 -23 -772 -102 -77 -25 -107 -32 -117 -23 -39 33
-51 188 -19 249 14 27 19 58 19 130 1 87 4 101 34 163 27 55 38 67 57 67 30 0
37 -12 46 -79 4 -29 12 -58 18 -64 16 -16 41 1 57 40 13 31 14 49 5 109 -11
75 -7 193 24 759 8 149 15 322 16 385 l0 115 64 -250 c34 -137 79 -297 100
-355z m-2343 -81 c138 -33 178 -72 128 -123 -25 -25 -118 -32 -180 -14 -43 13
-45 15 -52 62 -3 26 -11 61 -17 78 -10 29 -9 30 12 24 12 -4 61 -16 109 -27z
m10493 -99 c-10 -11 -23 -20 -29 -20 -6 1 0 10 13 20 30 26 39 26 16 0z
m-8460 -400 c9 -27 -3 -60 -22 -60 -10 0 -13 6 -9 16 3 9 6 27 6 40 0 29 16
32 25 4z m1082 -162 c66 -37 112 -89 128 -142 18 -61 19 -56 -2 -56 -27 0 -71
33 -97 71 -24 35 -78 149 -71 149 2 0 21 -10 42 -22z m663 -455 c176 -43 418
-124 395 -133 -25 -9 -221 -28 -420 -40 -297 -19 -589 -11 -1150 30 -386 28
-406 30 -375 42 90 35 176 41 555 43 320 1 392 4 455 18 73 17 176 60 214 89
16 13 31 12 120 -4 55 -11 148 -31 206 -45z m944 -120 c61 -25 113 -47 116
-50 13 -14 -127 8 -235 37 -163 44 -155 40 -120 56 45 20 113 7 239 -43z
m-2620 -129 c20 -7 21 -20 3 -27 -19 -7 -41 8 -33 22 8 13 9 13 30 5z m6816
-23 c0 -14 -10 -21 -37 -26 -21 -3 -49 -9 -63 -11 -14 -3 -2 8 30 25 66 36 70
37 70 12z m5145 -61 c-3 -5 -12 -10 -18 -10 -7 0 -6 4 3 10 19 12 23 12 15 0z
m-185 -4 c0 -19 -273 -53 -571 -71 -140 -9 -381 -27 -536 -40 -327 -29 -502
-31 -644 -9 l-101 16 -70 -27 -69 -27 -16 22 -16 23 -17 -24 -18 -23 -60 27
c-43 19 -77 27 -123 28 -60 1 -62 2 -24 9 120 24 664 55 1235 70 418 12 913
26 988 28 23 1 42 0 42 -2z m80 -6 c-20 -13 -33 -13 -25 0 3 6 14 10 23 10 15
0 15 -2 2 -10z m-2243 -156 c-3 -3 -12 -4 -19 -1 -8 3 -5 6 6 6 11 1 17 -2 13
-5z m-9402 -29 c-33 -15 -125 -20 -125 -7 0 18 16 22 84 21 68 -1 70 -1 41
-14z m1670 -5 c306 -10 574 -22 790 -36 111 -8 104 -17 -19 -28 -45 -4 -95
-15 -117 -26 -37 -19 -38 -19 -82 0 -41 18 -63 20 -241 16 -172 -3 -199 -6
-216 -21 -16 -14 -23 -16 -32 -7 -9 9 -9 12 2 13 8 0 2 7 -15 14 -48 22 -92
18 -131 -12 -22 -16 -48 -26 -67 -26 -18 0 -37 -4 -44 -9 -7 -5 -17 -7 -23 -3
-15 9 -1 28 16 21 9 -3 14 2 14 14 0 27 -21 25 -82 -7 l-51 -27 -18 23 c-19
23 -39 21 -39 -4 0 -9 -9 -5 -25 10 -17 18 -35 25 -63 25 -42 0 -62 -15 -65
-49 -1 -22 -6 -25 -31 -15 -17 7 -22 34 -6 34 6 0 10 7 10 15 0 11 -12 15 -46
15 -39 0 -45 -2 -35 -14 9 -11 9 -20 -1 -38 -7 -13 -14 -25 -15 -27 -1 -2 -25
5 -52 15 -40 14 -55 15 -75 6 -24 -11 -25 -10 -20 18 6 26 4 28 -17 23 -13 -3
-33 -16 -44 -29 -20 -23 -23 -23 -81 -12 -57 10 -62 10 -83 -11 -12 -12 -29
-20 -39 -17 -9 3 -28 8 -42 11 -16 4 -39 26 -60 57 -19 27 -43 56 -54 64 -24
17 -39 15 174 24 265 10 681 11 1025 0z m-10 -100 c0 -8 -8 -16 -17 -18 -13
-2 -18 3 -18 18 0 15 5 20 18 18 9 -2 17 -10 17 -18z m14990 10 c-3 -5 -11
-10 -16 -10 -6 0 -7 5 -4 10 3 6 11 10 16 10 6 0 7 -4 4 -10z m-14928 -30 c22
-17 23 -21 9 -26 -19 -7 -46 12 -46 32 0 19 7 18 37 -6z m-519 -9 c3 -8 -1
-12 -9 -9 -7 2 -15 10 -17 17 -3 8 1 12 9 9 7 -2 15 -10 17 -17z m614 -13 c-9
-9 -15 -9 -24 0 -9 9 -7 12 12 12 19 0 21 -3 12 -12z m12713 -78 c4 -6 -7 -10
-25 -10 -18 0 -29 4 -25 10 3 6 15 10 25 10 10 0 22 -4 25 -10z m-10055 -30
c0 -5 -4 -10 -10 -10 -5 0 -10 5 -10 10 0 6 5 10 10 10 6 0 10 -4 10 -10z
m4548 -2 c-6 -18 -28 -21 -28 -4 0 9 7 16 16 16 9 0 14 -5 12 -12z m6417 -7
c7 -12 -12 -24 -25 -16 -11 7 -4 25 10 25 5 0 11 -4 15 -9z m-6135 -11 c0 -5
-7 -10 -15 -10 -8 0 -15 5 -15 10 0 6 7 10 15 10 8 0 15 -4 15 -10z m277 -26
c-3 -3 -12 -4 -19 -1 -8 3 -5 6 6 6 11 1 17 -2 13 -5z m130 -30 c-3 -3 -12 -4
-19 -1 -8 3 -5 6 6 6 11 1 17 -2 13 -5z m3893 -48 c118 -14 232 -26 253 -26
43 0 48 -12 12 -28 -33 -15 -70 -15 -168 0 -81 12 -87 10 -100 -27 -2 -6 -26
1 -53 15 -27 13 -67 26 -89 27 -22 1 -62 5 -89 9 -27 4 -92 1 -145 -5 -114
-14 -176 -6 -176 24 0 11 -3 25 -8 32 -5 8 4 13 30 15 72 6 318 -11 533 -36z
m5034 28 c5 -12 -2 -15 -41 -12 -62 4 -71 28 -10 28 31 0 47 -5 51 -16z m3293
10 c-3 -3 -12 -4 -19 -1 -8 3 -5 6 6 6 11 1 17 -2 13 -5z m-21257 -14 c-20
-13 -43 -13 -35 0 3 6 16 10 28 10 18 0 19 -2 7 -10z m295 -1 c10 -14 1 -21
-19 -13 -9 3 -13 10 -10 15 7 12 21 11 29 -2z m-2195 -9 c-8 -5 -19 -10 -25
-10 -5 0 -3 5 5 10 8 5 20 10 25 10 6 0 3 -5 -5 -10z m-485 -10 c-3 -5 -11
-10 -16 -10 -6 0 -7 5 -4 10 3 6 11 10 16 10 6 0 7 -4 4 -10z m3000 0 c-3 -5
-14 -10 -23 -10 -15 0 -15 2 -2 10 20 13 33 13 25 0z m18785 -11 c0 -5 -4 -9
-10 -9 -5 0 -10 7 -10 16 0 8 5 12 10 9 6 -3 10 -10 10 -16z m-9130 -9 c0 -5
-8 -10 -17 -10 -15 0 -16 2 -3 10 19 12 20 12 20 0z m6550 -10 c0 -5 -8 -10
-17 -10 -15 0 -16 2 -3 10 19 12 20 12 20 0z m-19920 -10 c0 -5 -8 -10 -17
-10 -15 0 -16 2 -3 10 19 12 20 12 20 0z m-80 -4 c0 -2 -7 -6 -15 -10 -8 -3
-15 -1 -15 4 0 6 7 10 15 10 8 0 15 -2 15 -4z m16565 -16 c-3 -5 -33 -10 -66
-10 -38 0 -58 4 -54 10 3 6 33 10 66 10 38 0 58 -4 54 -10z m4605 0 c0 -5 -12
-10 -27 -10 -22 0 -25 2 -13 10 20 13 40 13 40 0z m-5425 -10 c-28 -12 -37
-12 -30 0 3 6 16 10 28 9 21 0 21 -1 2 -9z m5925 0 c0 -5 -8 -10 -17 -10 -15
0 -16 2 -3 10 19 12 20 12 20 0z m2375 0 c-3 -5 -14 -10 -23 -10 -15 0 -15 2
-2 10 20 13 33 13 25 0z m-2435 -4 c0 -2 -7 -7 -16 -10 -8 -3 -12 -2 -9 4 6
10 25 14 25 6z m425 -16 c-3 -5 -15 -10 -26 -10 -11 0 -17 5 -14 10 3 6 15 10
26 10 11 0 17 -4 14 -10z m-245 -14 c0 -2 -9 -6 -20 -9 -11 -3 -20 -1 -20 4 0
5 9 9 20 9 11 0 20 -2 20 -4z m3230 -45 c0 -13 -29 -35 -37 -28 -7 8 15 37 28
37 5 0 9 -4 9 -9z m-26360 -15 c0 -2 -7 -7 -16 -10 -8 -3 -12 -2 -9 4 6 10 25
14 25 6z m-262 -28 c-7 -19 -38 -22 -38 -4 0 10 9 16 21 16 12 0 19 -5 17 -12z
m-332 -53 c-22 -17 -52 -20 -60 -6 -8 12 11 19 49 20 29 0 29 0 11 -14z"/>
<path d="M13481 10945 c-18 -9 -70 -50 -115 -93 -44 -43 -128 -118 -186 -167
-290 -247 -457 -445 -566 -668 l-45 -92 28 -7 c84 -23 180 56 238 195 14 33
14 37 0 37 -9 0 -27 -12 -41 -27 -16 -17 -28 -23 -34 -17 -21 21 284 394 321
394 11 0 -31 -84 -168 -337 -223 -414 -301 -642 -306 -898 -2 -80 1 -97 19
-121 11 -15 25 -29 30 -31 6 -2 20 55 33 133 39 238 104 438 246 750 65 144
94 196 138 248 70 83 129 167 196 278 40 67 69 101 129 152 42 36 95 88 117
117 42 55 85 134 85 156 0 18 -75 17 -119 -2z"/>
<path d="M3843 7952 c-7 -5 20 -70 87 -204 112 -227 143 -321 144 -448 1 -81
-1 -89 -36 -152 -21 -36 -38 -80 -38 -96 0 -40 23 -58 58 -46 32 11 89 117
123 228 39 123 10 280 -86 465 -84 163 -204 283 -252 253z"/>
<path d="M17182 5503 c2 -10 14 -20 27 -21 19 -3 22 0 17 13 -3 9 -6 19 -6 21
0 2 -9 4 -21 4 -14 0 -19 -5 -17 -17z"/>
<path d="M2370 2062 c0 -40 40 -72 98 -79 28 -3 52 -9 52 -14 0 -4 26 -11 58
-15 31 -4 67 -10 80 -15 13 -5 22 -5 22 1 0 6 -8 10 -18 10 -10 0 -23 5 -29
11 -5 5 -32 13 -59 17 -40 6 -49 11 -49 27 0 18 8 20 65 23 58 3 90 14 90 31
0 3 -37 6 -82 6 -46 1 -116 5 -155 9 -70 9 -73 8 -73 -12z"/>
<path d="M2695 2052 c-8 -8 16 -67 35 -87 39 -42 127 -55 205 -31 l40 13 -40
7 c-92 16 -81 46 17 46 31 0 60 5 63 10 8 13 61 13 87 -1 17 -9 19 -8 16 8 -4
21 -56 30 -87 14 -13 -7 -28 -7 -48 -1 -27 10 -281 29 -288 22z"/>
<path d="M3168 2039 c-16 -11 -28 -24 -28 -27 0 -6 126 0 185 8 14 1 -59 27
-98 34 -23 4 -40 0 -59 -15z"/>
<path d="M3390 2023 c0 -1 13 -9 30 -18 35 -18 53 -19 138 -4 93 16 58 30 -67
27 -56 -2 -101 -4 -101 -5z"/>
<path d="M3635 2010 c-8 -13 20 -24 41 -16 20 8 9 26 -16 26 -10 0 -22 -5 -25
-10z"/>
<path d="M4371 1891 c-16 -10 -6 -31 15 -31 8 0 14 9 14 20 0 22 -7 25 -29 11z"/>
<path d="M4062 1883 c-19 -3 -32 -9 -29 -16 6 -19 23 -18 48 2 13 11 22 20 19
19 -3 -1 -20 -3 -38 -5z"/>
<path d="M4205 1880 c-4 -6 15 -10 49 -10 31 0 56 5 56 10 0 6 -22 10 -49 10
-28 0 -53 -4 -56 -10z"/>
<path d="M3397 1868 c-35 -6 -56 -15 -54 -22 13 -40 170 -60 247 -31 25 10 64
17 87 16 32 -1 44 3 52 17 9 18 8 18 -30 8 -35 -9 -42 -8 -50 7 -8 14 -24 17
-102 16 -51 -1 -118 -6 -150 -11z"/>
<path d="M3946 1863 c-11 -11 -6 -23 9 -23 8 0 15 4 15 9 0 13 -16 22 -24 14z"/>
<path d="M3780 1850 c-13 -8 -13 -10 2 -10 9 0 20 5 23 10 8 13 -5 13 -25 0z"/>
<path d="M4750 660 c-11 -6 -12 -12 -4 -20 13 -13 46 -2 41 13 -5 15 -20 18
-37 7z"/>
<path d="M6778 628 c6 -6 18 -8 28 -6 14 3 12 5 -9 10 -19 3 -25 2 -19 -4z"/>
<path d="M6890 630 c-13 -8 -13 -10 2 -10 9 0 20 5 23 10 8 13 -5 13 -25 0z"/>
<path d="M6705 620 c-3 -5 3 -10 15 -10 12 0 18 5 15 10 -3 6 -10 10 -15 10
-5 0 -12 -4 -15 -10z"/>
<path d="M21975 470 c-8 -13 5 -13 25 0 13 8 13 10 -2 10 -9 0 -20 -4 -23 -10z"/>
<path d="M21782 454 c-17 -19 -5 -39 14 -23 15 12 19 39 7 39 -5 -1 -14 -7
-21 -16z"/>
<path d="M22085 460 c-16 -7 -17 -9 -3 -9 9 -1 20 4 23 9 7 11 7 11 -20 0z"/>
<path d="M22297 452 c-22 -25 -21 -29 8 -34 20 -4 23 -3 14 8 -6 8 -9 21 -5
29 7 20 3 19 -17 -3z"/>
<path d="M22215 450 c-3 -6 1 -13 10 -16 19 -8 30 0 20 15 -8 14 -22 14 -30 1z"/>
<path d="M22570 450 c-13 -8 -12 -10 3 -10 9 0 17 5 17 10 0 12 -1 12 -20 0z"/>
<path d="M22640 423 c-42 -14 -42 -17 -5 -23 22 -3 50 -10 63 -14 16 -5 22 -3
22 8 0 26 -43 42 -80 29z"/>
<path d="M22941 411 c-8 -5 -11 -16 -6 -31 5 -17 12 -21 33 -17 l27 5 -23 -18
c-12 -10 -22 -22 -22 -27 0 -17 49 -33 98 -33 74 0 78 10 20 60 -78 68 -99 78
-127 61z"/>
<path d="M22800 381 l0 -28 48 15 c56 18 56 18 47 32 -5 8 -11 8 -21 -1 -11
-9 -18 -9 -26 -1 -23 23 -48 14 -48 -17z"/>
<path d="M22640 344 c-14 -8 -44 -19 -67 -24 -83 -21 -45 -30 117 -30 97 0
160 4 160 10 0 5 -11 17 -24 26 -23 14 -27 14 -54 -6 -36 -27 -85 -24 -90 5
-6 30 -14 34 -42 19z"/>
<path d="M22477 328 c-5 -19 -10 -20 -61 -14 -63 7 -70 -1 -31 -39 23 -24 46
-33 44 -17 -4 26 2 29 41 19 48 -13 56 -7 40 33 -16 39 -26 45 -33 18z"/>
<path d="M22740 340 c-13 -8 -12 -10 3 -10 9 0 17 5 17 10 0 12 -1 12 -20 0z"/>
<path d="M22886 324 c-23 -23 -20 -37 7 -28 24 7 38 24 31 36 -8 12 -21 10
-38 -8z"/>
<path d="M22115 296 c-45 -14 -105 -44 -105 -52 0 -13 288 20 303 35 13 13
-51 31 -107 30 -28 0 -69 -6 -91 -13z"/>
<path d="M21627 293 c-14 -13 -6 -33 13 -33 13 0 20 -7 20 -20 0 -16 6 -20 33
-19 42 1 100 22 105 38 4 11 -11 12 -67 6 -68 -7 -71 -6 -71 14 0 20 -19 28
-33 14z"/>
<path d="M21870 265 c-14 -8 -35 -14 -47 -15 -16 0 -23 -6 -23 -20 0 -24 11
-25 55 -4 40 19 76 54 54 54 -8 -1 -25 -7 -39 -15z"/>
<path d="M23950 250 c0 -5 11 -10 24 -10 14 0 28 5 31 10 4 6 -7 10 -24 10
-17 0 -31 -4 -31 -10z"/>
<path d="M27825 240 c-3 -5 3 -10 14 -10 11 0 23 5 26 10 3 6 -3 10 -14 10
-11 0 -23 -4 -26 -10z"/>
<path d="M28080 210 c0 -5 7 -7 15 -4 8 4 15 8 15 10 0 2 -7 4 -15 4 -8 0 -15
-4 -15 -10z"/>
<path d="M28440 205 c0 -8 5 -15 10 -15 6 0 10 7 10 15 0 8 -4 15 -10 15 -5 0
-10 -7 -10 -15z"/>
<path d="M28525 180 c-8 -13 5 -13 25 0 13 8 13 10 -2 10 -9 0 -20 -4 -23 -10z"/>
</g>
</svg>
