<?xml version="1.0" encoding="utf-8"?>
<!-- Designed by Vexels.com - 2019 All Rights Reserved - https://vexels.com/terms-and-conditions/  -->
<svg version="1.1" id="Layer_1" xmlns="http://www.w3.org/2000/svg" xmlns:xlink="http://www.w3.org/1999/xlink" x="0px" y="0px"
	 viewBox="0 0 1200 1200" enable-background="new 0 0 1200 1200" xml:space="preserve">
<g>
	<path fill="#2C3B84" d="M169.768,774.302c-0.677-1.278-0.567-2.671-0.47-3.9l0.042-0.546c0.17-2.729,0.58-5.068,1.249-7.151
		c1.249-3.874,4.308-5.316,7.431-6.299c1.252-0.395,2.713-0.836,4.213-1.087c1.163-0.191,2.251-0.141,3.306-0.091
		c0.413,0.021,0.834,0.039,1.26,0.044c1.911,0.039,3.97-0.12,5.926-0.254c1.145-0.078,2.29-0.159,3.427-0.209
		c7.005-0.303,14.018-0.455,19.345-0.552l7.826-0.133c4.101-0.065,8.202-0.131,12.303-0.22l0.538-0.01
		c6.435-0.141,13.082-0.288,19.643,0.314c6.984,0.64,13.304,1.145,19.902,0.829c47.294-2.222,95.799-0.881,142.704,0.421
		c25.895,0.721,52.671,1.464,78.851,1.592c75.152,0.366,151.434,0.217,226.72-0.437c52.478-0.455,95.104-1.161,134.144-2.222
		c13.537-0.369,27.071-0.776,40.606-1.229c3.685-0.123,7.368-0.269,11.056-0.418c9.669-0.389,19.651-0.802,29.51-0.706
		c4.046,0.037,8.137,0.227,12.091,0.41c2.695,0.128,5.39,0.254,8.087,0.332c3.474,0.102,6.911-0.005,10.115-0.139
		c1.856-0.073,3.654-0.042,5.173,0.003c0.431,0.021,0.902,0,1.393-0.016c1.137-0.037,2.433-0.076,3.516,0.22
		c3.048,0.839,3.338,4.088,3.529,6.239l0.023,0.259c0.084,0.896,0.094,1.824,0.105,2.76c0.021,1.997,0.042,3.881,0.774,5.518
		c0.766,1.72,2.329,2.985,4.18,3.382c0.912,0.193,1.864,0.183,2.875,0.172c0.434-0.008,0.878-0.01,1.317,0.003
		c1.43,0.042,2.951,0.167,4.791,0.395c1.989,0.246,3.973,0.518,5.957,0.787c4.462,0.609,9.078,1.239,13.649,1.56
		c6.514,0.455,12.818,0.217,19.496-0.037l0.839-0.047c2.115-0.131,5.664-0.35,6.511,2.888c0.376,1.432,0.348,2.954,0.321,4.425
		l-0.013,1.119c0.003,1.579,0.05,3.155,0.125,4.728c0.222,4.697,0.75,9.462,1.257,14.073c0.209,1.895,0.418,3.793,0.609,5.693
		c0.384,3.842,0.632,6.971,0.779,9.844c0.058,1.106,0.094,2.209,0.131,3.309c0.071,2.23,0.146,4.532,0.4,6.772
		c0.047,0.439,0.086,0.886,0.128,1.338c0.212,2.407,0.41,4.684,2.091,6.142c1.584,1.377,3.774,1.401,6.048,1.362
		c0.165,0,0.332,0,0.497,0c0.287,0,0.575,0.003,0.857,0.008l2.457,0.052c5.685,0.112,11.561,0.227,17.306,1.168
		c6.671,1.095,13.001,1.66,19.358,1.728c5.003,0.06,10.147-0.123,15.105-0.295l6.9-0.217c2.708-0.078,5.413-0.157,8.116-0.295
		c0.384-0.018,0.787-0.024,1.197-0.029c1.14-0.018,2.321-0.034,3.231-0.369c0.943-0.345,1.733-1.195,2.449-2.062
		c1.754-2.135,2.196-4.59,2.554-7.347c0.437-3.32,0.376-6.605,0.248-9.663c-0.337-8.129-0.51-14.379-0.559-20.265
		c-0.057-6.882,0.287-13.848,0.62-20.584c0.319-6.501,0.651-13.221,0.619-19.836c-0.021-4.297-0.246-8.662-0.463-12.883
		c-0.125-2.415-0.251-4.83-0.34-7.251c-0.183-4.992,0.118-10.05,0.408-14.943c0.105-1.749,0.209-3.497,0.29-5.243
		c0.687-14.501,1.077-27.748,1.184-40.504c0.01-1.242-0.018-2.554-0.51-3.777c-0.217-0.546-0.554-1.056-0.912-1.594
		c-0.369-0.552-0.729-1.103-1.004-1.715c-1.077-2.407-0.852-5.201-0.653-7.664c0.052-0.646,0.104-1.281,0.131-1.895l0.235-5.055
		c0.235-4.924,0.478-10.019,0.58-15.022c0.115-5.531,0.107-11.164,0.097-16.608c-0.013-7.664-0.026-15.589,0.306-23.386
		c0.186-4.368,0.442-8.733,0.698-13.098c0.141-2.379,0.282-4.757,0.41-7.136l0.29-5.729c0.039-0.826,0.081-1.762,0.353-2.648
		c0.638-2.081,2.499-2.724,3.994-3.239c0.502-0.173,1.069-0.327,1.662-0.486c1.872-0.507,3.991-1.079,4.608-2.559
		c0.376-0.907,0.395-2.094,0.413-3.241c0.005-0.34,0.01-0.672,0.023-0.991c0.026-0.575,0.029-1.158,0.031-1.738
		c0.005-1.009,0.01-2.018,0.115-3.008c0.102-0.965,0.476-1.79,0.805-2.52c0.24-0.531,0.468-1.032,0.578-1.539
		c0.18-0.836,0.112-1.924,0.045-2.975c-0.034-0.557-0.068-1.098-0.068-1.6v-5.052c0-1.249-0.455-2.237-1.032-3.492l-0.327-0.716
		c-0.47-1.051-0.957-2.138-1.756-2.771c-0.682-0.536-1.631-0.664-2.637-0.8l-0.57-0.078c-0.369-0.057-0.792-0.091-1.234-0.128
		c-1.304-0.112-2.779-0.238-3.853-0.863c-1.485-0.86-1.641-2.768-1.746-4.031c-0.167-1.932-0.162-3.675-0.157-5.361
		c0.005-1.537,0.01-3.129-0.104-4.663c-0.191-2.522-0.47-5.037-0.748-7.549l-0.23-2.091c-0.178-1.665-0.35-3.327-0.481-4.998
		c-0.092-1.142-0.199-2.441-0.755-3.419c-1.127-1.987-3.197-2.013-5.594-2.041l-0.933-0.016c-1.78-0.05-3.552-0.081-5.34-0.055
		c-1.147,0.016-2.096,0.065-2.974,0.559c-1.636,0.917-2.452,2.528-2.648,5.222c-0.334,4.66-0.361,9.452-0.387,14.083
		c-0.01,1.903-0.021,3.8-0.052,5.695c-0.037,2.224-0.057,4.451-0.076,6.678c-0.037,4.391-0.076,8.934-0.261,13.398
		c-0.052,1.317-0.099,2.439-1.297,3.526c-1.022,0.928-2.172,0.983-3.189,1.032l-0.596,0.034l-10.204,0.808
		c-0.376,0.029-0.758,0.071-1.142,0.112c-1.479,0.159-3.011,0.332-4.535-0.081l-5.656-1.524c-1.286-0.348-2.577-0.695-3.879-0.978
		c-0.397-0.084-0.849-0.133-1.317-0.183c-1.019-0.115-2.177-0.243-3.095-0.737c-1.707-0.917-1.919-2.703-2.031-3.662
		c-0.209-1.704-0.233-3.374-0.227-4.924c0.003-3.429,0.005-6.861,0.026-10.293c0.05-8.184,0.193-14.457,0.46-20.343
		c0.047-0.98,0.102-1.96,0.154-2.941c0.123-2.18,0.243-4.362,0.261-6.545c0.024-2.794-0.097-5.431-1.827-7.018
		c-1.66-1.524-4.593-1.647-7.274-1.605c-1.903,0.016-3.722,0.954-4.995,2.572c-1.406,1.793-1.456,3.892-1.511,6.32
		c-0.029,1.443-0.036,2.846-0.044,4.247c-0.01,1.864-0.021,3.73-0.081,5.594c-0.233,7.117-0.795,14.245-1.299,20.372
		c-0.029,0.337-0.044,0.698-0.063,1.069c-0.102,2.25-0.259,5.651-3.657,6.299c-2.69,0.515-5.581-0.11-8.137-0.659
		c-0.52-0.112-1.03-0.222-1.532-0.321c-6.205-1.229-12.246-2.763-19.408-4.687c-6.161-1.657-12.45-2.943-18.689-3.827
		c-2.972-0.418-6.022-0.677-8.973-0.925c-3.471-0.295-7.057-0.599-10.576-1.166c-5.957-0.959-11.906-1.953-17.855-2.948
		c-7.206-1.208-14.41-2.413-21.627-3.552c-3.806-0.601-7.617-1.294-11.433-1.989c-9.07-1.652-18.448-3.359-27.73-3.735
		c-5.398-0.222-10.74-1.195-15.905-2.138l-3.361-0.606c-2.873-0.504-5.745-0.998-8.62-1.492l-1.43-0.248
		c-0.97-0.167-1.945-0.319-2.922-0.473c-2.347-0.369-4.775-0.75-7.128-1.333c-12.201-3.04-24.745-5.967-38.347-8.95
		c-22.246-4.875-46.202-9.655-77.67-15.497c-13.145-2.441-26.3-4.828-39.453-7.217c-12.81-2.324-25.618-4.647-38.421-7.021
		l-22.427-4.177c-18.642-3.476-37.919-7.073-56.9-10.481c-4.331-0.776-8.667-1.532-13.004-2.284
		c-8.571-1.492-17.432-3.032-26.115-4.739c-4.992-0.98-9.972-2.023-14.951-3.066c-7.353-1.54-14.959-3.134-22.474-4.483
		c-6.874-1.234-12.941-2.135-18.545-2.755c-4.945-0.546-9.974-0.732-14.841-0.915l-3.963-0.152c-1.385-0.058-2.548-0.52-3.675-0.967
		c-0.314-0.125-0.627-0.251-0.951-0.369c-1.445-0.525-2.914-0.857-4.287-1.14c-1.511-0.308-3.016-0.643-4.519-0.978
		c-1.668-0.371-3.335-0.742-5.011-1.077c-1.218-0.246-2.447-0.431-3.678-0.614c-1.814-0.274-3.691-0.557-5.518-1.03
		c-3.048-0.789-5.411-2.23-7.763-3.761c-1.66-1.08-3.837-1.673-5.941-2.245c-0.614-0.167-1.218-0.332-1.798-0.504
		c-1.707-0.512-3.393-1.077-5.079-1.641c-1.341-0.447-2.682-0.897-4.033-1.317c-6.498-2.028-13.252-3.231-19.005-4.14l-3.623-0.562
		c-5.045-0.774-10.262-1.576-15.346-2.758c-0.865-0.201-1.728-0.413-2.59-0.622c-2.303-0.565-4.684-1.145-7.057-1.529
		c-3.035-0.489-6.229-0.821-9.77-1.012c-2.862-0.154-5.941-0.214-9.629-0.209c-0.154,0-0.442-0.008-0.708-0.018
		c-0.795-0.031-2.258-0.084-2.635,0.353c-0.254,0.29-0.055,1.563,0.042,2.175c0.063,0.418,0.12,0.805,0.136,1.111
		c0.065,1.43-0.308,2.603-1.113,3.484c-1.04,1.14-2.684,1.723-5.178,1.835c-1.976,0.084-3.989-0.157-5.92-0.395
		c-1.315-0.162-2.632-0.324-3.936-0.376c-3.785-0.159-6.861-0.397-9.682-0.75l-0.933-0.118c-2.81-0.358-5.476-0.693-8.223-0.567
		c-1.022,0.044-1.644,0.319-1.853,0.816c-0.217,0.52,0.084,1.116,0.57,1.966c0.301,0.528,0.562,0.97,0.823,1.411
		c0.538,0.91,1.074,1.819,1.55,2.765c0.238,0.47,0.444,0.962,0.648,1.451c0.264,0.63,0.525,1.262,0.878,1.848
		c0.923,1.521,2.337,2.541,4.091,2.948c1.762,0.408,3.748,0.478,5.669,0.544c0.87,0.031,1.733,0.06,2.569,0.12
		c4.153,0.293,8.325,0.808,12.361,1.307c2.548,0.316,5.1,0.63,7.661,0.894c5.871,0.604,12.105,1.059,19.611,1.435
		c2.528,0.128,5.058,0.214,7.591,0.301c4.151,0.141,8.445,0.288,12.661,0.622c5.923,0.473,12.389,1.153,19.774,2.083
		c1.777,0.225,3.555,0.465,5.332,0.703c4.851,0.656,9.87,1.333,14.826,1.66c2.878,0.186,6.244,0.392,9.687,0.345
		c2.909-0.021,5.656,0.324,8.529,0.698l0.902,0.118c2,0.259,4.002,0.45,6.007,0.643c1.278,0.12,2.556,0.243,3.834,0.382
		c1.54,0.167,3.074,0.444,4.603,0.721c1.626,0.293,3.306,0.596,4.945,0.748c0.931,0.084,1.851,0.01,2.823-0.065
		c0.544-0.042,1.09-0.084,1.639-0.102c1.438-0.029,2.935,0.044,4.741,0.272c2.305,0.288,4.6,0.677,6.893,1.066l2.695,0.452
		c6.027,0.983,13.032,2.109,19.933,3.05c2.522,0.342,5.055,0.625,7.588,0.904c3.834,0.426,7.802,0.865,11.684,1.526l22.863,3.897
		c25.276,4.305,50.549,8.61,75.814,12.975c29.479,5.089,55.277,9.632,78.877,13.89c28.206,5.086,53.97,9.888,78.762,14.682
		c27.733,5.361,53.385,10.544,78.422,15.848c14.256,3.022,28.71,6.26,42.691,9.394c11.841,2.656,23.684,5.309,35.548,7.868
		c6.663,1.435,13.27,2.677,18.856,3.704l2.82,0.525c0.154,0.029,0.335,0.05,0.525,0.071c0.646,0.073,1.378,0.157,1.953,0.523
		c0.604,0.384,0.951,1.006,0.951,1.704c0,1.032-0.714,1.947-1.417,2.394c-1.158,0.734-2.964,0.87-4.412,0.98l-0.787,0.065
		c-0.583,0.057-1.166,0.099-1.746,0.144c-0.868,0.063-1.736,0.128-2.598,0.243c-3.032,0.405-5.79,1.181-8.192,2.305
		c-0.316,0.149-0.627,0.306-0.936,0.463c-1.072,0.544-2.18,1.108-3.529,1.289c-1.378,0.175-2.852,0.016-4.506-0.504
		c-0.941-0.295-1.895-0.656-2.857-1.019c-2.049-0.774-4.169-1.574-6.218-1.738c-2.151-0.165-3.28,1.153-4.867,3.346l-0.617,0.844
		c-1.445,1.919-3.848,2.907-5.967,3.782c-0.617,0.254-1.221,0.502-1.777,0.763c-1.168,0.552-2.698,1.289-4.161,2.117
		c-0.35,0.199-0.693,0.413-1.035,0.625c-0.849,0.528-1.728,1.074-2.75,1.43c-2.198,0.768-3.968,1.487-5.055,3.124
		c-1.025,1.537-0.821,3.265-0.583,5.262c0.063,0.528,0.125,1.059,0.165,1.584c0.439,5.939-1.336,10.458-5.277,13.432
		c-3.887,2.933-9.222,4.663-15.147,4.932c0.188,0.167,0.45,0.348,0.659,0.494l0.293,0.204c0.768,0.554,1.608,1.006,2.496,1.482
		l0.69,0.374c2.305,1.268,4.6,2.643,6.819,4.088c0.881,0.575,1.743,1.223,2.606,1.874c1.215,0.915,2.47,1.861,3.756,2.551
		c0.685,0.371,1.048,0.199,1.289,0.016c0.314-0.235,0.335-0.732,0.332-1.524c-0.003-0.212-0.003-0.418,0.005-0.619
		c0.024-0.578,0.037-1.163,0.05-1.754c0.089-4.057,0.191-8.654,3.929-11.681c4.828-3.918,11.903-3.542,15.691-2.972
		c3.147,0.473,5.536,1.281,7.523,2.543l0.22,0.136c0.923,0.578,2.316,1.448,2.585,2.716c0.172,0.818-0.282,1.634-0.486,1.947
		c-0.233,0.361-0.737,0.991-1.479,1.147c-0.617,0.144-1.31-0.112-2.138-0.452c-0.152-0.06-0.288-0.118-0.392-0.154
		c-0.646-0.214-1.286-0.444-1.932-0.677c-1.383-0.499-2.535-0.915-3.74-1.179c-2.562-0.567-5.241-0.593-7.975-0.089
		c-2.664,0.499-4.125,1.364-5.037,2.985c-0.891,1.584-0.855,3.85-0.823,5.85l0.013,1.226c-0.005,2.426,0.159,4.896,0.319,7.282
		c0.23,3.419,0.468,6.953,0.217,10.489c-0.235,3.343-0.651,6.723-1.053,9.99c-0.308,2.509-0.619,5.019-0.852,7.53
		c-0.274,2.959-0.423,5.923-0.447,8.814c-0.003,0.531-0.016,1.082-0.029,1.639c-0.052,2.237-0.105,4.548,0.4,6.519
		c1.166,4.527,6.872,5.055,11.064,5.058c0.013,0,0.023,0,0.034,0c1.046,0,2.078-0.044,3.108-0.089
		c1.717-0.073,3.492-0.146,5.29-0.018l0.609,0.037c1.273,0.065,2.859,0.149,4.012,1.061c0.936,0.74,1.427,2.36,0.635,3.503
		c-0.857,1.234-2.75,1.244-3.999,1.252l-0.348,0.005c-0.852,0.021-1.725-0.018-2.593-0.057c-0.507-0.023-1.017-0.044-1.524-0.055
		c-1.127-0.042-2.253,0.089-3.429,0.206c-1.647,0.162-3.348,0.332-5.123,0.112c-4.059-0.502-9.088-1.639-11.979-6.02
		c-1.229-1.866-1.858-4.054-1.924-6.691c-0.071-2.901-0.065-5.91,0.021-8.942c0.165-5.703,0.734-11.279,1.537-17.897l0.131-1.061
		c0.301-2.418,0.612-4.922,0.557-7.368c-0.057-2.549-1.048-3.9-2.857-5.505c-3.466-3.074-7.614-6.007-13.056-9.232l-1.014-0.604
		c-4.062-2.428-8.252-4.961-13.025-4.211c-4.987,0.766-9.41,2.564-12.789,5.196l-0.316,0.235c-0.664,0.486-1.064,0.826-1.299,1.066
		c0.227-0.008,0.536-0.037,0.933-0.112c0.301-0.055,0.656-0.165,1.04-0.277c1.33-0.397,2.985-0.891,4.24-0.131
		c0.648,0.392,1.066,1.043,1.242,1.934c0.544,2.81-3.505,3.863-5.45,4.368l-0.518,0.139c-2.541,0.714-5.181,1.631-8.071,2.802
		c-1.689,0.687-3.359,1.406-5.024,2.125c-3.367,1.451-6.848,2.954-10.437,4.143c-5.196,1.73-10.387,3.071-16.585,4.551
		c-10.683,2.554-19.379,4.836-27.364,7.18c-2.901,0.855-5.779,2.002-8.56,3.113c-2.329,0.93-4.736,1.892-7.175,2.69
		c-5.207,1.702-10.241,1.662-15.565,1.628l-1.461-0.008c-2.967-0.013-5.92,0-8.882,0.044c-5.926,0.081-11.99,0.306-18.022,0.664
		c-7.732,0.46-15.458,1.027-23.185,1.594c-4.135,0.303-8.27,0.606-12.403,0.894l-0.46,0.031
		c-11.433,0.792-23.258,1.613-34.385,4.391c-1.866,0.465-3.748,0.889-5.63,1.315c-3.432,0.776-6.984,1.576-10.379,2.63
		c-1.202,0.371-2.386,0.795-3.57,1.215c-1.506,0.536-3.011,1.072-4.551,1.511c-2.303,0.656-4.658,1.195-6.937,1.715l-1.257,0.288
		c-2.632,0.606-5.251,1.278-7.868,1.95c-3.074,0.787-6.252,1.602-9.41,2.295c-5.74,1.257-11.488,2.494-17.233,3.714l-5.183,1.095
		c-1.176,0.256-2.394,0.523-3.748,0.327c-0.878-0.123-1.835-0.361-2.29-1.184c-0.314-0.565-0.295-1.244,0.055-2.02
		c0.685-1.524,1.856-1.932,2.99-2.324c3.777-1.323,7.577-2.031,11.253-2.716c1.793-0.332,3.584-0.667,5.353-1.064
		c1.393-0.311,2.781-0.651,4.156-1.032c0.204-0.057,0.431-0.11,0.669-0.162c0.656-0.149,1.472-0.332,1.678-0.701
		c0.146-0.259,0.159-0.392-0.593-1.218l-3.084-3.602c-1.953-2.287-3.902-4.574-5.863-6.853l-0.682-0.808
		c-1.372-1.652-2.556-3.079-4.621-3.361c-2.35-0.319-4.898-0.175-8.037,0.457c-2.102,0.421-4.509,0.967-6.495,2.146
		c-0.797,0.476-1.492,1.09-2.227,1.743c-0.985,0.873-2.007,1.78-3.343,2.386c-2.397,1.085-4.76,1.069-7.384,0.941
		c-1.814-0.089-3.628-0.196-5.439-0.303c-3.931-0.23-7.993-0.468-11.99-0.502c-2.784-0.026-5.57-0.005-8.359,0.008
		c-3.157,0.018-6.31,0.037-9.467-0.005c-9.744-0.125-22.549-0.254-35.71-0.261c-2.209-0.01-4.399-0.026-6.6-0.05
		c-3.714-0.044-7.554-0.086-11.323,0.003l-0.361,0.008c-5.664,0.141-11.522,0.285-17.303,0.052
		c-1.516-0.063-3.027-0.173-4.535-0.285c-1.406-0.102-2.81-0.206-4.219-0.267c-2.682-0.123-5.424-0.008-8.074,0.105l-0.567,0.023
		c-5.939,0.24-11.882,0.434-17.826,0.588c-10.887,0.28-22.398,0.455-36.222,0.552c-9.87,0.068-19.74,0.091-29.609,0.112
		c-13.872,0.029-28.214,0.06-42.318,0.23c-10.643,0.128-22.139,0.389-36.173,0.818c-5.374,0.162-11.626,0.316-17.873,0.076
		c-5.933-0.227-11.754-0.4-17.722-0.078l-0.836,0.037c-1.197,0.044-2.326,0.086-3.309,0.489c-0.379,0.157-0.403,0.165-0.301,1.213
		c0.188,2,1.014,3.997,1.811,5.926c0.274,0.664,0.546,1.32,0.789,1.963c0.277,0.734,0.567,1.466,0.863,2.203
		c0.774,1.947,1.574,3.957,2.094,6.02c0.525,2.057,0.92,4.741-0.677,7.227c-1.179,1.835-2.982,3.019-5.215,3.429
		c-2.674,0.486-5.758-0.251-8.03-1.934c-0.802-0.593-1.529-1.323-2.23-2.028c-1.017-1.022-1.979-1.989-3.084-2.504
		c-0.768-0.355-1.537-0.306-2.52-0.107c-1.33,0.264-2.663,0.342-3.949,0.421l-0.288,0.016c-2.141,0.136-4.284,0.282-6.427,0.431
		c-3.78,0.261-7.562,0.525-11.347,0.711c-0.714,0.034-1.432,0.06-2.149,0.086c-1.14,0.039-2.282,0.078-3.416,0.165
		c-0.972,0.073-1.835,0.165-2.538,0.533c-1.55,0.813-2.734,2.844-3.777,4.637c-0.337,0.578-0.661,1.132-0.98,1.623l-0.57,0.902
		c-1.14,1.824-2.431,3.889-4.342,4.969c-0.774,0.436-1.699,0.452-2.46,0.055c-0.748-0.392-1.221-1.111-1.296-1.976
		c-0.118-1.333,0.805-2.805,1.419-3.777c2.507-3.991,5.123-7.834,7.651-11.55l2.102-3.09c1.639-2.423,3.286-4.841,4.938-7.256
		c0.193-0.28,0.403-0.619,0.633-0.985c1.166-1.866,2.76-4.42,5.029-4.723c0.727-0.089,1.385,0.159,1.877,0.714
		c0.653,0.737,0.923,1.973,0.656,3.001c-0.264,1.025-0.931,1.916-1.521,2.703c-0.154,0.206-0.306,0.408-0.442,0.604l-0.431,0.614
		c-0.601,0.857-1.202,1.715-1.756,2.601l-0.332,0.518c-0.476,0.734-1.069,1.647-1.197,2.352c-0.089,0.481,0.047,0.635,0.091,0.685
		c0.549,0.62,2.661,0.494,3.563,0.444l0.337-0.018c2.985-0.154,5.97-0.316,8.958-0.481c0.907-0.05,1.822-0.084,2.739-0.115
		c1.939-0.071,3.944-0.141,5.855-0.384c0.758-0.094,1.291-0.369,1.5-0.771c0.225-0.434,0.131-1.085-0.267-1.832
		c-1.383-2.593-2.998-5.118-4.423-7.345c-0.528-0.829-1.093-1.712-0.766-2.661c0.201-0.583,0.693-1.014,1.456-1.281
		c1.947-0.69,3.273,0.35,4.206,1.333c2.376,2.494,4.057,5.513,5.68,8.43c0.962,1.728,1.955,3.513,3.066,5.128
		c1.712,2.486,3.424,4.159,4.948,4.836c0.98,0.437,2.185,0.494,2.993,0.141c0.504-0.22,0.836-0.575,1.014-1.09
		c0.303-0.881-0.081-2.039-0.421-3.061c-0.502-1.508-0.959-2.815-1.427-4.114c-0.938-2.606-1.932-5.186-2.964-7.753
		c-1.926-4.783-4.017-9.601-6.041-14.256l-0.774-1.783c-1.657-3.821-3.774-7.554-5.824-11.166c-0.784-1.383-1.568-2.765-2.329-4.156
		l-1.472-2.684c-2.342-4.268-4.681-8.537-6.982-12.831c-0.993-1.858-1.968-3.725-2.946-5.591c-1.723-3.291-3.445-6.582-5.256-9.825
		c-1.302-2.329-2.624-4.65-3.947-6.971c-1.584-2.778-3.168-5.56-4.718-8.359c-5.795-10.458-11.292-20.884-16.336-30.984
		c-0.154-0.314-0.322-0.708-0.502-1.142c-0.546-1.304-1.459-3.487-2.525-3.5c-0.499-0.031-0.737,0.434-1.213,1.106
		c-0.157,0.222-0.314,0.439-0.47,0.633c-0.831,1.012-1.728,2.013-2.663,2.972c-0.881,0.907-1.814,1.762-2.747,2.616
		c-1.09,1.001-2.219,2.036-3.223,3.129c-1.289,1.406-0.792,2.386,0.45,4.467l2.873,4.94c2.099,3.615,4.195,7.227,6.281,10.845
		c2.337,4.059,4.475,8.296,6.542,12.395l1.618,3.199c1.472,2.891,2.959,5.774,4.449,8.66c3.913,7.585,7.959,15.424,11.618,23.289
		c1.239,2.661,2.452,5.337,3.618,8.035c1.286,2.975,0.044,5.499-1.153,7.941c-1.226,2.504-2.59,4.749-4.153,6.874l-0.463,0.646
		c-0.661,0.928-1.409,1.979-2.326,2.739c-1.056,0.87-2.373,1.069-3.633,1.197c-3.9,0.403-7.915,0.434-11.796,0.463
		c-1.856,0.016-3.706,0.029-5.544,0.084l-0.444,0.013c-5.978,0.18-11.621,0.34-17.507-0.648c-3.218-0.541-4.425-2.682-5.703-4.948
		l-17.481-31c-0.873-1.555-1.641-3.178-2.381-4.747c-0.405-0.855-0.808-1.712-1.231-2.559c-1.864-3.748-3.952-7.486-5.97-11.098
		c-0.839-1.503-1.678-3.003-2.504-4.509c-2.873-5.246-5.745-10.492-8.597-15.748l-0.392-0.724c-1.066-1.984-2.073-3.858-3.542-5.405
		c-0.818-0.865-1.712-1.652-2.606-2.444c-0.972-0.863-1.979-1.754-2.899-2.745c-1.945-2.088-3.291-4.362-4.007-6.759
		c-0.293-0.978-0.504-1.997-0.719-3.022c-0.337-1.621-0.653-3.152-1.294-4.527c-0.805-1.73-3.003-2.533-4.94-3.239
		c-2.614-0.951-4.977-1.276-7.102-0.965c-1.911,0.28-3.795,1.155-5.445,2.528c-1.754,1.458-2.258,3.246-2.475,5.484
		c-0.238,2.478,0.256,4.501,1.563,6.367c0.768,1.098,1.652,2.096,2.588,3.152c0.789,0.891,1.579,1.783,2.298,2.734
		c3.223,4.281,5.682,8.96,7.925,13.383c2.308,4.564,4.93,9.446,8.254,15.369c4.234,7.541,8.479,15.076,12.724,22.609l7.238,12.842
		c2.164,3.829,4.326,7.659,6.464,11.501c1.351,2.439,2.624,4.922,3.895,7.402l0.196,0.379c0.499,0.962,1.124,2.159,0.635,3.62
		c-0.457,1.37-1.558,2.102-2.577,2.635c-4.271,2.248-8.782,4.221-13.145,6.132l-2.852,1.252c-5.709,2.525-11.036,4.749-16.284,6.804
		c-9.943,3.887-20.27,8.375-31.57,13.72c-2.802,1.325-5.617,2.627-8.43,3.929c-2.491,1.153-4.982,2.303-7.465,3.471
		c-4.253,2-8.406,4.449-9.985,8.78c-0.664,1.822-0.789,3.942-0.345,5.818c0.4,1.696,2.057,2.18,4.423,2.384
		c3.868,0.34,7.75,0.578,11.626,0.815c2.081,0.128,4.161,0.256,6.237,0.4c2.807,0.191,5.711,0.389,8.571,0.771
		c4.08,0.546,4.208,4.342,4.279,6.38c0.139,4.146,0.091,8.362,0.044,12.439c-0.021,1.827-0.042,3.649-0.047,5.471
		c-0.013,6.184-0.039,12.371-0.065,18.555c-0.076,17.421-0.152,35.436,0.076,53.144c0.131,9.987,0.502,20.142,0.863,29.962
		l0.22,5.991c0.102,2.87,0.337,5.664,0.714,8.545c0.308,2.352,1.236,3.827,3.1,4.932c1.61,0.954,3.672,0.881,5.672,0.831
		c0.51-0.016,1.014-0.031,1.508-0.031l8.866-0.005c9.831,0.005,22.769,0.063,35.65,0.473c1.916,0.06,3.834,0.081,5.753,0.099
		c3.963,0.039,8.058,0.081,12.086,0.502c3.696,0.389,7.87,0.617,10.74-1.547c2.624-1.973,3.547-6.072,3.539-8.978
		c-0.008-3.262-0.227-6.584-0.439-9.799c-0.159-2.428-0.316-4.857-0.395-7.29c-0.188-5.986-0.455-11.99-0.787-17.847
		c-0.042-0.721-0.073-1.445-0.105-2.172c-0.094-2.141-0.191-4.355-0.562-6.438c-0.316-1.788-0.05-3.547,0.178-4.715
		c0.118-0.588,0.256-1.174,0.397-1.759c0.008-0.042,0.021-0.089,0.034-0.141C171.467,775.972,170.427,775.544,169.768,774.302z
		 M478.698,437.872c-0.11,0.332-0.486,1.043-1.694,1.043c-0.125,0-0.261-0.008-0.405-0.026c-2.551-0.295-5.12-0.844-7.606-1.375
		c-1.121-0.24-2.243-0.481-3.356-0.695l-2.656-0.512c-0.251-0.05-0.541-0.084-0.847-0.118c-0.771-0.091-1.644-0.196-2.332-0.541
		c-1.221-0.617-1.26-1.406-1.176-1.819c0.303-1.49,2.836-1.678,2.859-1.678c2.556,0.199,4.945,0.745,7.259,1.276
		c1.215,0.28,2.433,0.559,3.649,0.787c0.392,0.073,0.826,0.123,1.276,0.175c1.208,0.139,2.575,0.298,3.646,0.915
		C478.246,435.844,479.019,436.9,478.698,437.872z M1051.903,757.566c-0.018,0.418-0.034,0.831-0.034,1.231l0.01,1.056
		c0.029,2.169,0.063,4.632-0.829,6.778c-0.376,0.904-0.972,1.242-1.409,1.364c-0.149,0.042-0.327,0.071-0.531,0.071
		c-0.444,0-1.012-0.144-1.668-0.622c-1.242-0.91-1.32-2.342-1.375-3.39c-0.081-1.435-0.125-2.755-0.17-4.075l-0.029-1.221
		c-0.003-0.784-0.005-1.524-0.298-2.07c-0.758-1.422-3.16-1.594-4.917-1.72c-10.759-0.776-21.091-0.389-33.358,0.431l-2.318,0.162
		c-4.83,0.34-9.815,0.693-14.758,0.342c-1.127-0.078-2.799-0.196-3.633-1.699c-0.439-0.797-0.541-1.519-0.303-2.141
		c0.222-0.583,0.706-1.009,1.438-1.265c1.924-0.68,4.002-0.672,6.004-0.648c0.706,0.008,1.406,0.013,2.081-0.018
		c3.042-0.123,6.132-0.371,9.122-0.612c2.227-0.178,4.457-0.358,6.689-0.489c2.998-0.178,6.001-0.274,9.002-0.371
		c1.908-0.063,3.816-0.123,5.722-0.206c1.783,0.068,3.497,0.102,5.214,0.136c4.093,0.081,8.328,0.167,12.426,0.716l0.497,0.065
		c2.028,0.267,4.553,0.593,6.137,2.462C1052.07,753.548,1051.981,755.681,1051.903,757.566z M1123.187,687.346
		c-0.078,0.269-0.157,0.536-0.217,0.8c-0.248,1.074-0.455,2.159-0.635,3.246c-1.359,8.223-1.971,17.154-1.921,28.101
		c0.039,9.564,0.162,19.128,0.308,28.689c0.018,1.325,0.026,2.653,0.034,3.981c0.018,3.288,0.039,6.691,0.246,10.006
		c0.251,3.976,0.557,9.224,0.721,14.546c0.316,10.387,0.238,20.56,0.12,29.139c-0.05,3.471,0.078,7.01,0.204,10.434
		c0.047,1.357,0.097,2.713,0.136,4.07c0.005,0.186,0.024,0.392,0.044,0.606c0.086,0.964,0.207,2.284-0.646,3.202
		c-0.531,0.567-1.171,0.855-1.817,0.855c-0.572,0-1.15-0.225-1.655-0.682c-1.511-1.37-1.62-3.523-1.709-5.254
		c-0.016-0.301-0.029-0.593-0.052-0.87c-0.515-6.427-0.418-12.944-0.324-19.248c0.047-3.191,0.094-6.386,0.065-9.58
		c-0.078-8.824-0.567-17.784-1.038-26.449l-0.099-1.84l-0.107-12.876c-0.063-7.486-0.123-14.972-0.159-22.461l-0.029-3.944
		c-0.071-8.061-0.141-16.394,1.043-24.591c0.139-0.959,0.254-1.953,0.369-2.956c0.434-3.735,0.881-7.598,2.601-10.923
		c0.533-1.025,1.524-1.547,2.554-1.396c1.168,0.188,2.125,1.195,2.331,2.452C1123.731,685.458,1123.44,686.462,1123.187,687.346z
		 M1079.23,556.142c0.052-1.145,0.118-2.572,1.262-3.487c1.396-1.121,2.901-0.567,3.991-0.167c2.376,0.876,4.755,1.96,5.439,3.751
		c0.298,0.782,0.233,1.613-0.188,2.405c-1.1,2.075-4.01,4.87-6.694,4.87c-0.057,0-0.115,0-0.17-0.003
		c-3.322-0.149-3.518-3.602-3.636-5.664l-0.055-0.792C1079.207,556.636,1079.217,556.391,1079.23,556.142z M1078.958,586.17
		c0.186-2.376,0.369-4.749,0.525-7.117l0.016-0.264c0.097-1.532,0.209-3.27,1.197-4.762c1.001-1.513,2.394-2.742,3.743-3.931
		c0.457-0.403,0.91-0.802,1.336-1.205l3.591-3.419c2.366-2.253,4.728-4.509,7.13-6.723c1.864-1.717,3.78-2.115,6.08-2.183
		l1.077-0.034c2.057-0.063,4.119-0.128,6.179-0.128c2.478,0.003,5.196,0.214,6.592,1.741c1.587,1.733,1.516,4.245,1.461,6.265
		l-0.013,0.489c-0.071,3.484-0.23,6.968-0.39,10.45l-1.15,27.409c-0.175,3.207-0.18,4.718-0.144,5.424l0.251,0.005l-0.24,8.539
		c-0.162,5.782-0.301,11.569-0.439,17.353l-0.342,14.397c-0.029,1.788-0.057,3.636-0.214,5.455
		c-0.089,0.996-0.254,1.981-0.418,2.967l-0.099,0.599c-0.165,1.066-0.35,2.264-1.848,2.76c-1.223,0.403-2.253-0.183-3.009-0.606
		l-0.403-0.222c-1.194-0.619-2.256-1.168-3.304-1.738c-1.924-1.04-3.782-2.222-5.578-3.361l-0.358-0.227
		c-3.024-1.921-5.458-2.836-7.491-1.074c-0.954,0.829-1.707,2.12-2.235,3.842c-0.57,1.864-1.388,3.058-2.433,3.552
		c-0.358,0.167-0.737,0.251-1.127,0.251c-0.384,0-0.781-0.081-1.179-0.246c-1.905-0.797-3.688-2.486-4.545-4.305
		c-0.836-1.78-0.797-3.902-0.763-5.774c0.01-0.586,0.024-1.158,0.005-1.702c-0.076-2.496-0.363-4.647-0.873-6.576
		c-0.643-2.415-1.171-4.619-1.155-7.13c0.013-1.958,0.071-3.908,0.131-5.86c0.084-2.841,0.17-5.782,0.11-8.67
		c-0.047-2.256-0.175-4.514-0.306-6.77c-0.149-2.635-0.303-5.358-0.324-8.048C1077.955,599.106,1078.464,592.529,1078.958,586.17z
		 M1088.967,666.636c9.603-0.065,17.554-0.065,25.022-0.008h0.337c5.502-0.099,8.064,0.567,8.756,2.018
		c0.24,0.507,0.353,1.323-0.473,2.324c-1.26,1.524-3.735,1.472-5.528,1.44l-0.781-0.008c-1.44,0.013-2.88,0.016-4.321,0.018
		l-41.141,0.146c-8.124,0.086-10.466,0.044-11.297-0.136c-4.02-0.003-8.035-0.063-12.052-0.125
		c-5.314-0.081-10.813-0.165-16.211-0.102c-7.086,0.084-14.29,0.29-21.256,0.491l-6.835,0.193c-0.261,0.008-0.525,0.01-0.792,0.01
		c-2.023,0-4.07-0.261-5.094-1.587c-0.761-0.983-0.371-2.271,0.348-3.113c0.721-0.836,1.537-0.917,2.258-0.991
		c3.458-0.363,6.814-0.418,10.058-0.471c1.03-0.018,2.054-0.034,3.076-0.06c8.079-0.199,16.386-0.306,25.391-0.321
		c7.711,0,15.445,0.065,23.166,0.149C1070.568,666.6,1079.837,666.699,1088.967,666.636z M1032.124,621.616l1.717-1.887
		c1.762-1.95,3.586-3.965,5.481-5.865c3.693-3.709,7.546-7.374,11.271-10.918c1.503-1.432,3.008-2.865,4.506-4.302
		c0.672-0.643,1.736-1.775,3.082-1.605c0.452,0.039,1.111,0.248,1.67,1.017c0.883,1.218,0.889,2.711,0.894,4.028
		c0,0.308,0,0.612,0.016,0.902c0.112,2.444,0.212,4.888,0.311,7.332l0.125,3.116l-0.199,3.427c-0.167,2.904-0.335,5.808-0.528,8.712
		l-0.023,0.395c-0.086,1.506-0.207,3.57-1.333,4.799c-0.74,0.813-1.56,1.079-2.358,1.079c-0.938,0-1.843-0.369-2.554-0.656
		l-0.369-0.149c-1.046-0.408-2.047-0.904-3.042-1.398c-1.743-0.868-3.39-1.686-5.238-2.01c-2.047-0.358-4.245-0.251-6.37-0.152
		c-1.27,0.06-2.538,0.118-3.785,0.091c-0.199-0.003-0.465,0.008-0.734,0.023c-1.276,0.063-3.641,0.193-4.14-1.861
		C1030.067,623.845,1031.256,622.557,1032.124,621.616z M1048.947,544.953c1.751-1.299,3.563-2.645,6.035-2.794
		c2.454-0.167,4.579,0.596,5.787,2.039c1.383,1.66,1.239,3.748,1.111,5.591c-0.024,0.337-0.047,0.667-0.058,0.985l-0.554,14.635
		l0.178,0.988c-0.065,1.937-0.139,3.871-0.212,5.808l-0.073,1.934c-0.099,2.664-0.191,5.327-0.248,7.993
		c-0.047,2.266-0.091,4.386-1.21,6.427c-0.925,1.681-2.305,2.99-3.638,4.26c-0.361,0.342-0.721,0.685-1.064,1.03l-5.421,5.445
		c-1.963,1.971-3.96,3.908-5.959,5.842c-1.738,1.683-3.476,3.369-5.191,5.076c-1.859,1.853-3.683,3.735-5.492,5.635
		c-0.591,0.619-1.168,1.262-1.749,1.908c-1.153,1.283-2.347,2.611-3.659,3.78c-0.708,0.63-1.879,1.707-3.377,1.451
		c-1.087-0.17-1.814-1.074-2.397-1.804c-0.125-0.157-0.246-0.308-0.363-0.437c-0.857-0.964-1.702-1.934-2.546-2.904
		c-0.22-0.254-0.439-0.538-0.664-0.829c-0.45-0.585-0.915-1.187-1.38-1.508c-0.972-0.682-2.203,0.295-3.584,1.545l-0.264,0.238
		c-0.418,0.374-0.852,0.748-1.289,1.127c-1.438,1.242-2.925,2.525-4.023,3.973c-1.404,1.858-2.031,4.075-2.695,6.422
		c-0.494,1.746-1.004,3.552-1.866,5.243c-1.955,3.827-4.82,7.018-8.288,9.229c-0.701,0.447-1.694,1.082-2.818,1.082
		c-0.248,0-0.502-0.031-0.761-0.102c-1.229-0.34-1.973-1.751-1.623-3.079c0.269-1.022,1.226-1.845,1.997-2.509
		c0.196-0.167,0.382-0.327,0.533-0.473l0.481-0.463c0.667-0.638,1.333-1.276,1.971-1.942c1.6-1.67,2.75-3.259,3.518-4.856
		c0.536-1.121,0.836-2.321,1.155-3.594c0.222-0.881,0.444-1.767,0.745-2.632c0.695-2.005,1.537-4.119,2.985-5.975
		c1.257-1.615,2.82-2.988,4.331-4.315l2.546-2.248c2.805-2.457,5.455-4.778,7.099-8.145c2.02-4.13,2.993-8.837,3.934-13.391
		l0.51-2.386c0.588-2.682,1.197-5.455,1.061-8.121c-0.11-2.141-0.716-4.174-1.359-6.328c-0.376-1.265-0.753-2.53-1.03-3.819
		c-0.63-2.967,1.145-4.441,2.859-5.865c1.963-1.634,3.981-3.205,6.213-4.836c3.369-2.462,6.757-4.898,10.142-7.334l2.729-1.966
		c2.107-1.519,4.211-3.042,6.312-4.572L1048.947,544.953z M1026.565,542.402c0.369-2.243,2.332-2.494,3.502-2.643l0.102-0.013
		l0.643,0.05c1.607,0.12,3.272,0.243,4.914,0.484l0.51,0.073c1.636,0.23,3.672,0.518,5.149,1.414c1.187,0.719,1.406,1.621,1.38,2.25
		c-0.097,2.397-4.065,4.498-4.859,4.896c-0.923,0.463-1.908,0.661-2.896,0.661c-2.29,0-4.592-1.069-6.132-2.405
		C1028.243,546.615,1026.193,544.639,1026.565,542.402z M998.505,535.828c0.303-0.418,0.957-0.876,2.253-0.664
		c1.762,0.28,3.518,0.627,5.272,0.978l10.86,1.926c2.047,0.335,4.592,0.753,5.411,3.685c0.761,2.724,1.529,4.807,3.006,6.785
		c0.125,0.17,0.259,0.332,0.387,0.491c0.633,0.774,1.419,1.738,1.265,3.197c-0.154,1.438-1.155,2.35-1.958,3.082l-1.281,1.221
		c-0.92,0.889-1.84,1.777-2.792,2.627c-0.87,0.779-1.717,1.168-2.535,1.168c-0.434,0-0.857-0.112-1.273-0.332
		c-0.949-0.502-1.777-1.443-2.507-2.271c-0.264-0.303-0.52-0.593-0.763-0.839c-0.931-0.938-1.848-1.892-2.721-2.883
		c-1.775-2.013-3.317-4.232-4.849-6.984c-1.312-2.35-3.178-4.339-4.833-5.978c-0.24-0.238-0.533-0.484-0.834-0.737
		c-0.758-0.638-1.615-1.359-2.062-2.237C997.982,536.949,998.212,536.233,998.505,535.828z M963.36,665.434l0.64-0.089
		c0.314-0.042,0.622-0.076,0.925-0.107c1.634-0.175,2.596-0.322,3.382-1.283c0.768-0.933,0.821-2.839,0.863-4.37l0.034-0.954
		c0.076-1.55-0.008-3.165-0.089-4.728c-0.05-0.949-0.099-1.898-0.115-2.839c-0.042-2.603-0.031-5.207,0-7.81l0.052-4.781
		c0.042-3.586,0.081-7.175,0.131-10.761c0.037-2.585,0.18-5.162,0.327-7.74l0.039-0.865c0.071-1.848,0.162-4.148,1.409-5.753
		c1.683-2.162,4.01-2.078,6.072-2.007l1.174,0.031c2.156,0.052,4.603,0.11,6.725,0.766c2.904,0.897,3.163,3.704,3.299,5.212
		c0.204,2.162,0.199,4.347,0.193,6.459v1.304c0.008,3.346,0.003,6.694,0,10.04l-0.003,6.582h-0.246l-0.055,6.71
		c-0.013,1.553,0.003,3.118,0.021,4.687c0.034,3.458,0.073,7.034-0.212,10.515c-0.133,1.66-0.478,3.957-1.913,4.731
		c-0.489,0.261-1.294,0.452-2.358-0.128c-1.202-0.661-1.273-2.143-1.32-3.124c-0.008-0.18-0.016-0.353-0.031-0.502
		c-0.128-1.283-0.139-2.551-0.131-3.733c0.055-6.903,0.128-13.806,0.201-20.712l0.11-10.813c0.021-2.324,0.044-4.647-0.003-6.968
		v-0.792c0.01-1.55-0.037-2.611-0.8-3.205c-0.941-0.729-2.975-0.975-4.289-0.745c-1.404,0.248-1.738,1.095-1.968,3.354
		c-0.41,3.989-0.384,8.103-0.361,12.084l0.01,3.097c-0.008,3.923-0.008,7.847-0.005,11.767v3.923c0,1.038,0.034,2.107,0.071,3.191
		c0.123,3.793,0.251,7.716-1.006,11.247c-0.836,2.347-1.963,3.999-4.731,4.425c-2.073,0.322-4.809,0.721-7.601,0.975
		c-2.264,0.209-4.355,0.314-6.305,0.314c-3.388,0-6.357-0.316-9.093-0.954c-1.325-0.311-2.904-0.831-3.39-2.12
		c-0.199-0.523-0.277-1.375,0.484-2.441c1.712-2.4,4.953-1.485,6.511-1.046C954.258,666.686,958.888,666.046,963.36,665.434z
		 M942.721,635.255l0.016-0.808c-0.005-3.607,0.099-7.212,0.206-10.819l0.013-0.476c0.201-7.026,0.408-15.314,0.41-23.524
		c0-1.984-0.01-3.965-0.034-5.946l-0.024-0.978c-0.042-1.419-0.086-2.888,0.285-4.328c0.196-0.774,1.043-2.525,2.399-2.988
		c0.674-0.233,1.367-0.102,1.953,0.355c0.635,0.499,0.742,1.341,0.818,1.958l0.039,0.28c0.133,0.701,0.274,1.542,0.295,2.501
		c0.081,3.403,0.418,19.138-0.112,22.667l0.086,0.003l-0.478,19.928c-0.01,0.382-0.008,0.779-0.005,1.184
		c0.005,1.652,0.016,3.529-0.753,5.126c-0.442,0.92-1.432,1.608-2.415,1.673c-0.05,0.003-0.102,0.003-0.152,0.003
		c-0.732,0-1.378-0.353-1.79-0.985C942.622,638.778,942.677,636.826,942.721,635.255z M220.63,627.753l0.018-0.034
		c2.146-4.083,4.051-4.211,5.267-3.623c0.897,0.439,1.526,1.464,2.081,2.368c0.146,0.238,0.282,0.457,0.405,0.635l0.23,0.314
		c0.515,0.693,1.221,1.641,0.902,2.92c-0.63,2.496-3.526,2.507-5.256,2.512c-0.29,0-0.559,0-0.795,0.013l-0.128,0.005l-0.604-0.11
		c-0.805-0.125-1.905-0.298-2.556-1.474C219.47,629.97,220.17,628.637,220.63,627.753z M629.526,652.367
		c1.73-1.009,3.908-1.142,5.829-1.26l0.944-0.063c5.369-0.41,9.844-0.742,14.488-0.941c1.704-0.073,3.432-0.063,5.162-0.06
		c2.922,0.018,5.957,0.024,8.83-0.379c1.587-0.222,2.995-0.797,4.488-1.404c0.429-0.175,0.863-0.35,1.304-0.52
		c2.13-0.821,4.373-1.304,6.487-1.73c2.292-0.465,4.742-0.917,7.287-0.92c0.008,0,0.018,0,0.029,0c1.516,0,3.027,0.136,4.491,0.267
		c0.842,0.076,1.683,0.154,2.528,0.204c6.833,0.4,13.843,0.337,20.626,0.272c2.794-0.029,5.583-0.047,8.369-0.05
		c8.5,0.013,19.083,0.031,29.215,0.248l5.246,0.123c7.802,0.188,15.866,0.376,23.828,0.206l4.294-0.084
		c3.445-0.065,6.89-0.131,10.335-0.248l2.099-0.073c1.673-0.06,3.343-0.12,5.016-0.165c1.516-0.042,3.079-0.233,4.592-0.418
		c0.839-0.102,1.675-0.204,2.515-0.282c6.746-0.64,13.621-1.103,20.268-1.547c2.823-0.188,5.646-0.379,8.464-0.58
		c3.249-0.233,6.503-0.429,9.755-0.622c6.325-0.379,12.865-0.771,19.261-1.456c9.739-1.043,17.452-2.925,24.277-5.92
		c3.884-1.702,7.52-3.78,10.811-6.174c0.416-0.301,0.821-0.627,1.226-0.957c1.069-0.865,2.175-1.759,3.544-2.282
		c1.456-0.557,3.022-0.308,3.795,0.606c0.316,0.371,0.946,1.406,0.016,3.011c-0.852,1.466-2.491,2.588-3.939,3.576
		c-0.363,0.251-0.714,0.489-1.027,0.719c-1.903,1.393-3.717,2.575-5.547,3.61c-3.756,2.122-7.925,3.978-12.392,5.518
		c-9.06,3.121-18.297,3.978-26.982,4.59l-2.311,0.162c-8.835,0.62-17.664,1.239-26.491,1.929c-3.495,0.272-6.989,0.499-10.484,0.729
		l-4.109,0.269c-2.277,0.154-4.543,0.403-6.806,0.653c-2.488,0.274-5.06,0.559-7.619,0.706c-2.658,0.154-5.319,0.204-7.98,0.254
		c-1.994,0.037-3.991,0.073-5.983,0.157c-4.783,0.193-9.755,0.303-14.779,0.327c-8.947,0.042-18.519-0.175-29.264-0.664
		l-16.851-0.013c-9.012-0.013-18.022-0.024-27.032-0.057c-3.448-0.01-6.914-0.175-10.264-0.335l-3.824-0.172
		c-4.527-0.193-8.699,0.531-12.366,2.13c-4.647,2.028-9.096,2.423-13.21,2.548c-1.756,0.052-3.51,0.084-5.267,0.115
		c-3.027,0.052-6.158,0.107-9.227,0.288c-2.376,0.141-4.752,0.322-7.123,0.536c-0.68,0.063-1.383,0.162-2.094,0.261
		c-1.278,0.18-2.59,0.366-3.884,0.366c-0.51,0-1.017-0.029-1.519-0.099c-0.8-0.107-2.674-0.363-2.823-2.115
		C627.657,654.098,628.305,653.081,629.526,652.367z M260.742,650.64c0.784-1.871,2.452-1.817,3.531-1.764l0.269,0.008
		c3.249,0.102,6.503,0.05,8.971-0.008l3.516-0.089c4.783-0.133,9.731-0.261,14.611-0.018c3.531,0.18,7.125,0.081,10.604-0.01
		c2.428-0.065,4.862-0.131,7.282-0.11c2.507,0.023,5.029,0.162,7.468,0.295c3.45,0.191,7.021,0.384,10.534,0.248
		c1.495-0.057,2.988-0.133,4.48-0.206c4.37-0.22,8.89-0.442,13.388-0.246c5.983,0.264,12.008,0.154,17.667,0.016
		c5.748-0.141,11.498-0.233,17.249-0.327c6.252-0.099,12.505-0.201,18.757-0.363c12.35-0.319,24.562-0.489,36.262-0.46l1.764,0.003
		c5.196,0.013,10.581,0.029,15.848-0.531c6.391-0.677,12.606-0.74,17.884-0.734c9.959,0.042,20.092-0.089,29.894-0.209l6.451-0.076
		c2.413-0.029,5.596-0.091,8.811-0.342c1.315-0.102,2.622-0.269,3.929-0.434c1.584-0.201,3.22-0.41,4.862-0.499
		c3.544-0.196,7.125,0.021,10.589,0.23c2.3,0.141,4.679,0.285,7,0.303c1.754,0.018,3.503-0.052,5.254-0.118
		c1.223-0.044,2.447-0.091,3.672-0.11c2.007-0.029,4.08,0.167,6.051,0.361c0.92,0.091,1.843,0.18,2.768,0.248
		c4.909,0.358,9.94,0.34,14.794,0.324l3.557-0.008c2.739-0.008,3.78-0.097,4.119-2.198l0.711-4.451
		c0.044-0.267,0.078-0.557,0.118-0.857c0.125-1.032,0.269-2.206,0.805-3.152c0.423-0.753,1.119-1.304,1.861-1.472
		c0.614-0.133,1.236-0.01,1.751,0.348c1.26,0.881,1.33,2.219,1.38,3.197c0.118,2.264-0.193,4.545-0.494,6.754
		c-0.097,0.714-0.193,1.425-0.277,2.128l-0.384,3.304c-0.546,4.647-1.111,9.454-1.498,14.185c-0.029,0.332-0.068,0.685-0.112,1.046
		c-0.246,2.083-0.321,3.5,0.842,4.224c0.685,0.423,1.534,0.384,2.517,0.348l0.627-0.024c1.443-0.026,2.88-0.023,4.315,0
		c3.583,0.065,7.201,0.298,10.701,0.525c2.496,0.159,4.992,0.322,7.491,0.423c6.231,0.261,12.596,0.044,18.216-0.146
		c5.361-0.183,10.808-0.193,16.078-0.204c6.498-0.013,13.218-0.029,19.805-0.366c2.19-0.11,4.375-0.254,6.558-0.395
		c3.756-0.246,7.64-0.502,11.49-0.583c4.833-0.102,9.669-0.094,14.499-0.089l2.562,0.003v-0.335h1.004
		c3.427,0,6.851,0.018,10.278,0.037c8.085,0.044,16.436,0.089,24.64-0.123c5.978-0.154,12.118-0.175,18.255-0.073
		c2.564,0.044,5.128,0.144,7.695,0.246c3.393,0.131,6.9,0.267,10.345,0.267c0.055,0,0.11,0,0.167,0
		c11.449-0.018,23.375-0.209,36.46-0.591c2.575-0.076,5.199-0.293,7.737-0.502c3.272-0.272,6.631-0.523,10.024-0.536
		c2.977,0.013,5.965,0.269,8.856,0.515c2.935,0.248,5.973,0.507,8.96,0.507c0.031,0,0.063,0,0.091,0
		c3.563-0.005,7.191-0.183,10.701-0.356c2.454-0.12,4.909-0.24,7.363-0.306c6.529-0.173,12.983-0.18,17.902-0.183h6.252
		c3.753-0.008,7.51-0.005,11.268,0.01c3.019,0.013,6.067,0.186,9.012,0.353c2.98,0.167,6.061,0.342,9.093,0.348h0.606
		c1.422,0.003,2.844,0.005,4.266,0.034l0.98,0.031c0.988,0.039,1.929,0.076,2.826-0.089c1.987-0.374,4.294-1.378,4.817-3.074
		c0.196-0.646,0.01-1.422-0.186-2.248l-0.165-0.719c-0.076-0.369-0.172-0.753-0.269-1.145c-0.261-1.059-0.533-2.154-0.525-3.225
		c0.005-0.842,0.285-2.01,1.059-2.747c0.465-0.444,1.056-0.635,1.678-0.646c1.668,0.068,2.266,1.749,2.624,2.752l0.167,0.455
		c0.949,2.35,2.018,5.413,1.832,8.27c-0.191,2.99-2.326,4.707-4.391,5.996c-4.274,2.669-9.13,2.53-13.843,2.399
		c-0.936-0.026-1.871-0.055-2.794-0.057c-2.901-0.01-5.818-0.204-8.639-0.392c-3.063-0.206-6.258-0.426-9.339-0.387
		c-4.221,0.039-8.443,0.044-12.661,0.05l-5.421,0.008c-5.455,0.01-11.896,0.052-18.312,0.264c-1.84,0.06-3.675,0.144-5.513,0.227
		c-4.085,0.186-8.325,0.376-12.497,0.298c-2.635-0.05-5.283-0.285-7.841-0.515c-3.296-0.293-6.707-0.604-10.042-0.491
		c-2.823,0.089-5.695,0.306-8.474,0.518c-3.103,0.238-6.312,0.481-9.499,0.549l-6.477,0.149c-9.773,0.227-19.87,0.468-29.795,0.259
		c-12.264-0.256-24.282-0.476-36.531-0.324c-9.517,0.12-19.031,0.183-28.545,0.248l-11.229,0.073
		c-4.713,0.021-9.585,0.044-14.36,0.23c-2.786,0.107-5.562,0.319-8.341,0.531c-3.181,0.24-6.469,0.489-9.731,0.578
		c-5.988,0.162-12.071,0.201-17.954,0.24c-5.876,0.039-11.95,0.078-17.918,0.24c-1.707,0.044-3.422,0.065-5.136,0.065
		c-5.034,0-10.068-0.17-14.977-0.335c-5.306-0.178-10.821-0.369-16.18-0.329c-0.471,0.003-0.959,0.024-1.458,0.044
		c-2.115,0.099-4.514,0.199-6.495-1.053c-1.715-1.085-2.954-3.001-3.236-4.995c-0.29-2.052-0.034-4.214,0.214-6.305
		c0.078-0.664,0.157-1.32,0.214-1.955l0.395-4.702c0.034-0.384,0.099-0.813,0.17-1.255c0.128-0.821,0.274-1.746,0.154-2.358
		c-0.214-1.082-2.096-1.113-4.01-1.064c-0.342,0.01-0.667,0.016-0.923,0.016l-3.989-0.05c-1.626-0.018-3.252-0.039-4.877-0.065
		c-3.604-0.063-6.516-0.159-9.164-0.306c-0.734-0.039-1.466-0.086-2.198-0.136c-2.253-0.149-4.373-0.288-6.587-0.196
		c-6.372,0.264-12.254,0.154-17.978-0.342c-4.07-0.356-8.247,0-12.29,0.34c-1.775,0.149-3.55,0.295-5.322,0.389
		c-11.467,0.609-23.647,0.857-36.194,0.742l-3.126-0.037c-4.953-0.065-10.066-0.125-15.071,0.175
		c-1.908,0.115-3.808,0.264-5.706,0.413c-3.882,0.301-7.899,0.614-11.906,0.622l-3.934,0.008c-10.63,0.016-21.622,0.034-32.43,0.259
		c-3.78,0.078-7.557,0.175-11.331,0.269c-8.2,0.209-16.679,0.426-25.038,0.444c-2.768,0.005-5.591,0.157-8.322,0.303
		c-3.048,0.165-6.184,0.34-9.316,0.303c-1.568-0.013-3.131-0.107-4.697-0.204c-1.411-0.084-2.823-0.17-4.234-0.193
		c-2.692-0.044-5.499,0.008-8.615,0.167c-7.363,0.366-12.999,0.4-18.276,0.099c-5.816-0.329-11.741-0.196-17.471-0.071l-0.572,0.013
		c-3.33,0.071-6.717-0.013-9.99-0.102c-2.614-0.068-5.256-0.115-7.834-0.125c-2.846,0.013-5.784,0.123-8.986,0.34
		c-2.266,0.152-5.212,0.191-7.949-0.891c-0.907-0.358-2.015-0.795-2.433-1.793C260.549,651.968,260.431,651.379,260.742,650.64z
		 M105.141,696.985c-0.024,0.34-0.047,0.656-0.055,0.933v0.003c-0.044,1.597-0.159,3.194-0.277,4.791l-0.149,2.112
		c-0.97,15.408-0.763,31.107-0.567,46.291c0.039,2.998,0.078,5.999,0.11,8.999l-0.342,12.392
		c-0.209,7.238-0.426,14.724-0.439,22.084l-0.013,14.094c0,1.406-0.026,2.82-0.055,4.242c-0.06,3.197-0.123,6.503,0.141,9.676
		c0.026,0.311,0.073,0.633,0.12,0.951c0.212,1.414,0.499,3.351-1.239,4.645c-0.557,0.416-1.244,0.633-1.942,0.633
		c-0.379,0-0.761-0.065-1.124-0.196c-0.988-0.355-1.691-1.132-1.929-2.122c-0.434-1.806-0.29-3.714-0.152-5.56
		c0.042-0.523,0.078-1.04,0.102-1.54c0.11-2.324,0.18-4.65,0.225-6.974c0.078-4.13,0.031-8.338-0.016-12.405
		c-0.055-5.029-0.112-10.23,0.063-15.351l0.063-1.793c0.295-8.599,0.604-17.489,0.63-26.237c0.016-4.775-0.06-9.551-0.139-14.324
		c-0.073-4.574-0.146-9.148-0.139-13.725c0.018-8.61,0.34-17.743,0.98-27.921l0.091-1.665c0.086-1.623,0.173-3.304,0.405-4.951
		c0.086-0.614,0.484-2.658,2-3.191c0.583-0.209,1.506-0.24,2.572,0.768C105.434,692.931,105.264,695.276,105.141,696.985z
		 M106.477,673.254l-0.003,0.003c-0.152,0.097-0.311,0.206-0.47,0.322c-0.64,0.447-1.435,1.001-2.384,1.061
		c-0.105,0.008-0.206,0.01-0.303,0.01c-1.393,0-2.02-0.669-2.277-1.085c-0.465-0.761-0.392-1.767,0.201-2.765
		c0.881-1.49,2.245-2.413,3.563-3.306l0.823-0.567c1.464-1.043,2.951-2.065,4.475-3.022c4.979-3.105,10.149-6.085,15.147-8.965
		c1.926-1.111,3.85-2.219,5.769-3.338l11.177-6.524c3.21-2.023,6.417-3.785,8.294-2.88c0.69,0.329,1.127,0.991,1.226,1.858
		c0.306,2.133-2.078,3.476-3.657,4.365c-0.298,0.17-0.572,0.324-0.792,0.465c-1.414,0.907-2.875,1.751-4.334,2.593l-15.978,9.331
		c-5.91,3.442-12.018,7.005-17.855,10.766C108.226,672.138,107.355,672.7,106.477,673.254z M167.031,675.641
		c-1.681-0.267-3.27-0.52-4.914-0.619c-2.99-0.186-6.022,0.057-8.96,0.295c-0.991,0.078-1.984,0.159-2.977,0.222
		c-6.942,0.452-14.021,0.431-20.843,0.437l-10.68-0.005c-0.416,0.021-0.87,0.013-1.323,0.026c-1.511,0.042-3.071,0.089-4.532-0.335
		c-0.74-0.214-2.496-0.863-2.797-2.245c-0.115-0.518-0.058-1.299,0.855-2.086c1.328-1.147,3.401-1.119,5.039-1.1
		c0.322,0.005,0.619,0.008,0.889,0c2.645-0.06,5.288-0.094,7.93-0.128l4.87-0.068c0.541,0.003,1.098,0.013,1.668,0.034
		c1.268,0.039,2.585,0.097,3.652-0.217c0.923-0.269,1.762-0.915,2.643-2.036c1.607-2.039,3.116-4.245,4.574-6.378
		c0.755-1.106,1.508-2.209,2.279-3.293c1.218-1.722,2.441-3.44,3.67-5.154c0.209-0.293,0.418-0.599,0.627-0.904
		c0.863-1.268,1.754-2.58,3.056-3.529c1.056-0.779,2.504-0.907,3.429-0.308c0.771,0.497,1.09,1.383,0.87,2.431
		c-0.369,1.772-1.477,3.283-2.457,4.619l-0.625,0.865c-0.768,1.098-1.558,2.185-2.35,3.275c-1.56,2.149-3.176,4.373-4.585,6.634
		l-0.261,0.405c-0.518,0.802-1.385,2.143-1.043,2.792c0.322,0.606,1.746,0.512,2.684,0.444l0.538-0.034
		c2.883-0.136,4.114-2.347,5.539-4.906c0.248-0.447,0.499-0.899,0.763-1.341l0.369-0.659c1.372-2.504,2.886-4.966,4.914-5.16
		c0.63-0.071,1.594,0.094,2.501,1.189c0.931,1.119,1.84,2.253,2.747,3.388c1.453,1.814,2.956,3.691,4.519,5.458
		c1.244,1.404,2.206,1.921,3.816,2.047c1.874,0.146,3.753,0.248,5.635,0.324c3.029,0.123,6.069,0.139,9.107,0.157l3.139,0.021
		c3.949,0.039,7.899,0.063,11.848,0.089c12.546,0.081,25.519,0.165,38.287,0.68c15.408,0.625,32.877,1.325,50.128,0.473
		c12.959-0.638,26.13-0.768,38.867-0.894c3.685-0.037,7.371-0.073,11.056-0.12c4.475-0.057,9.028-0.246,13.432-0.429
		c3.824-0.159,7.651-0.319,11.477-0.397c2.128-0.037,4.229,0.013,6.341,0.068c1.932,0.05,3.861,0.099,5.803,0.073
		c2.352-0.034,4.762-0.193,7.091-0.348c1.709-0.115,3.421-0.23,5.131-0.298c8.064-0.321,16.261-0.366,24.186-0.408l1.239-0.008
		c5.617-0.029,11.232-0.165,16.846-0.301c2.687-0.065,5.377-0.131,8.064-0.183c1.537-0.031,3.074-0.042,4.611-0.052
		c2.596-0.018,5.188-0.034,7.784-0.154c2.332-0.105,4.705-0.327,7-0.544c1.668-0.157,3.335-0.314,5.005-0.429
		c6.558-0.46,13.239-0.421,19.708-0.4c1.73,0.008,3.437,0.01,5.194,0.016c9.53-0.008,19.219-0.159,28.593-0.306
		c7.125-0.112,14.253-0.225,21.381-0.277c1.668-0.013,3.333-0.016,4.998-0.018c6.456-0.013,13.129-0.024,19.677-0.596
		c2.554-0.222,4.501-0.306,6.391-0.298h0.907c1.636-0.003,3.544-0.01,5.144,0.491c0.954,0.295,2.433,1.323,2.345,2.812
		c-0.078,1.341-1.445,1.903-1.963,2.115c-0.897,0.371-1.845,0.374-2.682,0.379l-0.669,0.01c-1.072,0.042-2.143,0.089-3.212,0.141
		c-1.953,0.091-3.905,0.199-5.858,0.303c-6.2,0.337-12.62,0.669-18.934,0.617c-4.125-0.039-8.275-0.029-12.332,0.042l-9.671,0.186
		l-0.489-0.01c-0.233-0.008-0.795-0.029-1.208-0.01v0.298h-25.155c-2.386,0-4.773-0.01-7.159-0.018
		c-5.863-0.029-11.924-0.047-17.868,0.076c-4.671,0.094-8.461,0.345-11.927,0.787c-3.79,0.484-7.614,0.565-11.31,0.646l-0.978,0.021
		c-14.925,0.337-32.291,0.708-49.542,0.831c-4.407,0.031-8.145,0.165-11.765,0.421c-3.929,0.28-8.113,0.395-12.821,0.363
		c-5.502-0.034-11.117,0.112-16.538,0.256c-2.643,0.068-5.285,0.138-7.933,0.188c-5.837,0.11-11.684,0.12-17.536,0.131
		c-10.698,0.018-21.763,0.037-32.581,0.703c-8.62,0.533-17.536,0.797-27.189,0.797c-7.198,0-14.805-0.146-23.007-0.439
		c-14.935-0.531-32.552-1.082-49.968-1.161l-26.423-0.099c-1.681,0.047-3.435,0.003-5.173-0.274L167.031,675.641z"/>
	<path fill="#6E9FBA" d="M699.61,569.907c0.834,2.363,1.694,4.804,1.869,7.496c0.196,2.94-0.34,5.795-0.857,8.552
		c-0.162,0.873-0.35,1.746-0.536,2.622c-0.405,1.892-0.823,3.85-0.985,5.763c-0.167,1.939,0.071,4.007,0.301,6.004
		c0.091,0.789,0.183,1.573,0.251,2.35c0.248,2.904,0.47,5.811,0.635,8.717c0.094,1.589,0.167,3.181,0.222,4.773
		c0.013,0.431,0.008,0.878,0.003,1.33c-0.013,0.904-0.026,1.84,0.149,2.627c0.282,1.278,1.213,1.432,3.685,1.215
		c0.337-0.029,0.664-0.057,0.972-0.073l2-0.099c2.311-0.118,4.619-0.235,6.927-0.361c6.014-0.332,11.99-0.849,17.594-1.349
		c5.204-0.465,10.502-0.669,15.623-0.865l2.36-0.094c8.393-0.332,16.783-0.418,24.925-0.261c0.421,0.008,0.81,0.013,1.098-0.091
		c6.519-2.386,13.362-3.976,19.983-5.513l1.26-0.293c1.239-0.287,2.467-0.599,3.693-0.925c2.768-0.74,5.51-1.558,8.249-2.379
		c2.875-0.86,5.75-1.72,8.66-2.488c2.938-0.776,5.899-1.459,8.858-2.138c2.703-0.619,5.405-1.242,8.092-1.937l0.277-0.071
		c5.33-1.38,10.842-2.81,15.879-4.971c3.048-1.31,5.217-3.578,7.515-5.983c0.996-1.04,1.997-2.088,3.082-3.071
		c3.693-3.343,7.818-6.061,12.261-8.074c0.797-0.363,1.615-0.682,2.431-1.001l1.127-0.444c1.448-0.578,2.125-0.978,2.201-1.263
		c0.125-0.468-0.98-1.453-1.398-1.824l-0.512-0.457c-0.852-0.768-1.707-1.537-2.554-2.313c-1.678-1.532-3.876-3.578-5.988-5.797
		c-1.014-1.066-1.937-2.206-2.831-3.306c-0.755-0.936-1.511-1.869-2.324-2.758c-1.299-1.425-3.212-2.407-5.063-3.359l-0.889-0.46
		c-2.41-1.265-4.898-2.431-7.402-3.466c-4.849-2.005-9.925-3.594-15.09-4.723c-2.525-0.552-5.371-1.174-8.189-1.032
		c-2.742,0.149-5.437,1.077-7.745,1.937c-2.426,0.902-4.836,2.036-7.162,3.367c-0.557,0.316-1.106,0.64-1.655,0.965
		c-1.819,1.074-3.699,2.185-5.748,2.988c-2.287,0.897-4.768,1.427-7.802,1.662c-1.746,0.136-3.474,0.355-5.204,0.575
		c-1.032,0.131-2.068,0.261-3.105,0.376c-5.81,0.633-11.783,0.552-17.758-0.248c-4.402-0.591-8.884-0.787-13.218-0.975
		c-1.333-0.06-2.671-0.118-4.012-0.188c-3.121-0.159-6.239-0.583-9.253-0.991c-2.731-0.371-5.554-0.753-8.341-0.933
		c-1.252-0.081-2.522-0.12-3.819-0.12c-4.054,0-8.372,0.397-13.302,1.215c-2.857,0.476-5.858,0.823-8.918,1.038
		c-1.317,0.091-2.635,0.118-3.955,0.146c-1.542,0.031-3.082,0.063-4.613,0.199l-0.295,0.029c-2.656,0.233-3.602,0.58-3.628,2.068
		c-0.05,2.697,0.839,5.463,1.751,8.064L699.61,569.907z"/>
	<path fill="#6E9FBA" d="M694.137,571.945c-0.755-2.355-1.511-4.71-2.175-7.099c-0.118-0.423-0.22-0.847-0.324-1.265
		c-0.606-2.473-1.079-4.02-3.092-4.632c-6.482-1.966-11.731-4.48-16.517-7.909c-5.881-4.214-11.642-8.074-17.128-11.48
		c-5.92-3.675-12.146-6.553-17.455-8.884c-6.406-2.813-12.789-5.675-19.165-8.563c-1.709-0.776-3.416-1.566-5.123-2.355
		c-4.472-2.068-9.096-4.206-13.736-6.048c-1.432-0.57-2.891-1.064-4.349-1.558c-1.636-0.557-3.33-1.132-4.971-1.809
		c-1.817-0.75-3.615-1.545-5.413-2.339c-1.367-0.606-2.737-1.21-4.112-1.796c-11.608-4.935-25.134-10.549-38.802-14.669
		c-6.401-1.932-12.844-3.432-19.144-4.464c-2.499-0.41-5.003-0.737-7.507-1.064c-4.078-0.531-8.291-1.079-12.41-1.994
		c-11.974-2.658-23.132-7.855-33.925-12.881l-3.929-1.822c-4.893-2.261-9.747-4.747-14.441-7.151l-4.206-2.149
		c-1.689-0.855-3.382-1.704-5.073-2.551c-4.339-2.172-8.824-4.42-13.161-6.791c-2.76-1.508-5.675-2.867-8.492-4.18
		c-3.129-1.458-6.362-2.964-9.436-4.7c-2.389-1.346-5.053-2.64-8.338-2.964c-2.321-0.23-4.721-0.303-7.039-0.374
		c-1.043-0.034-2.086-0.065-3.126-0.11l0.003-0.024c-0.609,0.029-1.861-0.026-4.697-0.157c-1.866-0.084-4.174-0.188-4.671-0.188
		c-0.021,0-0.039,0-0.052,0c-2.332,0.06-3.411,1.973-4.658,4.19l-0.173,0.303c-3.62,6.396-5.384,12.484-5.105,17.604
		c0.057,1.019,0.196,2.177,0.81,3.048c0.489,0.693,1.244,1.072,2.12,1.513l0.507,0.256c2.481,1.296,4.467,2.886,6.571,4.569
		l1.116,0.891c1.37,1.079,2.794,2.094,4.219,3.108c1.236,0.876,2.47,1.754,3.67,2.674c2.739,2.109,5.35,4.224,7.766,6.291
		c5.384,4.613,10.738,9.057,15.908,13.21c6.119,4.906,11.522,9.117,16.519,12.868c3.733,2.799,7.695,5.432,11.527,7.977
		c1.694,1.124,3.385,2.248,5.066,3.388c5.296,3.604,10.772,7.329,16.998,9.726c2.765,1.064,5.599,1.553,8.599,2.073l0.899,0.157
		c3.278,0.572,6.647,1.255,10.019,2.031c6.108,1.401,13.174,3.1,19.719,5.554c5.766,2.164,11.323,5.207,16.697,8.15l1.563,0.855
		c6.226,3.395,11.749,6.741,16.883,10.228c3.534,2.399,7.01,4.99,10.372,7.494c1.929,1.438,3.858,2.875,5.805,4.284l1.336,0.967
		c5.011,3.623,10.191,7.371,15.124,11.286c2.433,1.934,4.948,3.934,7.635,5.672l2.248,1.445c1.973,1.268,3.949,2.535,5.886,3.863
		c4.854,3.327,10.894,7.465,15.955,12.149c3.44,3.184,5.999,7.178,8.477,11.041c0.98,1.532,1.958,3.058,2.988,4.527
		c4.263,6.088,8.262,10.416,12.586,13.623c1.315,0.975,2.256,1.474,3.505,1.425c0.91-0.05,1.903-0.327,2.862-0.596
		c0.494-0.139,0.983-0.274,1.464-0.384c1.336-0.308,2.674-0.599,4.012-0.889c1.945-0.421,3.887-0.842,5.818-1.317
		c3.314-0.813,6.493-1.95,9.465-3.042c2.015-0.742,4.159-1.205,6.231-1.655c1.027-0.222,2.049-0.442,3.05-0.695l0.489-0.125
		c6.305-1.594,12.821-3.246,19.415-4.085c0.829-0.105,1.728-0.154,2.648-0.206c2.277-0.125,4.629-0.254,6.31-1.278
		c1.519-0.925,1.422-3.955,1.349-6.169c-0.016-0.518-0.031-1.001-0.026-1.417c0.034-2.823,0.01-6.532-0.476-10.191
		c-0.434-3.275-0.883-6.66-0.669-10.136c0.146-2.413,0.685-4.836,1.208-7.178c0.949-4.276,1.848-8.317,0.588-12.329L694.137,571.945
		z"/>
	<path fill="#2C3B84" d="M104.052,519.988l2.886,1.064c1.393,0.515,2.833,1.048,4.13,1.96c2.948,2.068,4.012,5.128,4.66,7.847
		l0.206,0.87c0.703,2.993,1.312,5.578,3.27,7.949c1.607,1.945,3.382,3.693,5.656,3.34c0.899-0.144,1.79-0.533,2.731-0.944
		c0.75-0.327,1.521-0.664,2.339-0.891c1.811-0.507,3.631-0.774,5.17-0.97c1.307-0.167,2.619-0.324,3.929-0.484
		c2.614-0.314,5.23-0.63,7.836-1.019c6.166-0.92,13.385-2.196,20.173-4.671c3.769-1.375,7.162-3.636,10.677-7.117
		c2.366-2.342,4.404-4.527,5.398-7.559c1.08-3.293,0.878-6.702-0.583-9.857c-1.249-2.703-2.763-4.227-4.626-4.66
		c-0.787-0.183-1.636-0.154-2.533-0.131c-0.452,0.016-0.899,0.024-1.357,0.021c-0.667,0-1.336-0.005-2.005-0.01l-1.947-0.01
		c-3.842,0.332-7.606,0.682-11.386,1.291c-4.428,0.716-8.85,1.451-13.273,2.193l-5.066,0.834
		c-6.877,1.121-13.992,2.282-20.848,3.952c-4.198,1.025-7.554,1.979-10.56,3.001l-0.369,0.12c-6.195,2.005-6.704,3.103-6.744,3.22
		c0.193,0.065,1.103,0.324,1.49,0.434C103.602,519.842,103.863,519.917,104.052,519.988z"/>
	<path fill="#2C3B84" d="M360.585,400.884c0.136-0.523-0.102-0.826-0.818-1.563L359.461,399c-2.316-2.467-4.514-4.629-6.715-6.605
		c-1.631-1.464-3.28-2.907-4.93-4.349c-2.789-2.439-5.672-4.961-8.419-7.549c-3.662-3.453-7.81-7.52-10.683-12.152
		c-0.436-0.701-0.81-1.472-1.187-2.25c-0.758-1.571-1.477-3.056-2.739-3.952c-1.733-1.234-4.14-0.465-5.85,0.405
		c-2.488,1.26-4.59,2.7-6.25,4.281c-1.464,1.396-2.284,3.262-2.656,6.056c-0.332,2.491-0.084,5.149,0.248,8.113
		c0.293,2.614,0.797,5.246,1.5,7.826c1.448,5.316,3.688,10.254,6.663,14.674c0.742,1.106,1.529,2.183,2.352,3.231l0.374,0.489
		c0.518,0.693,1.053,1.409,1.673,1.67c0.64,0.269,1.696,0.094,2.622-0.057c0.421-0.071,0.823-0.136,1.192-0.167
		c1.584-0.141,2.967-0.212,4.232-0.214c0.008,0,0.013,0,0.018,0c2.256,0,4.42,0.366,6.511,0.719c0.8,0.133,1.605,0.269,2.415,0.387
		c2.818,0.403,5.727,0.575,8.539,0.742l1.986,0.016h3.529l0.669,0.016c1.163,0.05,1.636,0.008,1.989-0.494
		c0.303-0.426,0.199-1.242,0.097-2.031c-0.047-0.374-0.091-0.734-0.105-1.066c-0.052-1.55,0.444-2.807,1.477-3.735
		c0.382-0.342,0.823-0.612,1.265-0.87C360.017,401.697,360.441,401.425,360.585,400.884z"/>
	<path fill="#2C3B84" d="M371.808,437.697c-0.395-0.173-1.046-0.227-1.618-0.277c-0.308-0.026-0.609-0.052-0.881-0.091l-2.977-0.426
		c-9.274-1.302-17.578-2.243-25.383-2.873c-0.379-0.003-0.8-0.024-1.247-0.047c-0.468-0.026-0.978-0.055-1.477-0.055
		c-0.928,0-1.819,0.097-2.358,0.476c-0.951,0.674-0.792,2.345-0.653,3.816c0.034,0.358,0.068,0.703,0.084,1.025
		c0.251,4.668,0.904,9.504,1.947,14.371c0.578,2.705,2.201,5.005,4.692,6.647c1.73,1.14,3.382,1.783,4.909,1.911
		c1.302,0.123,2.52-0.314,3.816-0.766c0.436-0.152,0.878-0.303,1.328-0.439c3.382-1.025,7.055-1.571,11.906-1.775
		c1.474-0.06,2.036-0.518,2.224-1.809c0.332-2.287,0.701-4.156,1.161-5.878c0.538-2.013,1.234-4.067,2.07-6.108
		c0.34-0.829,0.734-1.639,1.132-2.449c0.455-0.928,0.91-1.853,1.268-2.815C372.478,438.212,372.323,437.925,371.808,437.697z"/>
	<path fill="#2C3B84" d="M179.986,771.194c2.117-1.492,4.305-3.035,7.063-3.748c2.339-0.606,4.744-0.51,7.065-0.423
		c0.599,0.021,1.192,0.044,1.783,0.055l0.653,0.013c2.839,0.05,5.677,0.099,8.513,0.18c5.424,0.159,10.957,0.507,16.449,1.04
		c2.541,0.246,5.154,0.387,7.773,0.418l1.574,0.034c2.054,0.06,4.179,0.112,6.02-0.282c1.38-0.298,2.444-1.377,2.776-2.82
		c0.45-1.955,0.429-4.344-0.494-4.927c-1.187-0.75-3.32-0.685-5.034-0.625c-0.565,0.016-1.108,0.024-1.574,0.026
		c-2.752-0.047-5.502-0.089-8.252-0.099c-0.259,0-0.518,0-0.774,0c-5.662,0-10.711,0.18-15.408,0.557l-1.919,0.154
		c-4.707,0.384-9.574,0.779-14.418,0.789h-0.413c-2.418,0.003-4.914,0.005-7.358,0.131c-2.018,0.105-4.778,0.246-6.459,1.451
		c-1.364,0.98-1.73,3.001-2.052,4.783c-0.41,2.245-0.567,4.404-0.638,6.344c0.593-0.144,1.113-0.327,1.696-0.703
		C177.725,772.794,178.856,771.994,179.986,771.194z"/>
	<path fill="#2C3B84" d="M160.92,668.652c0.235-0.097,0.293-0.188,0.308-0.243c-0.078-0.897-0.622-1.364-1.14-1.43
		c-0.042-0.005-0.086-0.008-0.128-0.008c-0.507,0-0.931,0.392-1.147,1.077c-0.06,0.191-0.026,0.264,0.076,0.358
		C159.295,668.78,160.301,668.902,160.92,668.652z"/>
</g>
</svg>
